<svg width="169" height="98" viewBox="0 0 169 98" fill="none" xmlns="http://www.w3.org/2000/svg">
<path d="M16.1578 17.482C15.7161 17.7444 15.3771 18.0375 15.1409 18.3613C14.5515 19.0515 14.0378 19.7998 13.5999 20.6061C13.1619 21.4124 12.7828 22.2518 12.4624 23.1243C12.4011 23.3297 12.3188 23.5311 12.2155 23.7285C12.1123 23.9258 11.9921 24.0982 11.8551 24.2456C11.4399 24.7086 10.9765 24.8583 10.4649 24.6944C10.1926 24.6419 9.97634 24.5241 9.81609 24.3411C9.65585 24.1582 9.52463 23.9373 9.42244 23.6786C9.37501 23.4739 9.35055 23.2628 9.34905 23.0453C9.3685 22.8317 9.37748 22.6162 9.37599 22.3987C9.43285 21.5406 9.47924 20.6805 9.51515 19.8183C9.57606 18.9393 9.66636 18.0768 9.78607 17.2308C9.85325 16.6571 9.96233 16.0916 10.1133 15.5341C10.2643 14.9766 10.4362 14.4231 10.6291 13.8737C10.6493 13.769 10.6884 13.6787 10.7465 13.603C10.8085 13.5064 10.8581 13.4182 10.8953 13.3384C11.1848 12.8511 11.5749 12.6873 12.0655 12.8471C12.2709 12.9085 12.4412 13.0391 12.5765 13.239C12.7118 13.4389 12.7676 13.6561 12.7442 13.8905C12.71 14.4054 12.6675 14.9078 12.6164 15.3976C12.5864 15.8915 12.5668 16.3875 12.5576 16.8854C12.5624 16.9732 12.5527 17.08 12.5284 17.2057C12.5082 17.3104 12.5195 17.4212 12.5621 17.5381C12.6749 17.5164 12.7479 17.4761 12.7809 17.4173C12.818 17.3376 12.8531 17.2683 12.8862 17.2095C13.1765 16.831 13.4647 16.4629 13.751 16.1053C14.0412 15.7267 14.3548 15.3961 14.6918 15.1135C14.8498 14.9702 15.0058 14.8373 15.1597 14.7149C15.3178 14.5716 15.4927 14.4532 15.6845 14.3599C16.314 14.025 16.9328 13.9705 17.541 14.1965C18.1533 14.4015 18.5998 14.8461 18.8807 15.5303C19.0045 15.9018 19.0825 16.2862 19.1145 16.6835C19.1506 17.0598 19.1532 17.4405 19.1224 17.8256C19.1059 18.4742 19.0665 19.1293 19.0041 19.7908C18.9667 20.4354 18.9293 21.0799 18.8918 21.7245C18.861 22.1096 18.8407 22.4968 18.8308 22.886C18.8459 23.2582 18.838 23.6369 18.8072 24.0221C18.8208 24.1768 18.849 24.3126 18.8916 24.4294C18.9342 24.5463 19.0188 24.6712 19.1452 24.8042C19.5407 25.1195 19.6061 25.5123 19.3416 25.9827C19.0521 26.4701 18.6648 26.7321 18.1797 26.7689C17.6946 26.8057 17.2749 26.6162 16.9206 26.2002C16.7644 25.9963 16.6416 25.7879 16.5523 25.5751C16.463 25.3624 16.3861 25.1412 16.3218 24.9115C16.1038 24.2394 15.9716 23.5729 15.9252 22.9122C15.8789 22.2515 15.8804 21.5674 15.93 20.86C15.96 20.3661 16.0026 19.8637 16.0577 19.3529C16.1127 18.8421 16.1344 18.3357 16.1226 17.8337C16.1306 17.7918 16.1282 17.7479 16.1154 17.7019C16.1275 17.6391 16.1416 17.5658 16.1578 17.482ZM31.3684 21.8495C30.8678 23.8822 29.744 25.6534 27.9971 27.1632C27.6811 27.4499 27.3313 27.6866 26.9477 27.8733C26.5681 28.0391 26.1567 28.1445 25.7135 28.1893C24.8602 28.2203 24.0929 27.9745 23.4115 27.4521C23.1715 27.232 22.948 26.9825 22.7411 26.7036C22.5382 26.4037 22.3792 26.1015 22.2642 25.7968C21.8852 24.833 21.6883 23.8825 21.6735 22.9454C21.6627 21.9873 21.7817 21.0326 22.0303 20.0811C22.2798 19.2385 22.6259 18.4579 23.0686 17.7394C23.5154 16.9999 24.0842 16.3601 24.775 15.8198C25.3578 15.389 25.9965 15.1754 26.691 15.179C27.0214 15.1558 27.3042 15.2104 27.5394 15.3427C27.7786 15.454 27.9953 15.6261 28.1893 15.8591C28.2401 15.934 28.3053 15.9901 28.385 16.0272C28.4688 16.0434 28.5631 16.0615 28.6678 16.0817C29.2455 16.128 29.7321 16.3087 30.1276 16.624C30.544 16.9433 30.8753 17.3657 31.1216 17.8911C31.3976 18.4876 31.5399 19.1016 31.5484 19.7333C31.582 20.3481 31.522 21.0535 31.3684 21.8495ZM27.3612 18.6324C27.1307 18.588 26.8838 18.573 26.6203 18.5873C26.4108 18.5469 26.2436 18.569 26.1187 18.6535C25.9937 18.7381 25.8712 18.8665 25.7511 19.0389C25.3083 19.7574 25.0017 20.5021 24.8313 21.2731C24.6818 22.0482 24.6455 22.8559 24.7224 23.6964C24.7835 24.0558 24.9158 24.4398 25.1194 24.8484C25.2378 25.0233 25.3264 25.1273 25.3852 25.1604C25.469 25.1765 25.5983 25.1254 25.7732 25.0071C25.9981 24.8549 26.2125 24.7007 26.4165 24.5445C26.6454 24.3714 26.8449 24.1818 27.015 23.9756C27.1683 23.7444 27.3235 23.5028 27.4807 23.2506C27.659 23.0026 27.8057 22.7484 27.9211 22.4882C28.1026 22.1104 28.2631 21.7286 28.4027 21.3427C28.5464 20.9359 28.6062 20.5129 28.5823 20.0738C28.5624 19.6137 28.4639 19.2796 28.2867 19.0717C28.1096 18.8637 27.801 18.7173 27.3612 18.6324ZM37.1014 28.7236C37.6519 28.4604 38.1016 28.1561 38.4507 27.8106C38.9288 27.3596 39.3984 26.8962 39.8595 26.4202C40.3416 25.9483 40.7754 25.4454 41.1608 24.9114C41.1979 24.8316 41.231 24.7728 41.26 24.7349C41.2931 24.6761 41.3157 24.6153 41.3278 24.5525C41.4336 24.1166 41.7375 23.8928 42.2394 23.881C42.7293 23.932 43.0511 24.1787 43.2047 24.6212C43.3021 24.792 43.3452 24.9633 43.3338 25.1349C43.3474 25.2896 43.336 25.4612 43.2997 25.6498C43.0018 26.7438 42.5025 27.7556 41.8018 28.685C40.935 29.7997 39.8991 30.6645 38.6942 31.2795C38.4274 31.4236 38.1562 31.5342 37.8806 31.6114C37.6219 31.7136 37.3399 31.7678 37.0345 31.7741C36.4866 31.7988 35.973 31.6454 35.4937 31.314C35.0105 31.0035 34.6562 30.5876 34.4308 30.0661C34.3029 29.7156 34.1979 29.3586 34.116 28.9951C34.038 28.6108 33.981 28.2304 33.9449 27.8541C33.8221 27.0265 33.7766 26.1922 33.8085 25.351C33.8404 24.5098 33.8827 23.6706 33.9356 22.8335C33.9942 21.6281 34.0988 20.4099 34.2493 19.1788C34.3789 17.9436 34.5609 16.7186 34.7952 15.5036C34.8396 15.2732 34.8449 15.133 34.8111 15.083C34.7773 15.0331 34.6307 15.0048 34.3712 14.9982C34.0868 15.0085 33.8003 15.0293 33.5119 15.0606C33.2065 15.0669 32.9031 15.0627 32.6018 15.048C32.2295 15.0631 31.8626 14.938 31.5009 14.6727C31.1683 14.3696 31.0194 14.015 31.0543 13.6089C31.0932 13.1819 31.2876 12.85 31.6374 12.6133C31.9791 12.4185 32.3277 12.3011 32.683 12.261C33.0803 12.229 33.4775 12.1969 33.8748 12.1649C34.2511 12.1289 34.6359 12.1053 35.0291 12.0942C35.2885 12.1008 35.4537 12.0892 35.5246 12.0594C35.5786 12.0047 35.6424 11.8432 35.7159 11.5749C35.8742 10.8667 36.0723 10.1771 36.3104 9.50605C36.5315 8.81 36.8051 8.12405 37.1309 7.4482C37.2632 7.21299 37.385 6.97577 37.4963 6.73652C37.6326 6.48036 37.7963 6.25122 37.9874 6.04907C38.1454 5.90574 38.2994 5.78335 38.4493 5.6819C38.6033 5.55951 38.7721 5.47258 38.9558 5.42111C39.4064 5.22556 39.8503 5.28945 40.2876 5.61279C40.4688 5.79982 40.5602 6.00211 40.5617 6.21966C40.5841 6.44126 40.5522 6.66322 40.4658 6.88557C40.3351 7.33833 40.1624 7.78301 39.9478 8.21961C39.7373 8.63526 39.5646 9.07994 39.4298 9.55365C39.3112 9.94357 39.182 10.3315 39.0424 10.7173C38.9238 11.1073 38.8031 11.5077 38.6804 11.9185C38.6441 12.1071 38.6323 12.2243 38.6452 12.2702C38.683 12.2992 38.8067 12.334 39.0162 12.3744C39.4351 12.4552 39.8351 12.5214 40.2162 12.5732C40.5973 12.625 40.9869 12.6893 41.3849 12.766C42.0971 12.9034 42.6416 13.2908 43.0183 13.9284C43.1238 14.0574 43.1938 14.2012 43.2284 14.36C43.2879 14.5018 43.314 14.6481 43.3067 14.7987C43.2799 15.1629 43.1041 15.4549 42.7793 15.6747C42.4585 15.8736 42.1636 15.8819 41.8945 15.6996C41.8526 15.6915 41.8003 15.6814 41.7374 15.6693C41.6996 15.6403 41.6472 15.6302 41.5803 15.639C41.0872 15.7177 40.6017 15.7001 40.124 15.5863C39.6672 15.4764 39.1918 15.4065 38.6979 15.3764L38.258 15.2916C38.0066 15.2431 37.8567 15.3445 37.8082 15.5959C37.7734 16.002 37.7176 16.404 37.6408 16.802C37.5681 17.1791 37.5038 17.5686 37.448 17.9706C37.2919 19.0051 37.1673 20.0457 37.0741 21.0923C36.9808 22.1389 36.9211 23.1811 36.8947 24.2189C36.8566 24.7547 36.8289 25.2926 36.8117 25.8324C36.8195 26.3553 36.8462 26.8928 36.8918 27.4448C36.8973 27.6414 36.9238 27.842 36.9712 28.0467C37.0187 28.2514 37.0621 28.477 37.1014 28.7236ZM49.6295 22.0799C49.7577 21.8656 49.865 21.6473 49.9513 21.425C50.0627 21.1857 50.174 20.9465 50.2853 20.7072C50.4257 20.4301 50.5829 20.178 50.7571 19.9509C50.9312 19.7238 51.1433 19.5257 51.3931 19.3566C51.8179 19.0692 52.2688 18.928 52.7458 18.9331C53.2228 18.9382 53.655 19.1193 54.0424 19.4764C54.5183 19.9376 54.8194 20.5171 54.9455 21.2149C55.0837 21.8499 55.1446 22.4917 55.1282 23.1404C55.1326 23.793 55.1162 24.4416 55.0788 25.0862C54.9598 26.041 54.78 26.9731 54.5394 27.8827C54.2988 28.7922 54.0373 29.6978 53.7548 30.5993C53.7015 30.7628 53.6273 30.9223 53.5321 31.0777C53.462 31.2163 53.3499 31.3468 53.1959 31.4692C53.0589 31.6165 52.8775 31.7119 52.6519 31.7553C52.4472 31.8027 52.2587 31.7664 52.0863 31.6462C51.7464 31.4938 51.6019 31.1726 51.653 30.6827C51.7186 29.8915 51.7739 29.0983 51.8186 28.303C51.8843 27.5118 51.9395 26.7186 51.9843 25.9233C51.9893 25.4463 52.0238 24.9859 52.0877 24.5419C52.1516 24.098 52.1716 23.6565 52.1477 23.2173C52.0639 23.2012 52.0054 23.2225 51.9724 23.2813C51.9433 23.3191 51.9143 23.357 51.8853 23.3949C51.2184 24.3743 50.6313 25.3908 50.1239 26.4445C49.6415 27.4812 49.2348 28.576 48.9038 29.7289C48.8183 30.06 48.7117 30.3871 48.5842 30.7101C48.4777 31.0372 48.3712 31.3642 48.2646 31.6913C48.0306 32.3414 47.5829 32.6353 46.9214 32.5729C46.67 32.5244 46.4493 32.3732 46.2593 32.1193C46.0652 31.8863 45.9755 31.6192 45.9902 31.3178C45.992 30.9706 46.0023 30.6358 46.021 30.3135C46.0606 29.9952 46.1023 29.6665 46.146 29.3273C46.2036 28.578 46.2612 27.8287 46.3188 27.0794C46.3805 26.3091 46.4506 25.5513 46.5291 24.8061C46.611 23.9311 46.6908 23.0665 46.7686 22.2125C46.8505 21.3375 46.9512 20.477 47.0709 19.631C47.1745 18.8688 47.2865 18.1192 47.4069 17.382C47.5274 16.6448 47.6603 15.8991 47.8058 15.145C47.9593 14.349 48.1148 13.5425 48.2724 12.7256C48.4549 11.8918 48.7068 11.093 49.0279 10.3293C49.1182 10.086 49.2171 9.85523 49.3243 9.63693C49.4566 9.40172 49.6163 9.19352 49.8033 9.01232C50.0194 8.79328 50.2652 8.64515 50.5408 8.56795C50.8374 8.49478 51.1012 8.53481 51.3324 8.68802C51.8737 8.92279 52.0777 9.3858 51.9444 10.0771C51.7479 11.321 51.4866 12.5634 51.1604 13.804C50.8552 15.0488 50.5939 16.2911 50.3765 17.531C50.252 18.2892 50.1065 19.0433 49.9401 19.7933C49.7947 20.5474 49.6493 21.3015 49.5038 22.0556L49.6295 22.0799ZM60.8011 18.629C60.1412 18.7842 59.6336 18.5994 59.2786 18.0747C59.1643 17.8788 59.1124 17.6407 59.123 17.3603C59.1337 17.0799 59.2156 16.8241 59.3688 16.593C59.547 16.3449 59.7989 16.1653 60.1245 16.0543C60.4541 15.9224 60.7656 15.8846 61.0588 15.9412C61.6663 16.0584 62.0202 16.4199 62.1206 17.0259C62.1769 17.2975 62.1368 17.5613 62.0005 17.8175C61.8892 18.0567 61.7002 18.2484 61.4334 18.3925C61.3334 18.4601 61.225 18.5153 61.1082 18.5579C61.0163 18.5836 60.914 18.6074 60.8011 18.629ZM59.5431 31.9111C59.542 32.3672 59.3453 32.6552 58.9528 32.775C58.5394 32.8908 58.1704 32.7762 57.8459 32.4312C57.7066 32.2522 57.6132 32.0604 57.5658 31.8557C57.5184 31.651 57.473 31.4359 57.4296 31.2102C57.4233 30.9048 57.419 30.589 57.4168 30.2627C57.4355 29.9404 57.4522 29.6285 57.4669 29.3272C57.5432 28.2556 57.6404 27.188 57.7586 26.1245C57.9018 25.0441 58.1163 23.9883 58.4021 22.9571C58.4675 22.7307 58.5434 22.5063 58.6297 22.284C58.7201 22.0407 58.8588 21.8284 59.0458 21.6472C59.1909 21.458 59.3594 21.3167 59.5512 21.2233C59.764 21.134 59.9961 21.1135 60.2474 21.162C60.7252 21.2759 61.0223 21.5939 61.1389 22.1161C61.2547 22.5295 61.2702 22.9562 61.1853 23.3961L60.3491 27.7322C60.2796 27.9795 60.2001 28.2792 60.1105 28.6312C60.0209 28.9833 59.9356 29.3688 59.8548 29.7878C59.7902 30.1229 59.7235 30.4686 59.6549 30.8247C59.6071 31.1848 59.5699 31.547 59.5431 31.9111ZM69.3034 27.7319C68.8617 27.9943 68.5227 28.2874 68.2865 28.6112C67.6971 29.3014 67.1834 30.0497 66.7455 30.856C66.3075 31.6623 65.9284 32.5017 65.608 33.3742C65.5467 33.5796 65.4644 33.781 65.3611 33.9783C65.2579 34.1757 65.1378 34.3481 65.0007 34.4954C64.5855 34.9585 64.1221 35.1081 63.6105 34.9443C63.3382 34.8918 63.1219 34.774 62.9617 34.591C62.8015 34.408 62.6702 34.1872 62.568 33.9285C62.5206 33.7238 62.4962 33.5127 62.4947 33.2951C62.5141 33.0816 62.5231 32.8661 62.5216 32.6485C62.5785 31.7905 62.6248 30.9303 62.6608 30.0682C62.7217 29.1892 62.812 28.3267 62.9317 27.4807C62.9989 26.907 63.1079 26.3415 63.2589 25.784C63.4099 25.2265 63.5818 24.673 63.7747 24.1236C63.7949 24.0188 63.834 23.9286 63.8921 23.8529C63.9542 23.7563 64.0038 23.6681 64.0409 23.5883C64.3304 23.101 64.7205 22.9372 65.2111 23.097C65.4165 23.1584 65.5869 23.289 65.7221 23.4889C65.8574 23.6888 65.9133 23.906 65.8898 24.1404C65.8556 24.6553 65.8131 25.1576 65.762 25.6475C65.732 26.1414 65.7124 26.6374 65.7032 27.1353C65.708 27.2231 65.6983 27.3299 65.6741 27.4556C65.6539 27.5603 65.6651 27.6711 65.7077 27.788C65.8205 27.7663 65.8935 27.726 65.9265 27.6672C65.9636 27.5875 65.9987 27.5182 66.0318 27.4594C66.3221 27.0808 66.6103 26.7128 66.8966 26.3552C67.1868 25.9766 67.5004 25.646 67.8374 25.3634C67.9954 25.2201 68.1514 25.0872 68.3054 24.9648C68.4634 24.8215 68.6383 24.7031 68.8301 24.6097C69.4596 24.2749 70.0784 24.2204 70.6866 24.4464C71.2989 24.6514 71.7454 25.096 72.0263 25.7802C72.1502 26.1517 72.2281 26.5361 72.2601 26.9334C72.2962 27.3097 72.2988 27.6904 72.268 28.0755C72.2515 28.7241 72.2121 29.3792 72.1497 30.0407C72.1123 30.6852 72.0749 31.3298 72.0374 31.9744C72.0066 32.3595 71.9863 32.7467 71.9764 33.1359C71.9915 33.5081 71.9836 33.8868 71.9528 34.272C71.9664 34.4267 71.9946 34.5624 72.0372 34.6793C72.0798 34.7962 72.1644 34.9211 72.2908 35.0541C72.6863 35.3694 72.7517 35.7622 72.4872 36.2326C72.1977 36.7199 71.8104 36.982 71.3253 37.0188C70.8402 37.0556 70.4205 36.866 70.0662 36.4501C69.91 36.2461 69.7872 36.0378 69.6979 35.825C69.6086 35.6123 69.5318 35.391 69.4674 35.1614C69.2494 34.4893 69.1172 33.8228 69.0708 33.1621C69.0245 32.5014 69.026 31.8173 69.0756 31.1099C69.1057 30.6159 69.1482 30.1136 69.2033 29.6028C69.2584 29.092 69.28 28.5856 69.2682 28.0836C69.2762 28.0417 69.2739 27.9978 69.261 27.9518C69.2731 27.889 69.2872 27.8157 69.3034 27.7319ZM80.525 33.5787C80.4048 33.7511 80.2742 33.9215 80.1331 34.0898C80.0129 34.2622 79.8823 34.4325 79.7412 34.6008C79.588 34.832 79.4034 35.0571 79.1873 35.2761C78.9713 35.4952 78.7403 35.6788 78.4945 35.8269C77.8779 36.2077 77.2574 36.327 76.633 36.1849C76.0086 36.0427 75.5081 35.6529 75.1313 35.0153C74.9156 34.6695 74.7602 34.292 74.6654 33.8826C74.5955 33.4563 74.5466 33.0341 74.5186 32.6159C74.3883 30.7005 74.828 28.9277 75.8377 27.2974C76.1562 26.7723 76.5211 26.2886 76.9322 25.8465C77.3644 25.4084 77.8766 25.0618 78.469 24.8067C79.0613 24.5516 79.6379 24.4346 80.1987 24.4559C80.7635 24.4562 81.317 24.6281 81.8591 24.9716C82.0186 25.0459 82.1591 25.1056 82.2808 25.1508C82.4234 25.2 82.5761 25.1968 82.7389 25.1413C83.1901 25.0545 83.5905 25.1752 83.94 25.5034C84.3145 25.8146 84.5013 26.1982 84.5002 26.6543C84.5209 27.2231 84.4996 27.7839 84.4365 28.3366C84.3733 28.8893 84.2997 29.44 84.2156 29.9887C84.0522 31.1739 83.8658 32.3655 83.6565 33.5635C83.4512 34.7406 83.2145 35.9116 82.9464 37.0766C82.8163 37.6381 82.6634 38.2061 82.4874 38.7805C82.3364 39.338 82.1121 39.8814 81.8145 40.4106C81.5008 41.0236 81.1238 41.5701 80.6836 42.0501C80.2603 42.5551 79.7653 42.981 79.1987 43.328C78.757 43.5904 78.2852 43.7276 77.7832 43.7394C77.1515 43.7479 76.5912 43.4986 76.1024 42.9916C75.6345 42.4885 75.4068 41.9232 75.4192 41.2955C75.45 40.9104 75.6178 40.6603 75.9224 40.5452C76.0393 40.5026 76.1626 40.4829 76.2923 40.4862C76.4429 40.4935 76.5835 40.5532 76.714 40.6653C76.8276 40.7524 76.9202 40.8354 76.9918 40.9144C77.0595 41.0144 77.1251 41.1248 77.1887 41.2457C77.3489 41.4287 77.5435 41.4336 77.7724 41.2605C78.2795 40.7717 78.667 40.2272 78.9348 39.6271C79.3551 38.687 79.6852 37.7078 79.925 36.6894C80.1689 35.6501 80.3689 34.6132 80.525 33.5787ZM77.6596 33.0587C77.9014 32.9315 78.0948 32.7733 78.24 32.584C78.4101 32.3779 78.5843 32.1507 78.7625 31.9027C79.135 31.3227 79.4698 30.7137 79.7666 30.0758C80.0885 29.4209 80.3704 28.7474 80.6125 28.0554C80.7683 27.5857 80.6016 27.3798 80.1125 27.4375C79.845 27.4728 79.5988 27.5666 79.3739 27.7187C79.1699 27.8749 78.9974 28.0372 78.8563 28.2055C78.7152 28.3738 78.5701 28.5631 78.4209 28.7733C78.1104 29.2566 77.8902 29.779 77.7602 30.3406C77.6301 30.9021 77.542 31.4717 77.4958 32.0494C77.5053 32.2251 77.5044 32.3987 77.4931 32.5703C77.5067 32.7251 77.5622 32.8878 77.6596 33.0587ZM96.9616 33.1313C97.0608 32.9549 97.16 32.7785 97.2592 32.6021C97.3584 32.4257 97.4661 32.2618 97.5822 32.1104C98.1701 31.2026 98.8993 30.4633 99.7698 29.8925C100.037 29.7484 100.287 29.6338 100.521 29.5485C100.775 29.4672 101.039 29.4529 101.311 29.5054C101.772 29.5943 102.116 29.7802 102.344 30.0631C102.572 30.346 102.746 30.6838 102.866 31.0762C102.934 31.2849 102.969 31.4981 102.97 31.7156C102.972 31.9332 102.984 32.1528 103.006 32.3744C103.144 32.3358 103.242 32.2786 103.3 32.2029C103.362 32.1062 103.412 32.018 103.449 31.9383C103.739 31.5597 104.036 31.2042 104.339 30.8715C104.663 30.543 105.023 30.2539 105.419 30.0043C106.127 29.5978 106.85 29.4548 107.587 29.5752C108.325 29.6957 108.889 30.2064 109.28 31.1075C109.496 31.562 109.625 32.0214 109.666 32.4855C109.707 32.9496 109.727 33.4097 109.725 33.8658C109.698 34.7948 109.621 35.7032 109.493 36.5911C109.365 37.479 109.162 38.3632 108.884 39.2437C108.719 39.6465 108.586 40.0553 108.484 40.4702C108.387 40.8642 108.276 41.2666 108.154 41.6775C108.092 41.8829 108.067 42.1278 108.077 42.4123C108.075 42.6508 107.99 42.8626 107.824 43.0479C107.679 43.2371 107.485 43.341 107.243 43.3594C107.017 43.4028 106.806 43.3729 106.608 43.2696C106.436 43.1495 106.297 42.9705 106.19 42.7328C106.121 42.4153 106.081 42.1143 106.071 41.8299C106.113 41.1643 106.144 40.4968 106.164 39.8272C106.185 39.1576 106.203 38.4986 106.22 37.8499C106.258 37.4229 106.308 36.9979 106.368 36.5749C106.448 36.156 106.529 35.737 106.61 35.3181C106.658 34.9579 106.683 34.6042 106.684 34.2569C106.686 33.9097 106.7 33.5539 106.727 33.1898C106.727 33.081 106.715 32.9702 106.694 32.8574C106.693 32.7486 106.648 32.6422 106.56 32.5382C106.309 32.5985 106.082 32.7068 105.878 32.863C105.678 32.9982 105.472 33.1649 105.26 33.363C104.907 33.7294 104.558 34.1293 104.214 34.5626C103.894 34.979 103.594 35.4099 103.313 35.8554C103.077 36.2879 102.84 36.7309 102.6 37.1845C102.386 37.6211 102.19 38.0722 102.013 38.5378C101.96 38.7013 101.917 38.8669 101.885 39.0345C101.857 39.1811 101.807 39.3237 101.737 39.4622C101.554 40.1873 101.131 40.5187 100.47 40.4563C99.8423 40.4438 99.4924 40.0613 99.4203 39.3087C99.3842 38.9324 99.3796 38.5622 99.4064 38.198C99.4541 37.8378 99.4684 37.4821 99.4492 37.1308C99.5035 36.5112 99.5663 35.9041 99.6375 35.3095C99.7297 34.7189 99.8219 34.1284 99.9141 33.5378C99.9383 33.4121 99.921 33.3327 99.8622 33.2997C99.7244 33.3383 99.6224 33.4164 99.5563 33.534C99.4942 33.6306 99.4321 33.7273 99.37 33.824C98.0951 35.8159 97.206 37.9474 96.7028 40.2186C96.6745 40.3652 96.6317 40.5308 96.5744 40.7152C96.5171 40.8997 96.4199 41.0657 96.2829 41.213C95.9338 41.5585 95.5373 41.6993 95.0933 41.6354C94.6454 41.5925 94.2902 41.3502 94.0277 40.9085C93.8708 40.5957 93.7824 40.2093 93.7625 39.7492C93.7113 39.0007 93.6831 38.2457 93.6779 37.4842C93.6726 36.7228 93.6863 35.9759 93.7189 35.2435C93.742 34.3354 93.784 33.4419 93.8449 32.5628C93.9098 31.6628 94.0271 30.7729 94.1968 29.8932C94.2324 29.5959 94.291 29.2921 94.3725 28.9819C94.4541 28.6718 94.5755 28.3802 94.7368 28.1071C94.9069 27.9009 95.1234 27.7363 95.3861 27.6131C95.6488 27.49 95.8934 27.4611 96.1198 27.5265C96.3921 27.579 96.6064 27.7072 96.7626 27.9112C96.9397 28.1192 97.0439 28.3674 97.0752 28.6559C97.1315 28.9274 97.1333 29.1994 97.0808 29.4717C97.0533 29.7271 97.0322 30.0055 97.0175 30.3068C96.9728 31.1021 96.9095 31.9372 96.8276 32.8122C96.8074 32.9169 96.8521 33.0233 96.9616 33.1313ZM115.389 29.1571C114.729 29.3122 114.221 29.1274 113.866 28.6027C113.752 28.4069 113.7 28.1687 113.711 27.8883C113.721 27.6079 113.803 27.3522 113.957 27.121C114.135 26.8729 114.387 26.6934 114.712 26.5823C115.042 26.4504 115.353 26.4127 115.647 26.4692C116.254 26.5864 116.608 26.948 116.708 27.5539C116.765 27.8255 116.725 28.0894 116.588 28.3455C116.477 28.5848 116.288 28.7764 116.021 28.9205C115.921 28.9882 115.813 29.0433 115.696 29.0859C115.604 29.1117 115.502 29.1354 115.389 29.1571ZM114.131 42.4392C114.13 42.8952 113.933 43.1832 113.541 43.303C113.127 43.4188 112.758 43.3042 112.434 42.9592C112.294 42.7802 112.201 42.5884 112.154 42.3837C112.106 42.179 112.061 41.9639 112.017 41.7383C112.011 41.4329 112.007 41.117 112.005 40.7907C112.023 40.4684 112.04 40.1566 112.055 39.8552C112.131 38.7836 112.228 37.7161 112.346 36.6525C112.49 35.5721 112.704 34.5163 112.99 33.4851C113.055 33.2587 113.131 33.0343 113.217 32.812C113.308 32.5687 113.447 32.3565 113.634 32.1753C113.779 31.986 113.947 31.8447 114.139 31.7513C114.352 31.662 114.584 31.6416 114.835 31.6901C115.313 31.8039 115.61 32.122 115.727 32.6441C115.842 33.0576 115.858 33.4842 115.773 33.9241L114.937 38.2602C114.867 38.5075 114.788 38.8072 114.698 39.1593C114.609 39.5113 114.523 39.8968 114.443 40.3158C114.378 40.651 114.311 40.9966 114.243 41.3527C114.195 41.7128 114.158 42.075 114.131 42.4392ZM121.992 44.053C121.853 43.9829 121.715 43.9127 121.576 43.8425C121.463 43.7554 121.336 43.6768 121.198 43.6066C118.559 41.9679 117.413 39.6286 117.761 36.5887C117.863 35.609 118.181 34.747 118.716 34.0028C119.25 33.2585 119.97 32.6804 120.875 32.2683C121.447 32.0092 122.015 31.8798 122.58 31.8801C123.144 31.8804 123.69 32.0942 124.216 32.5215C124.388 32.6417 124.544 32.7912 124.683 32.9702C124.843 33.1532 124.958 33.349 125.026 33.5578C125.813 35.4477 125.66 37.2541 124.568 38.977C124.46 39.1953 124.279 39.3451 124.025 39.4263C123.791 39.5116 123.573 39.5131 123.372 39.4308C122.898 39.296 122.689 38.9188 122.743 38.2992C122.8 38.0059 122.854 37.7231 122.907 37.4508C122.984 37.1616 123.028 36.8768 123.039 36.5964C123.062 36.3619 123.052 36.1319 123.009 35.9062C122.991 35.6637 122.926 35.434 122.816 35.2172C122.634 34.9214 122.399 34.8435 122.111 34.9836C121.82 35.1446 121.572 35.3576 121.369 35.6225C121.17 35.8666 120.996 36.1481 120.848 36.4671C120.606 37.1591 120.615 37.8996 120.875 38.6886C121.157 39.4816 121.561 40.0917 122.087 40.5191C122.406 40.7763 122.732 41.0021 123.064 41.1964C123.4 41.3698 123.759 41.5368 124.141 41.6974C124.321 41.7756 124.489 41.8623 124.645 41.9575C124.821 42.0567 124.999 42.1454 125.18 42.2237C125.625 42.5051 125.91 42.886 126.035 43.3663C126.164 43.8256 126.117 44.2945 125.894 44.773C125.721 45.2177 125.41 45.5922 124.96 45.8966C124.399 46.3314 123.79 46.6703 123.135 46.9132C122.48 47.1562 121.816 47.3867 121.144 47.6047C120.73 47.7205 120.321 47.8154 119.916 47.8893C119.527 47.9882 119.118 48.0287 118.686 48.0107C118.494 47.9953 118.305 47.9589 118.121 47.9016C117.957 47.8484 117.785 47.7826 117.605 47.7043C117.114 47.4358 116.858 47.0714 116.838 46.6113C116.814 46.1722 116.91 45.7887 117.125 45.4609C117.286 45.1878 117.492 44.9667 117.742 44.7977C117.938 44.6834 118.123 44.6214 118.299 44.6118C118.496 44.6063 118.668 44.6721 118.815 44.8091C118.946 44.9212 119.065 44.9769 119.174 44.9761C119.283 44.9754 119.394 44.9641 119.506 44.9424C119.832 44.8314 120.155 44.7309 120.477 44.6408C120.82 44.5548 121.154 44.4563 121.479 44.3452C121.571 44.3195 121.665 44.2833 121.761 44.2366C121.857 44.1899 121.934 44.1287 121.992 44.053ZM132.363 46.0533C132.225 45.9831 132.086 45.9129 131.947 45.8428C131.834 45.7557 131.708 45.6771 131.569 45.6069C128.931 43.9682 127.785 41.6289 128.132 38.589C128.234 37.6092 128.552 36.7473 129.087 36.003C129.622 35.2588 130.342 34.6807 131.247 34.2686C131.818 34.0095 132.386 33.8801 132.951 33.8804C133.516 33.8807 134.061 34.0945 134.587 34.5218C134.759 34.642 134.915 34.7915 135.055 34.9705C135.215 35.1534 135.329 35.3493 135.398 35.558C136.185 37.4479 136.032 39.2543 134.939 40.9772C134.832 41.1955 134.651 41.3453 134.396 41.4266C134.162 41.5119 133.945 41.5133 133.743 41.4311C133.27 41.2962 133.06 40.919 133.114 40.2994C133.171 40.0062 133.225 39.7234 133.278 39.4511C133.355 39.1619 133.4 38.877 133.41 38.5966C133.434 38.3622 133.424 38.1321 133.38 37.9065C133.362 37.664 133.298 37.4343 133.187 37.2175C133.005 36.9217 132.771 36.8438 132.483 36.9838C132.191 37.1448 131.944 37.3578 131.74 37.6228C131.541 37.8668 131.367 38.1484 131.219 38.4674C130.977 39.1594 130.986 39.8999 131.247 40.6888C131.528 41.4818 131.932 42.092 132.458 42.5193C132.778 42.7765 133.104 43.0023 133.435 43.1967C133.771 43.3701 134.13 43.5371 134.512 43.6976C134.693 43.7759 134.861 43.8626 135.016 43.9578C135.192 44.057 135.371 44.1457 135.551 44.2239C135.997 44.5054 136.282 44.8863 136.406 45.3665C136.535 45.8259 136.488 46.2948 136.265 46.7733C136.093 47.218 135.781 47.5925 135.332 47.8968C134.77 48.3316 134.161 48.6705 133.506 48.9135C132.851 49.1565 132.187 49.387 131.515 49.605C131.102 49.7208 130.692 49.8156 130.287 49.8896C129.899 49.9885 129.489 50.0289 129.058 50.011C128.865 49.9956 128.677 49.9592 128.492 49.9019C128.329 49.8486 128.157 49.7829 127.976 49.7046C127.485 49.436 127.229 49.0717 127.209 48.6116C127.185 48.1725 127.281 47.789 127.496 47.4611C127.658 47.1881 127.863 46.967 128.113 46.7979C128.309 46.6836 128.495 46.6217 128.67 46.6121C128.867 46.6066 129.039 46.6723 129.186 46.8094C129.317 46.9215 129.437 46.9771 129.545 46.9764C129.654 46.9756 129.765 46.9644 129.878 46.9427C130.203 46.8317 130.527 46.7312 130.848 46.6411C131.191 46.5551 131.525 46.4565 131.851 46.3455C131.942 46.3198 132.036 46.2836 132.132 46.2369C132.228 46.1902 132.305 46.129 132.363 46.0533ZM141.686 34.2288C141.026 34.3839 140.518 34.1991 140.163 33.6744C140.049 33.4785 139.997 33.2404 140.007 32.96C140.018 32.6796 140.1 32.4238 140.253 32.1927C140.431 31.9446 140.683 31.765 141.009 31.654C141.339 31.5221 141.65 31.4844 141.943 31.5409C142.551 31.6581 142.905 32.0196 143.005 32.6256C143.061 32.8972 143.021 33.1611 142.885 33.4172C142.774 33.6565 142.585 33.8481 142.318 33.9922C142.218 34.0598 142.109 34.115 141.993 34.1576C141.901 34.1834 141.798 34.2071 141.686 34.2288ZM140.428 47.5109C140.426 47.9669 140.23 48.2549 139.837 48.3747C139.424 48.4905 139.055 48.3759 138.73 48.0309C138.591 47.8519 138.498 47.6601 138.45 47.4554C138.403 47.2507 138.357 47.0356 138.314 46.8099C138.308 46.5046 138.303 46.1887 138.301 45.8624C138.32 45.5401 138.337 45.2283 138.351 44.9269C138.428 43.8553 138.525 42.7877 138.643 41.7242C138.786 40.6438 139.001 39.588 139.287 38.5568C139.352 38.3304 139.428 38.106 139.514 37.8837C139.605 37.6404 139.743 37.4282 139.93 37.247C140.075 37.0577 140.244 36.9164 140.436 36.823C140.648 36.7337 140.881 36.7133 141.132 36.7617C141.61 36.8756 141.907 37.1936 142.023 37.7158C142.139 38.1292 142.155 38.5559 142.07 38.9958L141.233 43.3319C141.164 43.5792 141.085 43.8789 140.995 44.231C140.905 44.583 140.82 44.9685 140.739 45.3875C140.675 45.7226 140.608 46.0683 140.539 46.4244C140.492 46.7845 140.454 47.1467 140.428 47.5109ZM150.188 43.3316C149.746 43.594 149.407 43.8871 149.171 44.2109C148.582 44.9011 148.068 45.6494 147.63 46.4557C147.192 47.262 146.813 48.1014 146.492 48.9739C146.431 49.1793 146.349 49.3807 146.246 49.5781C146.142 49.7754 146.022 49.9478 145.885 50.0952C145.47 50.5582 145.007 50.7079 144.495 50.544C144.223 50.4915 144.006 50.3737 143.846 50.1907C143.686 50.0078 143.555 49.7869 143.452 49.5282C143.405 49.3235 143.381 49.1124 143.379 48.8949C143.399 48.6813 143.408 48.4658 143.406 48.2483C143.463 47.3902 143.509 46.5301 143.545 45.6679C143.606 44.7889 143.696 43.9264 143.816 43.0804C143.883 42.5067 143.992 41.9412 144.143 41.3837C144.294 40.8262 144.466 40.2727 144.659 39.7233C144.679 39.6186 144.718 39.5283 144.776 39.4526C144.839 39.356 144.888 39.2678 144.925 39.188C145.215 38.7007 145.605 38.5369 146.095 38.6967C146.301 38.7581 146.471 38.8887 146.607 39.0886C146.742 39.2885 146.798 39.5057 146.774 39.7401C146.74 40.255 146.697 40.7574 146.646 41.2472C146.616 41.7411 146.597 42.2371 146.588 42.735C146.592 42.8228 146.583 42.9296 146.558 43.0553C146.538 43.16 146.549 43.2708 146.592 43.3877C146.705 43.366 146.778 43.3257 146.811 43.2669C146.848 43.1872 146.883 43.1179 146.916 43.0591C147.207 42.6806 147.495 42.3125 147.781 41.9549C148.071 41.5763 148.385 41.2457 148.722 40.9631C148.88 40.8198 149.036 40.6869 149.19 40.5645C149.348 40.4212 149.523 40.3028 149.715 40.2095C150.344 39.8746 150.963 39.8201 151.571 40.0461C152.183 40.2511 152.63 40.6957 152.911 41.3799C153.035 41.7514 153.113 42.1358 153.145 42.5331C153.181 42.9094 153.183 43.2901 153.152 43.6752C153.136 44.3238 153.097 44.9789 153.034 45.6404C152.997 46.285 152.959 46.9295 152.922 47.5741C152.891 47.9592 152.871 48.3464 152.861 48.7356C152.876 49.1078 152.868 49.4865 152.837 49.8717C152.851 50.0264 152.879 50.1622 152.922 50.279C152.964 50.3959 153.049 50.5208 153.175 50.6538C153.571 50.9691 153.636 51.3619 153.372 51.8323C153.082 52.3197 152.695 52.5817 152.21 52.6185C151.725 52.6553 151.305 52.4658 150.951 52.0498C150.794 51.8459 150.672 51.6375 150.582 51.4247C150.493 51.212 150.416 50.9908 150.352 50.7611C150.134 50.089 150.002 49.4225 149.955 48.7618C149.909 48.1011 149.91 47.417 149.96 46.7096C149.99 46.2157 150.033 45.7133 150.088 45.2025C150.143 44.6917 150.164 44.1853 150.153 43.6833C150.161 43.6414 150.158 43.5975 150.145 43.5515C150.158 43.4887 150.172 43.4154 150.188 43.3316ZM161.409 49.1785C161.289 49.3508 161.159 49.5212 161.018 49.6895C160.897 49.8619 160.767 50.0322 160.626 50.2005C160.472 50.4317 160.288 50.6568 160.072 50.8759C159.856 51.0949 159.625 51.2785 159.379 51.4266C158.762 51.8074 158.142 51.9267 157.517 51.7846C156.893 51.6424 156.392 51.2526 156.016 50.615C155.8 50.2693 155.645 49.8917 155.55 49.4823C155.48 49.056 155.431 48.6338 155.403 48.2156C155.273 46.3003 155.712 44.5274 156.722 42.8971C157.041 42.372 157.405 41.8883 157.817 41.4462C158.249 41.0081 158.761 40.6615 159.353 40.4064C159.946 40.1513 160.522 40.0343 161.083 40.0556C161.648 40.0559 162.201 40.2278 162.743 40.5714C162.903 40.6456 163.044 40.7053 163.165 40.7505C163.308 40.7997 163.46 40.7966 163.623 40.741C164.075 40.6543 164.475 40.7749 164.824 41.1031C165.199 41.4143 165.386 41.7979 165.385 42.254C165.405 42.8228 165.384 43.3836 165.321 43.9363C165.258 44.4891 165.184 45.0397 165.1 45.5884C164.937 46.7736 164.75 47.9652 164.541 49.1632C164.336 50.3403 164.099 51.5113 163.831 52.6763C163.701 53.2378 163.548 53.8058 163.372 54.3802C163.221 54.9377 162.997 55.4811 162.699 56.0103C162.385 56.6233 162.008 57.1698 161.568 57.6498C161.145 58.1548 160.65 58.5807 160.083 58.9277C159.641 59.1902 159.17 59.3273 158.668 59.3391C158.036 59.3476 157.476 59.0983 156.987 58.5913C156.519 58.0882 156.291 57.5229 156.304 56.8952C156.334 56.5101 156.502 56.26 156.807 56.1449C156.924 56.1023 157.047 56.0826 157.177 56.0859C157.327 56.0932 157.468 56.1529 157.598 56.265C157.712 56.3521 157.805 56.4351 157.876 56.5141C157.944 56.6141 158.01 56.7245 158.073 56.8454C158.233 57.0284 158.428 57.0333 158.657 56.8602C159.164 56.3714 159.551 55.8269 159.819 55.2268C160.24 54.2867 160.57 53.3075 160.809 52.2891C161.053 51.2499 161.253 50.213 161.409 49.1785ZM158.544 48.6584C158.786 48.5312 158.979 48.373 159.124 48.1837C159.295 47.9776 159.469 47.7504 159.647 47.5024C160.019 46.9224 160.354 46.3135 160.651 45.6755C160.973 45.0206 161.255 44.3471 161.497 43.6551C161.653 43.1854 161.486 42.9795 160.997 43.0372C160.729 43.0725 160.483 43.1663 160.258 43.3184C160.054 43.4746 159.882 43.6369 159.741 43.8052C159.6 43.9736 159.455 44.1628 159.305 44.3731C158.995 44.8563 158.775 45.3787 158.645 45.9403C158.515 46.5018 158.426 47.0714 158.38 47.6491C158.39 47.8248 158.389 47.9984 158.377 48.1701C158.391 48.3248 158.447 48.4876 158.544 48.6584ZM8.96157 54.7944C8.51988 55.0568 8.1809 55.3499 7.94465 55.6737C7.35527 56.3639 6.84161 57.1122 6.40365 57.9185C5.9657 58.7248 5.58655 59.5642 5.2662 60.4367C5.20485 60.6421 5.12255 60.8435 5.01931 61.0408C4.91607 61.2382 4.79592 61.4106 4.65887 61.5579C4.24366 62.021 3.78027 62.1706 3.26871 62.0068C2.99639 61.9543 2.78011 61.8365 2.61987 61.6535C2.45962 61.4705 2.3284 61.2497 2.22621 60.991C2.17878 60.7863 2.15432 60.5752 2.15282 60.3576C2.17228 60.1441 2.18126 59.9286 2.17976 59.711C2.23662 58.853 2.28301 57.9928 2.31893 57.1307C2.37983 56.2517 2.47014 55.3892 2.58984 54.5432C2.65703 53.9695 2.76611 53.404 2.91708 52.8465C3.06805 52.289 3.23998 51.7355 3.43284 51.1861C3.45304 51.0813 3.49217 50.9911 3.55023 50.9154C3.61232 50.8188 3.66192 50.7306 3.69903 50.6508C3.98855 50.1635 4.37862 49.9997 4.86924 50.1595C5.07467 50.2209 5.24502 50.3515 5.38028 50.5514C5.51554 50.7513 5.57142 50.9685 5.54793 51.2029C5.51381 51.7178 5.47124 52.2202 5.42021 52.71C5.39013 53.2039 5.37053 53.6999 5.3614 54.1978C5.36619 54.2856 5.35646 54.3924 5.33222 54.5181C5.31202 54.6228 5.32324 54.7336 5.36588 54.8505C5.4787 54.8288 5.55164 54.7885 5.58471 54.7297C5.62182 54.65 5.6569 54.5807 5.68997 54.5219C5.98024 54.1433 6.2685 53.7753 6.55473 53.4177C6.845 53.0391 7.15862 52.7085 7.49557 52.4259C7.65358 52.2826 7.80956 52.1497 7.96352 52.0273C8.12153 51.884 8.29644 51.7656 8.48826 51.6722C9.11773 51.3374 9.73657 51.2829 10.3448 51.5089C10.957 51.7139 11.4036 52.1585 11.6844 52.8427C11.8083 53.2142 11.8863 53.5986 11.9183 53.9959C11.9543 54.3722 11.957 54.7529 11.9261 55.138C11.9097 55.7866 11.8702 56.4417 11.8078 57.1032C11.7704 57.7477 11.733 58.3923 11.6956 59.0369C11.6648 59.422 11.6444 59.8092 11.6346 60.1984C11.6497 60.5706 11.6418 60.9493 11.611 61.3345C11.6246 61.4892 11.6527 61.6249 11.6954 61.7418C11.738 61.8587 11.8226 61.9836 11.949 62.1166C12.3444 62.4319 12.4099 62.8247 12.1454 63.2951C11.8558 63.7824 11.4685 64.0445 10.9834 64.0813C10.4984 64.1181 10.0787 63.9285 9.72437 63.5126C9.56816 63.3087 9.4454 63.1003 9.35607 62.8875C9.26675 62.6748 9.18992 62.4535 9.12558 62.2239C8.90758 61.5518 8.7754 60.8853 8.72902 60.2246C8.68264 59.5639 8.68421 58.8798 8.73374 58.1724C8.76382 57.6784 8.80639 57.1761 8.86146 56.6653C8.91652 56.1545 8.93815 55.6481 8.92633 55.1461C8.93441 55.1042 8.93202 55.0603 8.91915 55.0143C8.93127 54.9515 8.94541 54.8782 8.96157 54.7944ZM24.1722 59.1619C23.6716 61.1945 22.5478 62.9658 20.8009 64.4756C20.4849 64.7623 20.1351 64.999 19.7515 65.1857C19.3719 65.3515 18.9605 65.4569 18.5173 65.5017C17.664 65.5327 16.8966 65.2869 16.2152 64.7644C15.9753 64.5443 15.7518 64.2949 15.5449 64.0159C15.342 63.7161 15.183 63.4139 15.0679 63.1092C14.689 62.1453 14.4921 61.1949 14.4773 60.2578C14.4665 59.2997 14.5854 58.345 14.8341 57.3935C15.0836 56.5508 15.4296 55.7703 15.8724 55.0518C16.3192 54.3123 16.888 53.6725 17.5788 53.1322C18.1616 52.7014 18.8002 52.4878 19.4948 52.4914C19.8252 52.4682 20.1079 52.5228 20.3432 52.655C20.5824 52.7664 20.7991 52.9385 20.9931 53.1715C21.0438 53.2464 21.1091 53.3025 21.1888 53.3396C21.2726 53.3557 21.3669 53.3739 21.4716 53.3941C22.0493 53.4404 22.5359 53.6211 22.9313 53.9364C23.3477 54.2557 23.6791 54.6781 23.9254 55.2035C24.2014 55.7999 24.3437 56.414 24.3522 57.0457C24.3857 57.6605 24.3257 58.3659 24.1722 59.1619ZM20.1649 55.9448C19.9345 55.9004 19.6876 55.8853 19.4241 55.8997C19.2146 55.8593 19.0474 55.8814 18.9225 55.9659C18.7975 56.0504 18.675 56.1789 18.5548 56.3513C18.1121 57.0698 17.8055 57.8145 17.6351 58.5855C17.4856 59.3606 17.4493 60.1683 17.5262 61.0087C17.5872 61.3681 17.7196 61.7522 17.9232 62.1608C18.0416 62.3357 18.1302 62.4397 18.189 62.4727C18.2727 62.4889 18.4021 62.4378 18.577 62.3195C18.8019 62.1673 19.0163 62.0131 19.2202 61.8569C19.4492 61.6838 19.6487 61.4941 19.8188 61.288C19.972 61.0568 20.1273 60.8152 20.2845 60.563C20.4627 60.315 20.6095 60.0608 20.7249 59.8006C20.9064 59.4228 21.0669 59.041 21.2065 58.6551C21.3502 58.2483 21.41 57.8253 21.3861 57.3862C21.3662 56.9261 21.2677 56.592 21.0905 56.3841C20.9133 56.1761 20.6048 56.0297 20.1649 55.9448ZM29.9052 66.036C30.4556 65.7728 30.9054 65.4685 31.2545 65.123C31.7325 64.672 32.2021 64.2086 32.6633 63.7326C33.1454 63.2607 33.5791 62.7577 33.9646 62.2237C34.0017 62.144 34.0347 62.0852 34.0638 62.0473C34.0968 61.9885 34.1194 61.9277 34.1316 61.8649C34.2373 61.429 34.5412 61.2052 35.0432 61.1934C35.5331 61.2444 35.8548 61.4911 36.0085 61.9336C36.1059 62.1044 36.1489 62.2757 36.1376 62.4473C36.1512 62.602 36.1398 62.7736 36.1034 62.9621C35.8055 64.0562 35.3062 65.0679 34.6055 65.9974C33.7388 67.1121 32.7029 67.9769 31.498 68.5919C31.2312 68.7359 30.96 68.8466 30.6844 68.9238C30.4257 69.026 30.1437 69.0802 29.8383 69.0865C29.2903 69.1112 28.7768 68.9578 28.2975 68.6264C27.8142 68.3159 27.4599 67.9 27.2346 67.3785C27.1067 67.028 27.0017 66.671 26.9197 66.3075C26.8418 65.9231 26.7848 65.5428 26.7487 65.1665C26.6259 64.3389 26.5804 63.5045 26.6123 62.6634C26.6442 61.8222 26.6865 60.983 26.7393 60.1459C26.798 58.9405 26.9026 57.7223 27.0531 56.4912C27.1827 55.256 27.3646 54.031 27.599 52.816C27.6434 52.5856 27.6487 52.4454 27.6149 52.3954C27.5811 52.3455 27.4345 52.3172 27.175 52.3106C26.8906 52.3209 26.6041 52.3417 26.3156 52.373C26.0103 52.3793 25.7069 52.3751 25.4056 52.3604C25.0333 52.3755 24.6663 52.2504 24.3047 51.9851C23.9721 51.682 23.8232 51.3274 23.8581 50.9213C23.897 50.4943 24.0914 50.1624 24.4412 49.9257C24.7829 49.7309 25.1315 49.6135 25.4868 49.5734C25.8841 49.5413 26.2813 49.5093 26.6786 49.4773C27.0549 49.4413 27.4396 49.4177 27.8328 49.4066C28.0923 49.4132 28.2575 49.4016 28.3284 49.3718C28.3824 49.3171 28.4462 49.1556 28.5196 48.8873C28.6779 48.1791 28.8761 47.4895 29.1142 46.8184C29.3353 46.1224 29.6088 45.4364 29.9347 44.7606C30.067 44.5254 30.1888 44.2882 30.3001 44.0489C30.4364 43.7928 30.6001 43.5636 30.7912 43.3615C30.9492 43.2181 31.1031 43.0957 31.2531 42.9943C31.407 42.8719 31.5759 42.785 31.7596 42.7335C32.2101 42.5379 32.6541 42.6018 33.0914 42.9252C33.2726 43.1122 33.364 43.3145 33.3655 43.5321C33.3879 43.7536 33.356 43.9756 33.2696 44.198C33.1388 44.6507 32.9662 45.0954 32.7516 45.532C32.5411 45.9476 32.3684 46.3923 32.2336 46.866C32.1149 47.256 31.9858 47.6439 31.8462 48.0297C31.7276 48.4197 31.6069 48.82 31.4842 49.2309C31.4478 49.4194 31.4361 49.5367 31.449 49.5826C31.4868 49.6116 31.6105 49.6463 31.8199 49.6867C32.2389 49.7675 32.6389 49.8338 33.02 49.8856C33.4011 49.9374 33.7906 50.0016 34.1886 50.0784C34.9008 50.2158 35.4453 50.6032 35.8221 51.2408C35.9276 51.3697 35.9976 51.5136 36.0321 51.6724C36.0917 51.8142 36.1178 51.9605 36.1105 52.1111C36.0837 52.4753 35.9079 52.7673 35.583 52.9871C35.2622 53.1859 34.9673 53.1942 34.6983 53.012C34.6564 53.0039 34.6041 52.9938 34.5412 52.9817C34.5034 52.9527 34.451 52.9426 34.3841 52.9514C33.8909 53.0301 33.4055 53.0125 32.9277 52.8987C32.4709 52.7888 31.9956 52.7189 31.5017 52.6888L31.0618 52.604C30.8104 52.5555 30.6605 52.6569 30.612 52.9083C30.5771 53.3144 30.5213 53.7164 30.4446 54.1144C30.3719 54.4915 30.3076 54.881 30.2518 55.283C30.0957 56.3175 29.9711 57.3581 29.8778 58.4047C29.7846 59.4513 29.7248 60.4935 29.6985 61.5313C29.6603 62.0671 29.6327 62.605 29.6154 63.1448C29.6232 63.6677 29.6499 64.2052 29.6956 64.7571C29.7011 64.9537 29.7276 65.1544 29.775 65.3591C29.8224 65.5638 29.8658 65.7894 29.9052 66.036ZM42.4333 59.3923C42.5615 59.178 42.6688 58.9597 42.7551 58.7374C42.8664 58.4981 42.9778 58.2589 43.0891 58.0196C43.2294 57.7425 43.3867 57.4904 43.5609 57.2633C43.735 57.0361 43.947 56.838 44.1969 56.669C44.6217 56.3815 45.0726 56.2404 45.5496 56.2455C46.0266 56.2506 46.4588 56.4317 46.8461 56.7888C47.3221 57.25 47.6231 57.8295 47.7493 58.5273C47.8875 59.1623 47.9484 59.8041 47.9319 60.4528C47.9364 61.1054 47.92 61.754 47.8826 62.3986C47.7636 63.3534 47.5838 64.2855 47.3432 65.1951C47.1026 66.1046 46.8411 67.0102 46.5586 67.9116C46.5053 68.0752 46.4311 68.2347 46.3359 68.3901C46.2657 68.5287 46.1537 68.6592 45.9997 68.7816C45.8627 68.9289 45.6813 69.0243 45.4557 69.0677C45.251 69.1151 45.0625 69.0788 44.8901 68.9586C44.5502 68.8062 44.4057 68.485 44.4567 67.9951C44.5224 67.2039 44.5776 66.4107 44.6224 65.6154C44.6881 64.8242 44.7433 64.031 44.788 63.2357C44.7931 62.7587 44.8276 62.2983 44.8915 61.8543C44.9554 61.4104 44.9754 60.9689 44.9514 60.5297C44.8676 60.5136 44.8092 60.5349 44.7761 60.5937C44.7471 60.6315 44.7181 60.6694 44.6891 60.7072C44.0222 61.6867 43.4351 62.7032 42.9277 63.7569C42.4453 64.7936 42.0386 65.8884 41.7076 67.0412C41.622 67.3724 41.5155 67.6994 41.388 68.0225C41.2815 68.3496 41.1749 68.6766 41.0684 69.0037C40.8344 69.6538 40.3866 69.9477 39.7252 69.8853C39.4738 69.8368 39.2531 69.6856 39.0631 69.4317C38.869 69.1987 38.7793 68.9316 38.794 68.6302C38.7958 68.283 38.806 67.9482 38.8247 67.6259C38.8644 67.3076 38.9061 66.9789 38.9498 66.6397C39.0074 65.8904 39.065 65.1411 39.1226 64.3918C39.1842 63.6215 39.2543 62.8637 39.3329 62.1185C39.4147 61.2435 39.4946 60.3789 39.5724 59.5249C39.6542 58.6499 39.755 57.7894 39.8747 56.9434C39.9783 56.1812 40.0903 55.4316 40.2107 54.6944C40.3312 53.9572 40.4641 53.2115 40.6096 52.4574C40.7631 51.6614 40.9186 50.8549 41.0762 50.038C41.2587 49.2041 41.5105 48.4054 41.8316 47.6417C41.922 47.3984 42.0208 47.1676 42.1281 46.9493C42.2604 46.7141 42.42 46.5059 42.6071 46.3247C42.8231 46.1057 43.069 45.9575 43.3446 45.8803C43.6411 45.8072 43.905 45.8472 44.1362 46.0004C44.6775 46.2352 44.8815 46.6982 44.7482 47.3895C44.5517 48.6334 44.2904 49.8757 43.9642 51.1164C43.659 52.3611 43.3976 53.6035 43.1802 54.8434C43.0557 55.6015 42.9103 56.3556 42.7439 57.1057C42.5985 57.8598 42.453 58.6139 42.3076 59.368L42.4333 59.3923ZM53.6049 55.9414C52.9449 56.0966 52.4374 55.9118 52.0824 55.3871C51.968 55.1912 51.9162 54.9531 51.9268 54.6727C51.9374 54.3923 52.0194 54.1365 52.1726 53.9053C52.3508 53.6573 52.6027 53.4777 52.9283 53.3667C53.2579 53.2347 53.5693 53.197 53.8626 53.2536C54.4701 53.3708 54.824 53.7323 54.9244 54.3383C54.9806 54.6099 54.9406 54.8737 54.8043 55.1299C54.693 55.3691 54.5039 55.5608 54.2372 55.7049C54.1372 55.7725 54.0288 55.8277 53.9119 55.8703C53.8201 55.896 53.7177 55.9197 53.6049 55.9414ZM52.3469 69.2235C52.3458 69.6796 52.1491 69.9675 51.7566 70.0874C51.3432 70.2032 50.9742 70.0886 50.6497 69.7435C50.5104 69.5646 50.417 69.3728 50.3696 69.1681C50.3222 68.9634 50.2767 68.7482 50.2334 68.5226C50.2271 68.2172 50.2228 67.9014 50.2206 67.575C50.2393 67.2528 50.256 66.9409 50.2706 66.6396C50.3469 65.568 50.4442 64.5004 50.5624 63.4369C50.7056 62.3565 50.9201 61.3006 51.2059 60.2694C51.2713 60.0431 51.3471 59.8187 51.4335 59.5964C51.5239 59.3531 51.6626 59.1408 51.8496 58.9596C51.9947 58.7704 52.1632 58.629 52.355 58.5357C52.5678 58.4464 52.7999 58.4259 53.0512 58.4744C53.529 58.5883 53.8261 58.9063 53.9427 59.4285C54.0585 59.8419 54.074 60.2686 53.9891 60.7085L53.1528 65.0445C53.0834 65.2919 53.0039 65.5916 52.9143 65.9436C52.8246 66.2957 52.7394 66.6812 52.6586 67.1002C52.594 67.4353 52.5273 67.7809 52.4586 68.137C52.4109 68.4972 52.3737 68.8594 52.3469 69.2235ZM62.1072 65.0443C61.6655 65.3067 61.3265 65.5998 61.0903 65.9236C60.5009 66.6138 59.9872 67.3621 59.5493 68.1684C59.1113 68.9747 58.7322 69.8141 58.4118 70.6866C58.3505 70.892 58.2682 71.0934 58.1649 71.2907C58.0617 71.4881 57.9415 71.6605 57.8045 71.8078C57.3893 72.2709 56.9259 72.4205 56.4143 72.2567C56.142 72.2042 55.9257 72.0864 55.7655 71.9034C55.6052 71.7204 55.474 71.4996 55.3718 71.2409C55.3244 71.0362 55.2999 70.8251 55.2984 70.6075C55.3179 70.394 55.3269 70.1785 55.3254 69.9609C55.3822 69.1028 55.4286 68.2427 55.4645 67.3806C55.5254 66.5016 55.6157 65.639 55.7354 64.7931C55.8026 64.2194 55.9117 63.6538 56.0627 63.0963C56.2137 62.5388 56.3856 61.9854 56.5785 61.436C56.5987 61.3312 56.6378 61.241 56.6958 61.1653C56.7579 61.0686 56.8075 60.9804 56.8446 60.9007C57.1342 60.4134 57.5242 60.2496 58.0148 60.4094C58.2203 60.4708 58.3906 60.6014 58.5259 60.8013C58.6611 61.0012 58.717 61.2184 58.6935 61.4528C58.6594 61.9677 58.6168 62.47 58.5658 62.9599C58.5357 63.4538 58.5161 63.9497 58.507 64.4477C58.5118 64.5355 58.5021 64.6423 58.4778 64.768C58.4576 64.8727 58.4688 64.9835 58.5115 65.1003C58.6243 65.0787 58.6973 65.0384 58.7303 64.9796C58.7674 64.8999 58.8025 64.8306 58.8356 64.7718C59.1259 64.3932 59.4141 64.0252 59.7003 63.6676C59.9906 63.289 60.3042 62.9584 60.6412 62.6758C60.7992 62.5324 60.9552 62.3996 61.1091 62.2772C61.2671 62.1339 61.442 62.0155 61.6339 61.9221C62.2633 61.5873 62.8822 61.5328 63.4904 61.7588C64.1027 61.9637 64.5492 62.4084 64.83 63.0926C64.9539 63.4641 65.0319 63.8485 65.0639 64.2457C65.1 64.622 65.1026 65.0028 65.0717 65.3879C65.0553 66.0365 65.0159 66.6916 64.9535 67.3531C64.916 67.9976 64.8786 68.6422 64.8412 69.2868C64.8104 69.6719 64.79 70.0591 64.7802 70.4482C64.7953 70.8205 64.7874 71.1992 64.7566 71.5843C64.7702 71.7391 64.7983 71.8748 64.841 71.9917C64.8836 72.1085 64.9682 72.2335 65.0946 72.3665C65.49 72.6818 65.5555 73.0746 65.291 73.545C65.0014 74.0323 64.6141 74.2944 64.1291 74.3312C63.644 74.368 63.2243 74.1784 62.87 73.7625C62.7138 73.5585 62.591 73.3502 62.5017 73.1374C62.4124 72.9247 62.3355 72.7034 62.2712 72.4738C62.0532 71.8017 61.921 71.1352 61.8746 70.4745C61.8282 69.8137 61.8298 69.1297 61.8794 68.4222C61.9094 67.9283 61.952 67.426 62.0071 66.9152C62.0621 66.4043 62.0838 65.8979 62.0719 65.396C62.08 65.3541 62.0776 65.3101 62.0648 65.2642C62.0769 65.2014 62.091 65.1281 62.1072 65.0443ZM73.3287 70.8911C73.2086 71.0635 73.078 71.2339 72.9369 71.4022C72.8167 71.5745 72.6861 71.7449 72.545 71.9132C72.3918 72.1444 72.2071 72.3695 71.9911 72.5885C71.775 72.8076 71.5441 72.9912 71.2982 73.1393C70.6816 73.5201 70.0612 73.6394 69.4368 73.4973C68.8124 73.3551 68.3118 72.9653 67.9351 72.3277C67.7193 71.9819 67.564 71.6044 67.4692 71.195C67.3993 70.7687 67.3504 70.3465 67.3224 69.9283C67.1921 68.0129 67.6318 66.2401 68.6414 64.6098C68.96 64.0846 69.3248 63.601 69.736 63.1589C70.1681 62.7208 70.6804 62.3742 71.2727 62.1191C71.8651 61.8639 72.4417 61.747 73.0025 61.7683C73.5673 61.7686 74.1208 61.9405 74.6628 62.284C74.8223 62.3583 74.9629 62.418 75.0846 62.4631C75.2271 62.5124 75.3798 62.5092 75.5426 62.4537C75.9939 62.3669 76.3943 62.4876 76.7438 62.8157C77.1183 63.127 77.305 63.5106 77.304 63.9667C77.3246 64.5355 77.3034 65.0963 77.2402 65.649C77.1771 66.2017 77.1035 66.7524 77.0194 67.3011C76.856 68.4863 76.6696 69.6779 76.4603 70.8759C76.255 72.053 76.0183 73.224 75.7501 74.389C75.6201 74.9505 75.4671 75.5185 75.2912 76.0929C75.1402 76.6504 74.9159 77.1938 74.6183 77.723C74.3045 78.336 73.9275 78.8825 73.4874 79.3625C73.0641 79.8674 72.5691 80.2934 72.0025 80.6404C71.5608 80.9028 71.0889 81.04 70.587 81.0518C69.9552 81.0603 69.395 80.811 68.9062 80.3039C68.4383 79.8009 68.2106 79.2355 68.223 78.6079C68.2538 78.2227 68.4215 77.9727 68.7262 77.8576C68.843 77.815 68.9663 77.7953 69.0961 77.7986C69.2467 77.8059 69.3873 77.8656 69.5178 77.9777C69.6313 78.0648 69.7239 78.1478 69.7956 78.2268C69.8632 78.3267 69.9289 78.4372 69.9924 78.5581C70.1527 78.7411 70.3473 78.746 70.5762 78.5729C71.0833 78.0841 71.4707 77.5396 71.7386 76.9394C72.1589 75.9994 72.4889 75.0202 72.7288 74.0018C72.9727 72.9625 73.1727 71.9256 73.3287 70.8911ZM70.4634 70.3711C70.7052 70.2439 70.8986 70.0857 71.0438 69.8964C71.2139 69.6902 71.388 69.4631 71.5663 69.215C71.9388 68.6351 72.2735 68.0261 72.5704 67.3881C72.8922 66.7332 73.1742 66.0598 73.4163 65.3678C73.5721 64.8981 73.4054 64.6921 72.9163 64.7499C72.6487 64.7852 72.4025 64.8789 72.1776 65.0311C71.9737 65.1873 71.8012 65.3496 71.6601 65.5179C71.519 65.6862 71.3739 65.8755 71.2247 66.0857C70.9142 66.569 70.694 67.0914 70.5639 67.653C70.4339 68.2145 70.3458 68.7841 70.2995 69.3618C70.3091 69.5375 70.3082 69.7111 70.2968 69.8827C70.3105 70.0374 70.366 70.2002 70.4634 70.3711ZM85.9571 72.4468C86.147 71.4623 86.465 70.5459 86.911 69.6977C87.382 68.8326 87.9328 68.0045 88.5633 67.2136C88.8745 66.8391 89.2236 66.4937 89.6106 66.1772C89.9975 65.8607 90.4162 65.6047 90.8667 65.4092C91.4841 65.1372 92.0921 65.0263 92.6907 65.0766C93.3272 65.1559 93.8665 65.4011 94.3087 65.8123C94.7508 66.2235 95.0555 66.7276 95.2228 67.3248C95.3941 67.901 95.3628 68.5141 95.1287 69.1643C95.0714 69.3487 94.9912 69.5397 94.8879 69.737C94.7847 69.9344 94.6625 70.1172 94.5214 70.2855C94.1481 70.7567 93.7264 71.1968 93.2565 71.6059C92.8115 71.998 92.2928 72.3217 91.7005 72.5768C91.3209 72.7426 90.9264 72.8729 90.517 72.9677C90.1326 73.0457 89.733 73.0338 89.3181 72.932C89.1714 72.9038 89.0731 72.9065 89.0232 72.9403C88.9941 72.9782 88.9655 73.0704 88.9372 73.2171C88.8516 73.5482 88.8079 73.8874 88.8061 74.2347C88.8043 74.5819 88.8235 74.9333 88.8636 75.2886C88.9367 75.5852 89.0216 75.7645 89.1183 75.8266C89.215 75.8887 89.4156 75.8622 89.7202 75.7471C90.1586 75.6144 90.5693 75.4003 90.9522 75.1048C91.173 74.9736 91.3898 74.8633 91.6026 74.774C91.8194 74.6637 92.0362 74.5535 92.253 74.4432C92.353 74.3756 92.4948 74.316 92.6785 74.2645C93.0129 74.2204 93.2687 74.3023 93.4459 74.5103C93.648 74.7014 93.7168 74.9645 93.6521 75.2996C93.6238 75.4463 93.5851 75.5909 93.5359 75.7335C93.4866 75.8761 93.4269 76.0166 93.3568 76.1552C92.9309 76.8987 92.4101 77.5152 91.7942 78.0048C91.1784 78.4943 90.4148 78.7924 89.5034 78.8991C88.2488 78.983 87.2665 78.5003 86.5564 77.4508C86.1844 76.9011 85.9587 76.3253 85.8792 75.7233C85.7998 75.1214 85.7663 74.5066 85.7787 73.8789C85.8022 73.6444 85.8257 73.41 85.8492 73.1755C85.8977 72.9242 85.9337 72.6812 85.9571 72.4468ZM92.8328 68.3955C92.861 68.2489 92.8748 68.1212 92.8741 68.0124C92.8774 67.8827 92.8307 67.7868 92.734 67.7247C92.6035 67.6126 92.4049 67.6286 92.1381 67.7727C92.0463 67.7985 91.9629 67.8367 91.8879 67.8874C91.8129 67.9381 91.7255 67.9973 91.6255 68.0649C91.2886 68.3476 90.9874 68.6697 90.7222 69.0314C90.4778 69.397 90.244 69.7647 90.0206 70.1345C89.8876 70.2609 89.8758 70.3781 89.9853 70.4861C90.0191 70.5361 90.0675 70.5672 90.1303 70.5793C90.2181 70.5745 90.285 70.5657 90.331 70.5528C91.3746 70.2109 92.1839 69.5631 92.7589 68.6094C92.7879 68.5716 92.8065 68.5317 92.8146 68.4898C92.8267 68.427 92.8328 68.3955 92.8328 68.3955ZM100.017 78.7758C99.6798 79.0585 99.3847 79.3492 99.1316 79.648C98.8824 79.9258 98.6144 80.1892 98.3274 80.438C98.1944 80.5644 98.0509 80.6888 97.8969 80.8112C97.7389 80.9546 97.562 81.0834 97.3661 81.1977C96.8197 81.4399 96.3363 81.4119 95.9158 81.1135C95.4866 80.7483 95.3829 80.272 95.6048 79.6848C95.654 79.5422 95.7242 79.4036 95.8153 79.2691C95.9105 79.1137 96.0036 78.9687 96.0947 78.8342C96.8454 77.8709 97.5964 76.962 98.3479 76.1075C98.576 75.8256 98.6471 75.5134 98.5611 75.1709C98.4067 74.6197 98.2877 74.0536 98.2042 73.4726C98.1457 72.8747 98.0937 72.2998 98.048 71.7478C97.9774 71.2128 97.9423 70.6628 97.9426 70.098C97.9197 69.2028 98.3704 68.7248 99.2946 68.6641C99.5121 68.6626 99.7365 68.7385 99.9677 68.8917C100.199 69.0449 100.376 69.2529 100.499 69.5156C100.576 69.6825 100.621 69.8432 100.634 69.9979C100.669 70.1567 100.691 70.3239 100.7 70.4996C100.741 70.8549 100.789 71.2228 100.846 71.6031C100.924 71.9875 101.002 72.3719 101.08 72.7563C101.206 72.7805 101.283 72.7737 101.312 72.7358C101.345 72.677 101.38 72.6078 101.417 72.528C101.803 72.1028 102.179 71.6755 102.544 71.2463C102.931 70.821 103.304 70.4043 103.665 69.9959C103.977 69.6214 104.318 69.3178 104.688 69.0852C105.063 68.8316 105.461 68.6259 105.883 68.4682C106.096 68.3789 106.292 68.319 106.472 68.2884C106.672 68.262 106.875 68.2794 107.081 68.3407C107.454 68.4344 107.694 68.6545 107.801 69.001C107.929 69.3516 107.881 69.6574 107.656 69.9183C106.407 71.3285 105.186 72.7552 103.996 74.1985C103.717 74.5142 103.439 74.8299 103.161 75.1456C102.904 75.4654 102.636 75.7831 102.358 76.0988C102.171 76.28 102.108 76.4959 102.168 76.7465C102.36 77.3267 102.567 77.8881 102.788 78.4305C103.031 78.9769 103.283 79.5253 103.546 80.0758C103.611 80.3055 103.738 80.4929 103.927 80.638C104.289 81.0121 104.355 81.4049 104.123 81.8165C104.045 81.997 103.899 82.1319 103.687 82.2212C103.495 82.3145 103.282 82.3495 103.047 82.326C102.834 82.3065 102.651 82.2387 102.5 82.1226C102.344 82.0275 102.195 81.9009 102.052 81.7429C101.761 81.4478 101.495 81.1359 101.254 80.807C101.039 80.4612 100.813 80.1134 100.576 79.7636C100.478 79.5927 100.379 79.4323 100.278 79.2824C100.201 79.1156 100.114 78.9467 100.017 78.7758ZM112.968 82.0559C113.519 81.7927 113.968 81.4883 114.318 81.1429C114.796 80.6919 115.265 80.2284 115.726 79.7525C116.208 79.2806 116.642 78.7776 117.028 78.2436C117.065 78.1639 117.098 78.1051 117.127 78.0672C117.16 78.0084 117.182 77.9476 117.195 77.8848C117.3 77.4489 117.604 77.2251 118.106 77.2132C118.596 77.2643 118.918 77.511 119.072 77.9534C119.169 78.1243 119.212 78.2956 119.201 78.4672C119.214 78.6219 119.203 78.7935 119.166 78.982C118.869 80.0761 118.369 81.0878 117.669 82.0173C116.802 83.132 115.766 83.9968 114.561 84.6117C114.294 84.7558 114.023 84.8665 113.747 84.9437C113.489 85.0459 113.207 85.1001 112.901 85.1064C112.353 85.1311 111.84 84.9777 111.361 84.6463C110.877 84.3358 110.523 83.9199 110.298 83.3984C110.17 83.0479 110.065 82.6908 109.983 82.3274C109.905 81.943 109.848 81.5627 109.812 81.1864C109.689 80.3588 109.643 79.5244 109.675 78.6832C109.707 77.8421 109.75 77.0029 109.802 76.1658C109.861 74.9604 109.966 73.7421 110.116 72.511C110.246 71.2759 110.428 70.0509 110.662 68.8359C110.706 68.6055 110.712 68.4653 110.678 68.4153C110.644 68.3653 110.497 68.3371 110.238 68.3305C109.954 68.3408 109.667 68.3616 109.379 68.3929C109.073 68.3991 108.77 68.395 108.469 68.3803C108.096 68.3954 107.729 68.2703 107.368 68.005C107.035 67.7019 106.886 67.3473 106.921 66.9412C106.96 66.5142 107.154 66.1823 107.504 65.9456C107.846 65.7508 108.194 65.6333 108.55 65.5932C108.947 65.5612 109.344 65.5292 109.742 65.4972C110.118 65.4611 110.503 65.4376 110.896 65.4265C111.155 65.4331 111.321 65.4215 111.391 65.3917C111.445 65.337 111.509 65.1754 111.583 64.9072C111.741 64.199 111.939 63.5094 112.177 62.8383C112.398 62.1423 112.672 61.4563 112.998 60.7805C113.13 60.5453 113.252 60.308 113.363 60.0688C113.499 59.8126 113.663 59.5835 113.854 59.3814C114.012 59.238 114.166 59.1156 114.316 59.0142C114.47 58.8918 114.639 58.8049 114.823 58.7534C115.273 58.5578 115.717 58.6217 116.154 58.9451C116.336 59.1321 116.427 59.3344 116.428 59.5519C116.451 59.7735 116.419 59.9955 116.333 60.2178C116.202 60.6706 116.029 61.1153 115.815 61.5519C115.604 61.9675 115.431 62.4122 115.297 62.8859C115.178 63.2758 115.049 63.6637 114.909 64.0496C114.791 64.4395 114.67 64.8399 114.547 65.2508C114.511 65.4393 114.499 65.5566 114.512 65.6025C114.55 65.6315 114.673 65.6662 114.883 65.7066C115.302 65.7874 115.702 65.8537 116.083 65.9055C116.464 65.9573 116.854 66.0215 117.252 66.0983C117.964 66.2356 118.508 66.6231 118.885 67.2607C118.991 67.3896 119.061 67.5335 119.095 67.6922C119.155 67.8341 119.181 67.9803 119.173 68.131C119.147 68.4952 118.971 68.7872 118.646 69.007C118.325 69.2058 118.03 69.2141 117.761 69.0319C117.719 69.0238 117.667 69.0137 117.604 69.0016C117.566 68.9726 117.514 68.9625 117.447 68.9713C116.954 69.05 116.469 69.0324 115.991 68.9185C115.534 68.8087 115.059 68.7388 114.565 68.7087L114.125 68.6238C113.873 68.5754 113.724 68.6768 113.675 68.9282C113.64 69.3343 113.584 69.7363 113.508 70.1343C113.435 70.5113 113.371 70.9009 113.315 71.3029C113.159 72.3374 113.034 73.378 112.941 74.4246C112.848 75.4712 112.788 76.5134 112.762 77.5512C112.723 78.087 112.696 78.6248 112.678 79.1647C112.686 79.6876 112.713 80.2251 112.759 80.777C112.764 80.9736 112.791 81.1743 112.838 81.379C112.885 81.5837 112.929 81.8093 112.968 82.0559ZM124.84 75.1553C125.007 75.0788 125.122 74.9923 125.184 74.8956C125.25 74.778 125.312 74.6813 125.37 74.6056C125.627 74.2859 125.912 73.9932 126.224 73.7274C126.54 73.4407 126.896 73.227 127.293 73.0862C127.831 72.8859 128.335 72.8092 128.803 72.8562C129.297 72.8863 129.757 73.0944 130.182 73.4806C130.502 73.7378 130.709 74.0711 130.804 74.4804C130.92 74.8938 130.899 75.281 130.743 75.6419C130.603 76.0278 130.385 76.2573 130.089 76.3305C129.792 76.4036 129.486 76.3011 129.17 76.023C129.002 75.8819 128.855 75.7992 128.729 75.775C128.604 75.7507 128.441 75.8062 128.241 75.9415C128.141 76.0091 128.037 76.0977 127.929 76.2072C127.842 76.3208 127.746 76.4219 127.642 76.5104C127.431 76.8173 127.241 77.1282 127.071 77.4432C126.906 77.7372 126.739 78.0417 126.569 78.3566C126.256 78.9696 125.95 79.5951 125.653 80.2331C125.382 80.8542 125.129 81.4898 124.895 82.1399C124.772 82.5508 124.649 82.9617 124.527 83.3725C124.404 83.7834 124.302 84.1983 124.221 84.6173C124.193 84.7639 124.152 84.919 124.099 85.0825C124.067 85.2501 124.003 85.4116 123.908 85.5671C123.577 86.1551 123.087 86.3865 122.438 86.2612C121.776 86.1988 121.355 85.8461 121.175 85.203C121.124 85.0193 121.095 84.8291 121.09 84.6325C121.105 84.4399 121.106 84.2663 121.092 84.1116C121.115 83.2035 121.157 82.31 121.218 81.4309C121.283 80.5309 121.348 79.6309 121.413 78.731C121.495 77.856 121.61 76.9765 121.759 76.0927C121.912 75.1879 122.086 74.2872 122.28 73.3905C122.393 72.804 122.696 72.417 123.188 72.2295C123.61 72.0718 124.004 72.1151 124.369 72.3595C124.739 72.5829 124.946 72.9162 124.991 73.3593C125.052 73.7187 125.05 74.066 124.986 74.4012C124.945 74.5019 124.912 74.6151 124.888 74.7407C124.884 74.8705 124.869 75.0086 124.84 75.1553ZM137.575 85.7262C137.408 85.8026 137.267 85.9165 137.15 86.068C137.059 86.2025 136.951 86.312 136.826 86.3965C136.556 86.6703 136.269 86.9192 135.965 87.143C135.666 87.3459 135.323 87.4863 134.939 87.5643C134.3 87.7235 133.699 87.6293 133.136 87.2817C132.598 86.9172 132.272 86.409 132.159 85.7571C131.924 84.4952 132.004 83.3482 132.399 82.3163C132.814 81.2884 133.492 80.3653 134.432 79.5472C134.952 79.1043 135.515 78.8327 136.121 78.7323C136.752 78.615 137.399 78.6963 138.062 78.9763C138.104 78.9843 138.133 79.0009 138.15 79.0259C138.192 79.0339 138.234 79.042 138.276 79.0501C138.392 78.8987 138.441 78.7561 138.424 78.6223C138.41 78.4676 138.407 78.3149 138.414 78.1642C138.419 77.6872 138.399 77.2272 138.354 76.784C138.33 76.3448 138.273 75.9101 138.182 75.4798C138.036 74.8867 137.862 74.549 137.661 74.4667C137.48 74.3884 137.134 74.4954 136.621 74.7876C135.817 75.2408 135.084 75.8274 134.424 76.5474C134.216 76.7245 134.092 76.9179 134.052 77.1273C133.963 77.5882 133.686 77.839 133.222 77.8799C133.067 77.8935 132.893 77.8382 132.7 77.714C132.507 77.5898 132.361 77.4423 132.264 77.2714C132.072 76.7999 132.067 76.3209 132.248 75.8343C132.424 75.3687 132.647 74.9446 132.917 74.562C133.19 74.1585 133.499 73.7945 133.844 73.4699C134.218 73.1075 134.605 72.7911 135.005 72.5206C135.409 72.2291 135.847 71.9876 136.318 71.7961C137.069 71.5064 137.826 71.4678 138.589 71.6801C139.377 71.8755 140.008 72.3774 140.482 73.1858C140.702 73.5107 140.853 73.8548 140.935 74.2182C141.042 74.5648 141.134 74.9302 141.212 75.3146C141.318 76.0084 141.379 76.7046 141.396 77.4032C141.434 78.1058 141.429 78.8109 141.379 79.5183C141.302 80.4811 141.217 81.4315 141.123 82.3693C141.029 83.3071 140.922 84.2534 140.803 85.2082C140.761 85.7649 140.654 86.32 140.482 86.8735C140.319 87.4938 139.97 87.8937 139.436 88.0731C138.906 88.2315 138.411 88.0927 137.952 87.6565C137.771 87.4695 137.659 87.2632 137.615 87.0375C137.572 86.8119 137.551 86.5798 137.554 86.3413C137.553 86.2326 137.561 86.1363 137.577 86.0525C137.597 85.9477 137.597 85.839 137.575 85.7262ZM135.043 84.4884C135.447 84.1969 135.839 83.9139 136.218 83.6393C136.6 83.3438 136.947 83.0088 137.259 82.6343C137.346 82.5208 137.364 82.3721 137.312 82.1884C137.286 81.9877 137.207 81.8314 137.077 81.7193C136.95 81.5863 136.837 81.5536 136.737 81.6212C136.662 81.6719 136.568 81.7082 136.455 81.7298C136.426 81.7677 136.387 81.8035 136.337 81.8373C136.287 81.8712 136.247 81.907 136.218 81.9449C135.869 82.2903 135.59 82.6709 135.379 83.0866C135.173 83.4813 135.061 83.9485 135.043 84.4884Z" fill="#9C7346"/>
</svg>
