<svg width="4621" height="4621" viewBox="0 0 4621 4621" fill="none" xmlns="http://www.w3.org/2000/svg">
<mask id="path-1-inside-1_226_271" fill="white">
<path d="M3290.75 2214.51C3413.31 2049.27 3479.86 1868.78 3483.64 1691.38C3487.41 1513.98 3428.27 1345.99 3312.22 1204.46C3196.18 1062.94 3027.37 952.933 2822.93 885.613C2618.5 818.294 2385.73 796.061 2148.26 821.174C1910.8 846.288 1677.1 917.852 1470.91 1028.6C1264.73 1139.34 1093.39 1285.33 974.315 1451.71C855.239 1618.1 792.664 1798.97 792.946 1975.94C793.228 2152.91 856.357 2319.69 975.921 2459.32L1316.91 2273.28C1232.42 2174.6 1187.81 2056.75 1187.61 1931.69C1187.41 1806.63 1231.63 1678.82 1315.78 1561.24C1399.92 1443.66 1521 1340.5 1666.71 1262.24C1812.41 1183.98 1977.55 1133.41 2145.36 1115.66C2313.17 1097.91 2477.66 1113.63 2622.13 1161.2C2766.59 1208.77 2885.89 1286.51 2967.89 1386.52C3049.89 1486.53 3091.69 1605.24 3089.02 1730.6C3086.35 1855.97 3039.33 1983.51 2952.71 2100.28L3290.75 2214.51Z"/>
</mask>
<path d="M3290.75 2214.51C3413.31 2049.27 3479.86 1868.78 3483.64 1691.38C3487.41 1513.98 3428.27 1345.99 3312.22 1204.46C3196.18 1062.94 3027.37 952.933 2822.93 885.613C2618.5 818.294 2385.73 796.061 2148.26 821.174C1910.8 846.288 1677.1 917.852 1470.91 1028.6C1264.73 1139.34 1093.39 1285.33 974.315 1451.71C855.239 1618.1 792.664 1798.97 792.946 1975.94C793.228 2152.91 856.357 2319.69 975.921 2459.32L1316.91 2273.28C1232.42 2174.6 1187.81 2056.75 1187.61 1931.69C1187.41 1806.63 1231.63 1678.82 1315.78 1561.24C1399.92 1443.66 1521 1340.5 1666.71 1262.24C1812.41 1183.98 1977.55 1133.41 2145.36 1115.66C2313.17 1097.91 2477.66 1113.63 2622.13 1161.2C2766.59 1208.77 2885.89 1286.51 2967.89 1386.52C3049.89 1486.53 3091.69 1605.24 3089.02 1730.6C3086.35 1855.97 3039.33 1983.51 2952.71 2100.28L3290.75 2214.51Z" stroke="#6D755E" stroke-width="442" mask="url(#path-1-inside-1_226_271)"/>
<path d="M1252.76 1529.62C1249.79 1533.66 1246.04 1537.13 1241.52 1540.03C1236.98 1542.78 1232.05 1544.71 1226.73 1545.82C1221.4 1546.94 1216.03 1546.95 1210.6 1545.87C1205.08 1544.72 1199.84 1542.32 1194.85 1538.65C1190.22 1535.23 1186.55 1531.21 1183.87 1526.59C1181.09 1521.9 1179.3 1516.87 1178.48 1511.5C1177.67 1506.13 1177.86 1500.84 1179.05 1495.62C1180.22 1490.26 1182.48 1485.3 1185.83 1480.74C1190.38 1474.56 1195.99 1470.08 1202.67 1467.31C1209.32 1464.4 1216.29 1463.3 1223.57 1464.02C1230.85 1464.75 1237.58 1467.39 1243.77 1471.94C1249.01 1475.8 1252.96 1480.23 1255.63 1485.24C1258.28 1490.11 1259.86 1495.24 1260.37 1500.66C1260.96 1505.99 1260.56 1511.2 1259.2 1516.28C1257.82 1521.23 1255.67 1525.67 1252.76 1529.62ZM1233.11 1515.56C1234.63 1513.5 1235.67 1511.01 1236.22 1508.1C1236.77 1505.2 1236.55 1502.26 1235.56 1499.28C1234.58 1496.3 1232.49 1493.64 1229.31 1491.3C1226.57 1489.28 1223.72 1488.11 1220.77 1487.79C1217.82 1487.48 1215 1487.98 1212.3 1489.31C1209.58 1490.48 1207.21 1492.45 1205.19 1495.2C1203.29 1497.77 1202.18 1500.54 1201.87 1503.48C1201.62 1506.34 1202.09 1509.21 1203.29 1512.08C1204.47 1514.8 1206.39 1517.14 1209.05 1519.1C1212.14 1521.38 1215.27 1522.62 1218.43 1522.82C1221.56 1522.88 1224.44 1522.22 1227.05 1520.83C1229.57 1519.37 1231.6 1517.62 1233.11 1515.56ZM1289.85 1478.89C1287.33 1481.93 1285.11 1483.76 1283.2 1484.39C1281.28 1484.88 1279.44 1484.67 1277.69 1483.77C1276.01 1482.79 1274.39 1481.66 1272.83 1480.36L1229.84 1444.72C1228.2 1443.36 1226.82 1441.93 1225.69 1440.45C1224.57 1438.96 1224.11 1437.26 1224.31 1435.35C1224.5 1433.29 1225.85 1430.74 1228.37 1427.7C1230.75 1424.83 1232.86 1423.11 1234.71 1422.56C1236.53 1421.86 1238.12 1421.79 1239.46 1422.35C1240.72 1422.84 1241.71 1423.39 1242.45 1424L1241.97 1426.09C1241.77 1425.65 1241.54 1424.77 1241.26 1423.43C1240.97 1421.94 1240.89 1420.21 1241 1418.23C1241.04 1416.18 1241.45 1414.02 1242.22 1411.75C1243.06 1409.4 1244.43 1407.07 1246.34 1404.77C1247.09 1403.87 1247.99 1402.95 1249.04 1402.02C1250.07 1400.94 1251.27 1399.99 1252.64 1399.19C1253.99 1398.23 1255.4 1397.53 1256.87 1397.09C1258.26 1396.58 1259.65 1396.41 1261.03 1396.58C1262.48 1396.68 1263.86 1397.27 1265.17 1398.36C1268.54 1401.15 1270.76 1404.31 1271.85 1407.85C1272.86 1411.31 1272.37 1414.24 1270.4 1416.62C1269.24 1418.01 1268.3 1418.9 1267.58 1419.27C1266.85 1419.64 1266.2 1419.93 1265.61 1420.13C1265.09 1420.26 1264.55 1420.5 1263.98 1420.85C1263.32 1421.14 1262.45 1421.94 1261.36 1423.26C1260.34 1424.49 1259.52 1425.81 1258.89 1427.24C1258.33 1428.58 1258.02 1430.05 1257.94 1431.64C1257.85 1433.09 1258.1 1434.55 1258.69 1436C1259.26 1437.31 1260.17 1438.48 1261.4 1439.5L1288.5 1461.97C1290.06 1463.26 1291.44 1464.69 1292.64 1466.24C1293.84 1467.65 1294.3 1469.34 1294.03 1471.34C1293.76 1473.33 1292.37 1475.85 1289.85 1478.89ZM1371.16 1436.22C1368.62 1438.95 1365.72 1441.36 1362.47 1443.43C1359.23 1445.51 1355.96 1447.13 1352.69 1448.31C1349.41 1449.48 1346.48 1450.11 1343.92 1450.2C1341.36 1450.29 1339.41 1449.72 1338.09 1448.48C1336.84 1447.32 1335.89 1446 1335.23 1444.51C1334.65 1443.1 1334.29 1441.45 1334.15 1439.57C1334 1437.38 1333.97 1435.61 1334.07 1434.25C1334.18 1432.89 1334.74 1431.66 1335.76 1430.57C1336.77 1429.47 1337.96 1428.75 1339.3 1428.4C1340.73 1428.13 1342.23 1427.85 1343.8 1427.56C1345.45 1427.2 1347.24 1426.54 1349.16 1425.56C1351.17 1424.66 1353.23 1423.08 1355.34 1420.82C1356.86 1419.18 1357.93 1417.4 1358.54 1415.5C1359.23 1413.66 1359.47 1411.69 1359.24 1409.58C1359.09 1407.55 1358.49 1405.54 1357.44 1403.53C1356.47 1401.61 1355.04 1399.77 1353.17 1398.03L1304.71 1352.87C1302.89 1350.75 1302.18 1348.62 1302.56 1346.49C1302.93 1344.22 1304.42 1341.67 1307.04 1338.86C1309.66 1336.05 1311.91 1334.5 1313.78 1334.21C1315.65 1333.77 1317.36 1334.05 1318.91 1335.05C1320.52 1335.97 1322.07 1337.12 1323.56 1338.51L1369.8 1381.59C1374.25 1385.73 1377.42 1390.22 1379.33 1395.06C1381.32 1399.97 1382.21 1404.89 1382 1409.8C1381.88 1414.78 1380.88 1419.54 1379 1424.06C1377.12 1428.57 1374.51 1432.63 1371.16 1436.22ZM1343.56 1414.44C1340.29 1417.95 1336.42 1420.62 1331.96 1422.44C1327.49 1424.1 1322.76 1424.95 1317.78 1424.97C1312.88 1424.92 1308.05 1424 1303.31 1422.2C1298.57 1420.41 1294.28 1417.73 1290.46 1414.17C1286.63 1410.6 1283.7 1406.56 1281.65 1402.03C1279.53 1397.42 1278.3 1392.71 1277.98 1387.89C1277.66 1382.92 1278.2 1378.19 1279.63 1373.68C1281.05 1369.03 1283.4 1364.95 1286.67 1361.43C1289.87 1358 1293.3 1355.73 1296.96 1354.62C1300.54 1353.43 1304.31 1353.3 1308.26 1354.22C1312.21 1354.98 1316.27 1356.65 1320.44 1359.22C1324.53 1361.72 1328.72 1364.97 1333.01 1368.96C1338.79 1374.35 1343.24 1379.66 1346.37 1384.91C1349.42 1390.08 1350.81 1395.17 1350.53 1400.16C1350.17 1405.07 1347.85 1409.84 1343.56 1414.44ZM1328.55 1396.52C1330.44 1394.49 1331.64 1392.18 1332.16 1389.6C1332.59 1386.94 1332.39 1384.35 1331.54 1381.81C1330.77 1379.19 1329.29 1376.87 1327.11 1374.83C1324.92 1372.8 1322.5 1371.49 1319.83 1370.9C1317.24 1370.24 1314.64 1370.29 1312.03 1371.07C1309.49 1371.76 1307.23 1373.16 1305.27 1375.27C1303.31 1377.37 1302.07 1379.72 1301.56 1382.3C1301.05 1384.89 1301.21 1387.52 1302.06 1390.21C1302.91 1392.75 1304.42 1395.03 1306.61 1397.07C1308.72 1399.03 1311.1 1400.31 1313.76 1400.89C1316.42 1401.48 1319.07 1401.46 1321.69 1400.84C1324.3 1400.07 1326.59 1398.63 1328.55 1396.52ZM1429.91 1331.71C1427.03 1334.41 1424.42 1335.91 1422.07 1336.21C1419.8 1336.44 1417.97 1335.81 1416.58 1334.33L1415.89 1331.25C1416.15 1332.47 1416.17 1334.28 1415.94 1336.69C1415.64 1339.02 1414.87 1341.64 1413.65 1344.54C1412.35 1347.36 1410.14 1350.24 1407.03 1353.15C1403.45 1356.51 1399.29 1358.94 1394.57 1360.45C1389.92 1361.88 1385.07 1362.4 1380.03 1362.01C1374.91 1361.55 1369.97 1360.25 1365.21 1358.14C1360.53 1355.95 1356.36 1352.91 1352.72 1349.02C1349.14 1345.2 1346.45 1340.93 1344.64 1336.19C1342.84 1331.3 1341.94 1326.37 1341.95 1321.39C1341.97 1316.26 1342.84 1311.42 1344.57 1306.87C1346.31 1302.32 1348.96 1298.37 1352.54 1295.02C1355.42 1292.32 1358.27 1290.45 1361.1 1289.41C1363.85 1288.29 1366.4 1287.65 1368.75 1287.5C1371.17 1287.28 1373.2 1287.35 1374.85 1287.7L1372.39 1286.94C1370.56 1285.15 1369.87 1283.16 1370.32 1280.99C1370.77 1278.66 1372.47 1276.12 1375.43 1273.34C1378.23 1270.72 1380.62 1269.29 1382.59 1269.05C1384.64 1268.74 1386.43 1269.17 1387.98 1270.36C1389.6 1271.47 1391.15 1272.8 1392.6 1274.35L1430.35 1314.63C1431.74 1316.11 1432.93 1317.7 1433.93 1319.39C1435.01 1321.01 1435.33 1322.83 1434.89 1324.85C1434.45 1326.73 1432.79 1329.01 1429.91 1331.71ZM1393.29 1333.35C1395.32 1331.46 1396.67 1329.24 1397.36 1326.69C1398.05 1324 1398.02 1321.32 1397.28 1318.65C1396.61 1315.91 1395.26 1313.46 1393.22 1311.28C1391.1 1309.02 1388.74 1307.51 1386.12 1306.74C1383.43 1305.9 1380.76 1305.78 1378.1 1306.37C1375.36 1306.89 1372.98 1308.09 1370.96 1309.99C1368.7 1312.1 1367.19 1314.55 1366.42 1317.31C1365.73 1320.01 1365.68 1322.76 1366.27 1325.57C1366.93 1328.31 1368.32 1330.81 1370.44 1333.06C1372.41 1335.17 1374.74 1336.64 1377.43 1337.48C1380.12 1338.17 1382.87 1338.22 1385.69 1337.63C1388.5 1336.89 1391.04 1335.47 1393.29 1333.35ZM1457.58 1307.52C1454.52 1310.02 1451.99 1311.39 1450 1311.64C1448.02 1311.75 1446.29 1311.23 1444.81 1310.09C1443.35 1308.81 1441.98 1307.38 1440.7 1305.81L1405.1 1262.16C1403.82 1260.59 1402.81 1259.01 1402.06 1257.42C1401.24 1255.74 1401.12 1253.99 1401.68 1252.15C1402.33 1250.24 1404.19 1248.04 1407.24 1245.55C1409.89 1243.39 1412.14 1242.18 1413.98 1241.91C1415.76 1241.56 1417.22 1241.75 1418.36 1242.47C1419.58 1243.13 1420.56 1243.91 1421.31 1244.82C1421.98 1245.64 1422.53 1246.16 1422.97 1246.35L1424.15 1249.31C1423.3 1247.94 1422.91 1246.19 1422.97 1244.08C1423.05 1241.81 1423.51 1239.51 1424.36 1237.17C1425.22 1234.68 1426.36 1232.37 1427.79 1230.24C1429.3 1228.04 1431.01 1226.17 1432.91 1224.62C1436.88 1221.38 1441 1219.26 1445.27 1218.25C1449.56 1217.1 1453.89 1217.01 1458.26 1217.98C1462.64 1218.96 1466.88 1220.87 1470.99 1223.71C1475.11 1226.4 1478.96 1229.94 1482.53 1234.32L1500.93 1256.89C1502.21 1258.46 1503.3 1260.12 1504.18 1261.88C1505.08 1263.49 1505.2 1265.25 1504.55 1267.15C1503.99 1268.99 1502.18 1271.15 1499.12 1273.65C1495.98 1276.21 1493.41 1277.62 1491.41 1277.87C1489.43 1277.97 1487.7 1277.45 1486.22 1276.32C1484.68 1275.1 1483.27 1273.71 1481.99 1272.14L1463.68 1249.69C1461.66 1247.21 1459.53 1245.44 1457.29 1244.38C1455.04 1243.32 1452.72 1243.01 1450.33 1243.45C1447.87 1243.8 1445.44 1244.96 1443.04 1246.91C1440.64 1248.87 1438.98 1251.05 1438.05 1253.46C1437.13 1255.86 1436.88 1258.34 1437.3 1260.89C1437.81 1263.36 1439.04 1265.8 1440.99 1268.2L1459.4 1290.76C1460.68 1292.34 1461.76 1294 1462.64 1295.76C1463.54 1297.36 1463.66 1299.12 1463.02 1301.03C1462.45 1302.86 1460.64 1305.03 1457.58 1307.52ZM1528.68 1250.96C1525.5 1253.31 1522.91 1254.55 1520.9 1254.71C1518.92 1254.71 1517.22 1254.11 1515.8 1252.91C1514.4 1251.55 1513.1 1250.06 1511.9 1248.43L1478.76 1203.48C1477.49 1201.77 1476.45 1200.08 1475.63 1198.43C1474.9 1196.72 1474.9 1194.93 1475.64 1193.06C1476.32 1191.1 1478.25 1188.95 1481.42 1186.61C1484.51 1184.33 1487.05 1183.19 1489.04 1183.18C1491.11 1183.11 1492.81 1183.71 1494.14 1184.98C1495.56 1186.19 1496.93 1187.7 1498.26 1189.5L1531.31 1234.31C1532.51 1235.94 1533.51 1237.66 1534.31 1239.46C1535.13 1241.11 1535.17 1242.87 1534.42 1244.74C1533.77 1246.55 1531.85 1248.62 1528.68 1250.96ZM1474.36 1177.3C1471.1 1179.71 1468.43 1180.95 1466.36 1181.01C1464.29 1181.08 1462.52 1180.47 1461.03 1179.18C1459.64 1177.82 1458.31 1176.29 1457.04 1174.57C1455.71 1172.77 1454.68 1171.01 1453.95 1169.3C1453.15 1167.5 1453.12 1165.66 1453.86 1163.79C1454.54 1161.84 1456.51 1159.65 1459.77 1157.25C1462.95 1154.91 1465.57 1153.7 1467.64 1153.63C1469.71 1153.56 1471.45 1154.21 1472.84 1155.56C1474.33 1156.85 1475.7 1158.36 1476.97 1160.08C1478.23 1161.79 1479.26 1163.55 1480.06 1165.35C1480.94 1167.08 1481.04 1168.93 1480.37 1170.89C1479.63 1172.76 1477.62 1174.9 1474.36 1177.3ZM1580.81 1215.79C1576.92 1218.41 1572.46 1220.38 1567.44 1221.7C1562.44 1222.88 1557.27 1223.21 1551.91 1222.7C1546.58 1222.04 1541.5 1220.31 1536.67 1217.52C1531.77 1214.64 1527.48 1210.46 1523.79 1204.97C1520.1 1199.48 1517.87 1193.98 1517.11 1188.45C1516.35 1182.92 1516.7 1177.61 1518.16 1172.51C1519.62 1167.42 1521.86 1162.82 1524.89 1158.73C1527.95 1154.49 1531.38 1151.08 1535.19 1148.52C1538.47 1146.32 1541.65 1144.76 1544.76 1143.83C1547.89 1142.75 1550.7 1142.15 1553.18 1142.02C1555.75 1141.83 1557.71 1141.87 1559.04 1142.13C1561.32 1142.27 1563.42 1142.52 1565.34 1142.9C1567.27 1143.28 1568.81 1144.42 1569.97 1146.34C1570.54 1147.38 1570.91 1148.6 1571.1 1150.02C1571.22 1151.35 1571.24 1152.82 1571.16 1154.41C1571 1159.92 1569.48 1163.39 1566.59 1164.82C1565.08 1165.44 1563.54 1165.84 1561.98 1165.99C1560.5 1166.08 1559.02 1166.18 1557.54 1166.27C1556.09 1166.22 1554.64 1166.36 1553.19 1166.69C1551.74 1167.02 1550.27 1167.69 1548.76 1168.71C1546.2 1170.43 1544.28 1172.55 1543.02 1175.07C1541.76 1177.59 1541.19 1180.29 1541.32 1183.16C1541.54 1185.97 1542.54 1188.7 1544.33 1191.36C1546.05 1193.92 1548.18 1195.84 1550.7 1197.1C1553.3 1198.3 1556 1198.87 1558.78 1198.8C1561.59 1198.58 1564.23 1197.64 1566.71 1195.97C1568.22 1194.96 1569.38 1193.92 1570.2 1192.85C1571.12 1191.72 1571.82 1190.67 1572.32 1189.69C1572.76 1188.62 1573.11 1187.81 1573.38 1187.24C1573.96 1185.82 1574.56 1184.52 1575.18 1183.33C1575.74 1182.06 1576.55 1181.06 1577.61 1180.35C1578.85 1179.52 1580.46 1179.14 1582.44 1179.22C1584.36 1179.21 1586.81 1179.69 1589.77 1180.66C1592.44 1181.56 1594.39 1182.75 1595.64 1184.23C1596.98 1185.64 1597.64 1187.38 1597.62 1189.45C1597.59 1191.53 1597.01 1193.91 1595.87 1196.61C1595.58 1197.7 1594.83 1199.36 1593.63 1201.59C1592.51 1203.75 1590.89 1206.12 1588.77 1208.71C1586.74 1211.23 1584.09 1213.59 1580.81 1215.79ZM1638.96 1179.92C1636.48 1181.39 1633.61 1182.72 1630.35 1183.9C1627.18 1185.04 1623.91 1185.91 1620.56 1186.53C1617.16 1187.06 1614.13 1187.17 1611.48 1186.88C1608.77 1186.5 1606.74 1185.47 1605.38 1183.8C1604.65 1182.99 1604.08 1182.02 1603.67 1180.91C1603.29 1179.64 1603.1 1178.27 1603.09 1176.79C1603.03 1175.21 1603.08 1173.51 1603.23 1171.68C1603.37 1170.24 1603.82 1169.11 1604.57 1168.29C1605.33 1167.47 1606.41 1166.89 1607.82 1166.55C1609.45 1165.96 1611.22 1165.6 1613.12 1165.46C1615.07 1165.18 1617.01 1165.02 1618.97 1164.98C1620.97 1164.79 1622.98 1164.53 1625.01 1164.19C1626.99 1163.77 1628.85 1163.04 1630.6 1162.01C1633.17 1160.49 1634.93 1158.95 1635.87 1157.4C1636.85 1155.71 1636.93 1154.17 1636.12 1152.79C1635.52 1151.78 1634.71 1151.15 1633.69 1150.89C1632.76 1150.57 1631.61 1150.51 1630.23 1150.7C1628.9 1150.75 1627.43 1150.99 1625.84 1151.44C1624.24 1151.89 1622.51 1152.42 1620.64 1153.03C1618.81 1153.49 1616.93 1153.98 1615.01 1154.5C1612.33 1155.21 1609.64 1155.69 1606.93 1155.93C1604.22 1156.17 1601.53 1156.02 1598.86 1155.49C1596.14 1154.87 1593.6 1153.71 1591.23 1152.01C1588.81 1150.22 1586.59 1147.63 1584.59 1144.23C1581.92 1139.73 1580.75 1135.35 1581.07 1131.07C1581.39 1126.79 1583.11 1122.67 1586.23 1118.72C1589.29 1114.68 1593.72 1110.95 1599.5 1107.53C1601.15 1106.55 1602.86 1105.67 1604.62 1104.87C1606.38 1104.08 1608.18 1103.45 1610.01 1102.99C1611.94 1102.47 1613.87 1102.07 1615.81 1101.79C1617.75 1101.51 1619.77 1101.37 1621.88 1101.36C1625.39 1101.02 1627.85 1101.92 1629.24 1104.07C1630.64 1106.22 1631.19 1108.93 1630.89 1112.2C1630.8 1114.36 1630.43 1116.13 1629.76 1117.52C1629.04 1118.82 1628 1119.68 1626.64 1120.11C1624.95 1120.61 1623 1120.96 1620.76 1121.17C1618.62 1121.32 1616.37 1121.6 1614.01 1122C1611.74 1122.35 1609.68 1123.07 1607.85 1124.16C1606.28 1125.08 1605.09 1126.1 1604.26 1127.21C1603.37 1128.23 1602.87 1129.27 1602.76 1130.33C1602.59 1131.3 1602.77 1132.24 1603.32 1133.16C1604.02 1134.35 1604.91 1135.12 1605.99 1135.48C1607.1 1135.69 1608.39 1135.67 1609.86 1135.42C1611.32 1135.18 1612.95 1134.77 1614.72 1134.22C1616.5 1133.66 1618.42 1133.03 1620.47 1132.31C1623.22 1131.3 1626.13 1130.45 1629.19 1129.76C1632.28 1128.92 1635.32 1128.61 1638.3 1128.83C1641.37 1128.99 1644.29 1129.93 1647.04 1131.65C1649.88 1133.32 1652.5 1136.17 1654.89 1140.21C1659.17 1147.46 1659.93 1154.51 1657.17 1161.35C1654.4 1168.2 1648.33 1174.39 1638.96 1179.92ZM1749.43 1119.99C1744.71 1122.23 1740.06 1123.26 1735.49 1123.08C1730.96 1122.75 1726.69 1121.47 1722.68 1119.25C1718.76 1116.98 1715.15 1113.97 1711.83 1110.23C1708.61 1106.45 1705.89 1102.08 1703.64 1097.12C1701.4 1092.4 1699.87 1087.58 1699.06 1082.65C1698.25 1077.72 1698.22 1073.06 1698.97 1068.69C1699.82 1064.27 1701.55 1060.32 1704.14 1056.84C1706.79 1053.22 1710.47 1050.28 1715.19 1048.04C1719.43 1046.02 1723.98 1045.04 1728.85 1045.08C1733.81 1045.08 1738.64 1046.04 1743.32 1047.94C1747.96 1049.75 1752.18 1052.41 1755.98 1055.92C1759.82 1059.28 1762.87 1063.33 1765.12 1068.05C1767.45 1072.96 1768.76 1078.07 1769.04 1083.37C1769.37 1088.53 1768.79 1093.53 1767.32 1098.36C1765.84 1103.2 1763.58 1107.52 1760.55 1111.33C1757.47 1115.04 1753.77 1117.92 1749.43 1119.99ZM1736.22 1100.05C1738.92 1098.76 1741.03 1096.99 1742.55 1094.73C1744.03 1092.37 1744.87 1089.79 1745.07 1086.98C1745.36 1084.12 1744.86 1081.35 1743.58 1078.65C1742.25 1075.86 1740.46 1073.7 1738.2 1072.17C1735.89 1070.55 1733.38 1069.62 1730.67 1069.38C1727.95 1069.14 1725.24 1069.66 1722.55 1070.94C1719.95 1072.18 1717.84 1073.95 1716.22 1076.25C1714.69 1078.51 1713.83 1081.05 1713.64 1083.86C1713.49 1086.53 1714.08 1089.26 1715.41 1092.05C1716.69 1094.75 1718.49 1096.91 1720.79 1098.53C1723.1 1100.15 1725.63 1101.13 1728.39 1101.47C1731.11 1101.71 1733.72 1101.24 1736.22 1100.05ZM1721.33 1133.54C1717.86 1135.19 1715.1 1135.85 1713.06 1135.52C1711.01 1135.2 1709.41 1134.31 1708.24 1132.85C1707.13 1131.26 1706.14 1129.54 1705.27 1127.71L1665.74 1044.64C1664.77 1042.62 1664.09 1040.69 1663.7 1038.87C1663.31 1037.05 1663.6 1035.32 1664.59 1033.67C1665.63 1031.87 1667.93 1030.13 1671.49 1028.43C1674.96 1026.78 1677.67 1026.14 1679.62 1026.52C1681.56 1026.89 1683.1 1027.87 1684.21 1029.47C1685.28 1030.97 1686.2 1032.66 1686.97 1034.53L1728.64 1122.09C1729.21 1124.53 1728.98 1126.65 1727.94 1128.44C1726.9 1130.23 1724.7 1131.93 1721.33 1133.54ZM1822.47 1123.28C1817.7 1123.1 1814.53 1122.06 1812.97 1120.16C1811.51 1118.21 1810.9 1115.07 1811.13 1110.73L1815.38 1012.49C1815.53 1007.95 1816.46 1004.95 1818.17 1003.47C1819.93 1001.85 1823.16 1001.03 1827.86 1001C1832.57 1001.31 1835.64 1002.39 1837.06 1004.24C1838.58 1006.04 1839.23 1009 1839.02 1013.1L1834.87 1111.99C1834.71 1116.53 1833.8 1119.59 1832.13 1121.17C1830.47 1122.75 1827.24 1123.45 1822.47 1123.28ZM1821.67 1083.49L1765.6 1044.1C1762.12 1041.7 1760.15 1039.32 1759.68 1036.98C1759.31 1034.61 1760.41 1031.59 1762.98 1027.93C1765.9 1024.02 1768.52 1021.95 1770.84 1021.72C1773.22 1021.35 1776.17 1022.42 1779.68 1024.92L1821.04 1054.13L1821.67 1083.49ZM1978.29 1011.35C1978.87 1013.35 1979.36 1015.81 1979.76 1018.73C1980.27 1021.62 1980.39 1024.51 1980.14 1027.4C1979.85 1030.19 1979.12 1032.73 1977.94 1035.02C1976.72 1037.21 1974.71 1038.71 1971.91 1039.51C1968.21 1040.58 1965.01 1040.03 1962.34 1037.87C1959.76 1035.69 1957.54 1032.86 1955.67 1029.38C1953.78 1025.81 1952.17 1022.1 1950.85 1018.25C1949.63 1014.37 1948.64 1011.3 1947.88 1009.02C1941.01 1012.29 1934.21 1015.39 1927.46 1018.3C1927.92 1020.66 1928.29 1023.64 1928.56 1027.25C1928.94 1030.82 1928.89 1034.42 1928.4 1038.02C1927.99 1041.5 1927.02 1044.71 1925.48 1047.64C1924.03 1050.55 1921.76 1052.45 1918.66 1053.34C1916.25 1054.03 1914.11 1053.72 1912.22 1052.42C1910.4 1050.99 1908.79 1049.18 1907.4 1046.98C1906.01 1044.78 1904.86 1042.45 1903.94 1040.01C1903.09 1037.43 1902.42 1035.29 1901.93 1033.59C1900.3 1027.88 1899.14 1022.15 1898.46 1016.38C1897.75 1010.52 1897.2 1004.66 1896.83 998.807C1896.59 995.731 1896.42 992.097 1896.3 987.904C1896.18 983.712 1896.23 979.362 1896.45 974.855C1896.75 970.219 1897.27 965.625 1898.02 961.074C1898.85 956.394 1900.05 952.093 1901.63 948.17C1903.22 944.248 1905.32 940.826 1907.95 937.903C1910.58 934.981 1913.85 932.96 1917.75 931.839C1921.56 930.746 1925.11 930.649 1928.4 931.546C1931.69 932.443 1934.79 933.992 1937.7 936.192C1940.6 938.392 1943.28 941.093 1945.71 944.295C1948.12 947.396 1950.31 950.67 1952.27 954.116C1954.31 957.433 1956.13 960.758 1957.74 964.089C1959.44 967.393 1960.93 970.324 1962.21 972.883C1965.38 979.018 1968.38 985.31 1971.21 991.759C1974 998.109 1976.37 1004.64 1978.29 1011.35ZM1938.83 983.172C1938.48 981.971 1937.82 980.047 1936.85 977.401C1935.94 974.626 1934.85 971.959 1933.58 969.4C1932.27 966.74 1930.76 964.517 1929.06 962.73C1927.43 960.815 1925.71 960.116 1923.91 960.634C1922.9 960.921 1922.15 961.895 1921.66 963.555C1921.13 965.116 1920.82 967.048 1920.72 969.351C1920.59 971.555 1920.59 973.995 1920.71 976.67C1920.92 979.317 1921.16 981.849 1921.42 984.267C1921.69 986.685 1921.99 988.874 1922.33 990.834C1922.65 992.693 1922.88 994.038 1923 994.868C1928.87 992.642 1934.56 990.196 1940.08 987.527L1938.83 983.172ZM2054.44 970.273C2055.42 974.751 2055.99 979.797 2056.15 985.413C2056.4 990.905 2055.85 996.197 2054.51 1001.29C2053.27 1006.36 2051.11 1010.83 2048.01 1014.71C2045.02 1018.56 2040.72 1021.1 2035.13 1022.33C2033.7 1022.64 2032.2 1022.86 2030.63 1022.99C2029.06 1023.12 2027.51 1023.09 2025.97 1022.89C2024.54 1022.67 2023.17 1022.28 2021.87 1021.71C2020.55 1021.04 2019.43 1020.06 2018.51 1018.77L2021.95 1041.05C2022.36 1043.41 2022.87 1046.23 2023.48 1049.51C2024.2 1052.77 2024.47 1055.96 2024.3 1059.09C2024.23 1062.2 2023.51 1064.97 2022.12 1067.4C2020.86 1069.92 2018.55 1071.54 2015.19 1072.28C2013.26 1072.7 2011.41 1072.04 2009.64 1070.3C2007.89 1068.65 2006.28 1066.39 2004.8 1063.52C2003.42 1060.62 2002.11 1057.34 2000.88 1053.66C1999.65 1049.98 1998.6 1046.43 1997.74 1042.99C1996.88 1039.55 1996.14 1036.41 1995.52 1033.56C1994.89 1030.71 1994.44 1028.63 1994.15 1027.3C1992.65 1020.48 1991.12 1013.73 1989.55 1007.04C1987.95 1000.24 1986.41 993.434 1984.92 986.616C1984.65 985.395 1984.24 983.513 1983.68 980.969C1983.1 978.323 1982.58 975.452 1982.11 972.355C1981.65 969.257 1981.26 966.036 1980.96 962.691C1980.75 959.323 1980.82 956.216 1981.16 953.37C1981.47 950.422 1982.16 947.978 1983.23 946.038C1984.28 943.996 1985.82 942.753 1987.85 942.307C1989.17 942.017 1990.43 942.168 1991.63 942.759C1992.9 943.226 1994.03 943.993 1995.01 945.058C1996.07 945.999 1997 947.075 1997.8 948.286C1998.6 949.498 1999.27 950.63 1999.82 951.682C2002.2 947.43 2005.22 943.942 2008.89 941.22C2012.66 938.474 2016.88 936.589 2021.56 935.564C2026.45 934.495 2030.72 935 2034.37 937.078C2038.13 939.135 2041.32 942.009 2043.94 945.701C2046.66 949.37 2048.89 953.467 2050.63 957.991C2052.34 962.415 2053.61 966.509 2054.44 970.273ZM2032.34 973.832C2032.01 972.306 2031.52 970.813 2030.88 969.353C2030.32 967.77 2029.54 966.394 2028.54 965.228C2027.62 963.937 2026.46 963.018 2025.06 962.471C2023.64 961.823 2022.01 961.699 2020.18 962.1C2017.74 962.635 2015.32 964.017 2012.93 966.247C2010.62 968.353 2009.02 970.568 2008.14 972.893C2007.81 973.818 2007.8 975.208 2008.1 977.062C2008.4 978.916 2008.65 980.3 2008.85 981.216C2009 981.929 2009.22 982.895 2009.48 984.116C2009.83 985.213 2010.19 986.361 2010.56 987.56C2010.93 988.759 2011.28 989.907 2011.63 991.004C2012.08 992.078 2012.52 992.888 2012.96 993.431C2013.47 994.28 2014.32 995 2015.51 995.592C2016.69 996.081 2017.95 996.497 2019.31 996.841C2020.66 997.184 2021.98 997.374 2023.27 997.412C2024.66 997.428 2025.81 997.335 2026.73 997.135C2028.87 996.667 2030.42 995.474 2031.38 993.556C2032.35 991.638 2032.94 989.482 2033.17 987.088C2033.49 984.671 2033.5 982.27 2033.19 979.885C2032.96 977.376 2032.68 975.358 2032.34 973.832ZM2137.33 957.022C2138.03 961.551 2138.29 966.623 2138.11 972.238C2138.01 977.735 2137.14 982.983 2135.49 987.982C2133.94 992.965 2131.51 997.297 2128.18 1000.98C2124.95 1004.64 2120.51 1006.91 2114.84 1007.79C2113.4 1008.01 2111.89 1008.14 2110.32 1008.17C2108.74 1008.21 2107.19 1008.08 2105.67 1007.79C2104.26 1007.48 2102.92 1007 2101.66 1006.36C2100.38 1005.6 2099.32 1004.56 2098.48 1003.21L2100.54 1025.66C2100.81 1028.04 2101.14 1030.89 2101.55 1034.2C2102.06 1037.49 2102.14 1040.7 2101.78 1043.81C2101.52 1046.91 2100.62 1049.63 2099.09 1051.98C2097.68 1054.41 2095.27 1055.89 2091.87 1056.42C2089.92 1056.72 2088.11 1055.95 2086.45 1054.09C2084.81 1052.35 2083.34 1049.99 2082.04 1047.03C2080.84 1044.06 2079.74 1040.7 2078.73 1036.95C2077.73 1033.21 2076.91 1029.59 2076.26 1026.11C2075.61 1022.62 2075.07 1019.44 2074.62 1016.56C2074.17 1013.68 2073.85 1011.57 2073.64 1010.23C2072.57 1003.33 2071.45 996.495 2070.3 989.717C2069.12 982.836 2068 975.947 2066.93 969.051C2066.74 967.816 2066.45 965.911 2066.05 963.338C2065.63 960.662 2065.29 957.763 2065.01 954.643C2064.74 951.524 2064.55 948.285 2064.45 944.927C2064.46 941.553 2064.72 938.456 2065.23 935.636C2065.72 932.713 2066.56 930.316 2067.75 928.446C2068.92 926.472 2070.53 925.326 2072.59 925.006C2073.93 924.799 2075.18 925.027 2076.33 925.691C2077.58 926.235 2078.66 927.07 2079.57 928.193C2080.57 929.198 2081.43 930.329 2082.15 931.587C2082.87 932.846 2083.48 934.017 2083.96 935.101C2086.59 931.003 2089.82 927.709 2093.65 925.217C2097.59 922.709 2101.92 921.088 2106.65 920.353C2111.6 919.587 2115.83 920.354 2119.34 922.654C2122.97 924.938 2125.97 928.003 2128.36 931.849C2130.85 935.679 2132.83 939.905 2134.28 944.528C2135.72 949.049 2136.74 953.213 2137.33 957.022ZM2115.06 959.212C2114.82 957.668 2114.42 956.148 2113.87 954.652C2113.41 953.037 2112.72 951.616 2111.79 950.39C2110.95 949.045 2109.85 948.056 2108.48 947.424C2107.1 946.69 2105.49 946.466 2103.64 946.754C2101.16 947.137 2098.67 948.368 2096.14 950.446C2093.71 952.405 2091.98 954.518 2090.96 956.784C2090.57 957.687 2090.47 959.074 2090.66 960.942C2090.84 962.811 2091.01 964.209 2091.15 965.135C2091.26 965.856 2091.41 966.834 2091.6 968.069C2091.88 969.185 2092.17 970.353 2092.46 971.572C2092.76 972.791 2093.05 973.959 2093.32 975.076C2093.71 976.176 2094.1 977.011 2094.5 977.581C2094.96 978.459 2095.76 979.23 2096.92 979.894C2098.06 980.455 2099.3 980.948 2100.63 981.374C2101.96 981.8 2103.26 982.072 2104.55 982.189C2105.93 982.29 2107.09 982.269 2108.02 982.125C2110.18 981.79 2111.8 980.695 2112.88 978.84C2113.97 976.985 2114.69 974.87 2115.06 972.494C2115.53 970.101 2115.69 967.705 2115.53 965.306C2115.45 962.788 2115.3 960.756 2115.06 959.212ZM2217.93 973.634C2218.11 975.501 2218.23 977.947 2218.31 980.974C2218.5 983.991 2218.36 986.986 2217.91 989.959C2217.45 992.828 2216.54 995.373 2215.18 997.595C2213.83 999.817 2211.75 1001.06 2208.95 1001.33C2205.11 1001.69 2202.04 1000.73 2199.73 998.436C2197.42 996.145 2196.13 993.127 2195.88 989.384C2192.84 992.603 2189.27 995.244 2185.18 997.308C2181.19 999.361 2177.02 1000.59 2172.66 1001.01C2169.65 1001.29 2166.73 1000.84 2163.9 999.644C2161.06 998.449 2158.5 996.809 2156.21 994.724C2153.92 992.64 2152.02 990.257 2150.51 987.576C2148.99 984.79 2148.09 981.998 2147.83 979.198C2147.36 974.22 2148.45 969.722 2151.1 965.703C2153.85 961.674 2157.34 958.152 2161.55 955.135C2165.75 952.015 2170.27 949.441 2175.1 947.412C2180.03 945.374 2184.45 943.908 2188.34 943.015C2188.29 942.497 2188.24 942.03 2188.2 941.615C2188.27 941.191 2188.28 940.719 2188.23 940.201C2187.92 936.986 2186.79 934.477 2184.84 932.674C2182.89 930.872 2180.31 930.123 2177.1 930.429C2174.5 930.675 2172.32 931.354 2170.54 932.464C2168.75 933.471 2167.08 934.624 2165.53 935.922C2163.97 937.117 2162.41 938.26 2160.84 939.351C2159.26 940.338 2157.43 940.93 2155.35 941.127C2153.07 941.344 2151.03 940.806 2149.24 939.512C2147.54 938.208 2146.59 936.415 2146.37 934.134C2146.05 930.712 2146.74 927.507 2148.44 924.52C2150.25 921.523 2152.57 918.948 2155.4 916.796C2158.32 914.53 2161.5 912.711 2164.92 911.339C2168.44 909.853 2171.71 908.967 2174.71 908.681C2177.51 908.415 2180.35 908.512 2183.22 908.972C2186.08 909.328 2188.82 910.114 2191.45 911.329C2194.06 912.44 2196.46 913.94 2198.62 915.826C2200.88 917.599 2202.77 919.775 2204.27 922.353C2206.5 926.012 2208.39 929.966 2209.94 934.213C2211.49 938.356 2212.79 942.679 2213.85 947.183C2214.89 951.583 2215.74 956.054 2216.38 960.597C2217.01 965.037 2217.53 969.382 2217.93 973.634ZM2192.57 971.022L2191.1 960.489C2190.89 960.509 2190.68 960.528 2190.47 960.548C2190.26 960.464 2190.04 960.432 2189.84 960.452C2188.49 960.58 2186.81 961.105 2184.81 962.028C2182.9 962.838 2181.07 963.953 2179.32 965.375C2177.56 966.693 2176.08 968.142 2174.87 969.722C2173.76 971.292 2173.28 972.855 2173.43 974.41C2173.57 975.862 2174.18 976.798 2175.26 977.218C2176.35 977.638 2177.57 977.784 2178.92 977.656C2181.2 977.439 2183.58 976.637 2186.06 975.25C2188.54 973.759 2190.71 972.35 2192.57 971.022ZM2368.62 974.843C2368.56 978.228 2367.72 981.338 2366.1 984.172C2364.49 986.747 2362.36 988.921 2359.73 990.694C2357.35 992.473 2354.59 993.853 2351.44 994.836C2348.56 995.824 2345.56 996.288 2342.43 996.23C2338.53 996.156 2334.24 995.294 2329.59 993.644C2325.18 992.259 2321.06 990.228 2317.2 987.55C2313.6 984.878 2310.53 981.825 2307.99 978.391C2305.46 974.697 2304.23 970.637 2304.32 966.211C2304.45 959.181 2307.54 954.03 2313.59 950.757C2319.65 947.225 2325.8 945.517 2332.05 945.635C2335.96 945.708 2339.98 946.435 2344.12 947.815C2348.52 949.2 2352.52 951.229 2356.12 953.901C2359.98 956.318 2363.05 959.371 2365.32 963.06C2367.6 966.489 2368.7 970.417 2368.62 974.843ZM2528.53 1013.89C2523.58 1013.06 2518.8 1011.28 2514.17 1008.55C2509.67 1005.74 2505.72 1002.21 2502.33 997.961C2498.93 993.712 2496.49 988.92 2495.01 983.587C2493.55 978.149 2493.33 972.379 2494.36 966.278C2495.31 960.598 2497.25 955.516 2500.17 951.031C2503.1 946.442 2506.78 942.572 2511.21 939.423C2515.63 936.273 2520.44 934.054 2525.63 932.764C2530.95 931.387 2536.39 931.168 2541.97 932.106C2549.54 933.381 2556.07 936.373 2561.55 941.081C2567.15 945.702 2571.27 951.425 2573.91 958.251C2576.55 965.076 2577.23 972.276 2575.96 979.85C2574.88 986.266 2572.7 991.795 2569.43 996.437C2566.29 1000.99 2562.41 1004.72 2557.81 1007.62C2553.32 1010.55 2548.49 1012.55 2543.34 1013.62C2538.3 1014.62 2533.37 1014.7 2528.53 1013.89ZM2532.22 990.012C2534.75 990.437 2537.43 990.24 2540.27 989.42C2543.11 988.6 2545.64 987.079 2547.85 984.855C2550.07 982.632 2551.5 979.574 2552.16 975.682C2552.72 972.316 2552.48 969.247 2551.44 966.474C2550.39 963.702 2548.66 961.411 2546.26 959.601C2543.99 957.703 2541.17 956.471 2537.8 955.905C2534.64 955.374 2531.68 955.632 2528.91 956.68C2526.24 957.745 2523.9 959.46 2521.88 961.824C2519.98 964.101 2518.76 966.869 2518.21 970.13C2517.57 973.917 2517.87 977.267 2519.11 980.18C2520.48 983.005 2522.37 985.27 2524.78 986.975C2527.22 988.575 2529.7 989.587 2532.22 990.012ZM2590.53 1024.12C2586.69 1023.24 2584.05 1022.09 2582.62 1020.67C2581.33 1019.17 2580.68 1017.44 2580.7 1015.47C2580.81 1013.53 2581.1 1011.57 2581.55 1009.59L2594.01 955.158C2594.48 953.079 2595.13 951.203 2595.95 949.53C2596.77 947.858 2598.08 946.68 2599.88 945.997C2601.8 945.234 2604.69 945.293 2608.54 946.174C2612.18 947.007 2614.66 948.122 2615.98 949.519C2617.43 950.835 2618.21 952.217 2618.31 953.664C2618.44 955.007 2618.4 956.146 2618.19 957.082L2616.1 957.589C2616.41 957.221 2617.09 956.612 2618.16 955.763C2619.36 954.833 2620.87 953.975 2622.69 953.188C2624.54 952.298 2626.64 951.686 2629.02 951.354C2631.5 951.046 2634.19 951.225 2637.1 951.891C2638.25 952.153 2639.47 952.543 2640.77 953.06C2642.21 953.497 2643.59 954.143 2644.93 954.996C2646.39 955.769 2647.65 956.714 2648.71 957.831C2649.79 958.845 2650.56 960.006 2651.03 961.317C2651.6 962.651 2651.7 964.15 2651.31 965.813C2650.34 970.077 2648.52 973.49 2645.85 976.053C2643.21 978.512 2640.38 979.396 2637.37 978.706C2635.6 978.302 2634.39 977.86 2633.73 977.382C2633.07 976.903 2632.52 976.448 2632.07 976.017C2631.73 975.61 2631.27 975.231 2630.69 974.881C2630.14 974.426 2629.03 974.008 2627.37 973.627C2625.81 973.27 2624.25 973.133 2622.7 973.216C2621.25 973.322 2619.8 973.701 2618.34 974.351C2617 974.921 2615.82 975.798 2614.78 976.984C2613.87 978.089 2613.24 979.421 2612.88 980.98L2605.03 1015.29C2604.58 1017.27 2603.93 1019.14 2603.08 1020.92C2602.37 1022.62 2601.06 1023.79 2599.16 1024.45C2597.25 1025.11 2594.38 1025 2590.53 1024.12ZM2665.28 1077.48C2661.69 1076.44 2658.24 1074.94 2654.92 1072.98C2651.6 1071.02 2648.68 1068.84 2646.16 1066.44C2643.63 1064.04 2641.75 1061.72 2640.52 1059.47C2639.28 1057.23 2638.91 1055.23 2639.42 1053.49C2639.89 1051.85 2640.65 1050.4 2641.68 1049.15C2642.68 1047.99 2643.99 1046.93 2645.6 1045.95C2647.48 1044.83 2649.05 1044.01 2650.31 1043.49C2651.58 1042.97 2652.92 1042.91 2654.36 1043.33C2655.79 1043.75 2656.97 1044.48 2657.89 1045.52C2658.78 1046.67 2659.7 1047.88 2660.67 1049.16C2661.73 1050.46 2663.13 1051.76 2664.87 1053.04C2666.58 1054.43 2668.92 1055.55 2671.89 1056.41C2674.04 1057.03 2676.11 1057.19 2678.09 1056.87C2680.03 1056.66 2681.9 1055.98 2683.68 1054.83C2685.42 1053.78 2686.95 1052.34 2688.26 1050.5C2689.55 1048.76 2690.54 1046.66 2691.26 1044.2L2709.7 980.581C2710.78 978.007 2712.36 976.408 2714.43 975.786C2716.63 975.092 2719.57 975.279 2723.26 976.349C2726.95 977.418 2729.35 978.724 2730.45 980.267C2731.69 981.737 2732.21 983.388 2732.02 985.218C2731.92 987.079 2731.59 988.982 2731.03 990.929L2713.42 1051.63C2711.73 1057.47 2709.16 1062.33 2705.7 1066.21C2702.21 1070.2 2698.23 1073.21 2693.75 1075.24C2689.24 1077.38 2684.55 1078.63 2679.67 1078.99C2674.79 1079.35 2669.99 1078.85 2665.28 1077.48ZM2672.27 1043.03C2667.66 1041.69 2663.54 1039.44 2659.9 1036.27C2656.4 1033.04 2653.51 1029.2 2651.25 1024.77C2649.08 1020.36 2647.73 1015.64 2647.19 1010.6C2646.65 1005.56 2647.11 1000.52 2648.57 995.505C2650.02 990.485 2652.31 986.04 2655.43 982.169C2658.59 978.196 2662.24 974.98 2666.4 972.52C2670.68 969.988 2675.16 968.342 2679.82 967.584C2684.62 966.753 2689.32 967.006 2693.93 968.343C2698.44 969.65 2702.01 971.686 2704.65 974.451C2707.32 977.114 2709.14 980.418 2710.11 984.363C2711.21 988.235 2711.55 992.61 2711.13 997.488C2710.75 1002.26 2709.74 1007.47 2708.1 1013.1C2705.91 1020.68 2703.17 1027.05 2699.9 1032.21C2696.65 1037.27 2692.74 1040.8 2688.16 1042.8C2683.61 1044.7 2678.32 1044.78 2672.27 1043.03ZM2681.5 1021.55C2684.16 1022.32 2686.76 1022.35 2689.3 1021.64C2691.87 1020.83 2694.09 1019.48 2695.98 1017.58C2697.96 1015.71 2699.37 1013.35 2700.2 1010.48C2701.03 1007.61 2701.11 1004.85 2700.43 1002.21C2699.86 999.604 2698.63 997.307 2696.77 995.321C2695 993.365 2692.74 991.987 2689.97 991.184C2687.2 990.382 2684.55 990.335 2682.02 991.043C2679.48 991.751 2677.2 993.09 2675.19 995.06C2673.3 996.958 2671.95 999.341 2671.11 1002.21C2670.31 1004.98 2670.25 1007.68 2670.93 1010.32C2671.61 1012.96 2672.81 1015.31 2674.55 1017.37C2676.42 1019.35 2678.73 1020.74 2681.5 1021.55ZM2785.06 1082.78C2781.35 1081.42 2778.83 1079.77 2777.5 1077.81C2776.27 1075.88 2776.01 1073.97 2776.7 1072.07L2779.14 1070.06C2778.17 1070.84 2776.56 1071.67 2774.31 1072.55C2772.09 1073.34 2769.41 1073.83 2766.27 1074.05C2763.16 1074.17 2759.6 1073.49 2755.6 1072.03C2750.99 1070.35 2746.94 1067.74 2743.46 1064.2C2740.09 1060.7 2737.43 1056.61 2735.51 1051.93C2733.62 1047.15 2732.54 1042.16 2732.28 1036.96C2732.12 1031.79 2732.96 1026.7 2734.79 1021.69C2736.58 1016.78 2739.18 1012.45 2742.59 1008.7C2746.14 1004.88 2750.14 1001.86 2754.59 999.62C2759.18 997.319 2763.89 995.916 2768.73 995.411C2773.57 994.905 2778.29 995.494 2782.9 997.175C2786.61 998.528 2789.57 1000.23 2791.77 1002.28C2794.01 1004.24 2795.72 1006.22 2796.92 1008.25C2798.21 1010.31 2799.07 1012.16 2799.49 1013.79L2799.06 1011.24C2799.84 1008.8 2801.3 1007.29 2803.44 1006.71C2805.72 1006.07 2808.76 1006.44 2812.57 1007.83C2816.18 1009.14 2818.53 1010.63 2819.63 1012.28C2820.83 1013.96 2821.25 1015.76 2820.9 1017.68C2820.64 1019.63 2820.15 1021.6 2819.41 1023.61L2800.5 1075.47C2799.8 1077.37 2798.93 1079.15 2797.87 1080.81C2796.91 1082.5 2795.43 1083.61 2793.42 1084.13C2791.55 1084.58 2788.76 1084.13 2785.06 1082.78ZM2767.07 1050.84C2769.68 1051.79 2772.27 1052 2774.85 1051.46C2777.57 1050.86 2779.95 1049.63 2781.99 1047.77C2784.13 1045.94 2785.72 1043.62 2786.74 1040.81C2787.8 1037.91 2788.08 1035.11 2787.58 1032.43C2787.12 1029.65 2786.02 1027.21 2784.29 1025.1C2782.6 1022.9 2780.45 1021.32 2777.85 1020.37C2774.94 1019.31 2772.08 1019.06 2769.26 1019.62C2766.55 1020.22 2764.07 1021.41 2761.82 1023.21C2759.68 1025.04 2758.08 1027.41 2757.02 1030.31C2756.03 1033.02 2755.77 1035.76 2756.23 1038.54C2756.83 1041.26 2758.03 1043.74 2759.82 1045.98C2761.75 1048.16 2764.17 1049.78 2767.07 1050.84ZM2819.13 1096.55C2815.52 1094.95 2813.15 1093.31 2812.03 1091.65C2811.04 1089.92 2810.72 1088.15 2811.07 1086.32C2811.55 1084.43 2812.21 1082.56 2813.03 1080.71L2835.89 1029.24C2836.72 1027.39 2837.67 1025.77 2838.75 1024.38C2839.88 1022.9 2841.39 1021.99 2843.28 1021.67C2845.28 1021.39 2848.08 1022.05 2851.68 1023.65C2854.8 1025.03 2856.9 1026.49 2857.97 1028.02C2859.09 1029.45 2859.58 1030.83 2859.45 1032.18C2859.42 1033.56 2859.16 1034.79 2858.69 1035.86C2858.26 1036.84 2858.05 1037.56 2858.07 1038.04L2855.96 1040.43C2856.8 1039.05 2858.19 1037.92 2860.1 1037.02C2862.16 1036.06 2864.42 1035.44 2866.89 1035.13C2869.5 1034.77 2872.08 1034.75 2874.63 1035.06C2877.27 1035.42 2879.71 1036.1 2881.95 1037.09C2886.63 1039.17 2890.38 1041.89 2893.21 1045.25C2896.18 1048.55 2898.22 1052.37 2899.32 1056.71C2900.43 1061.06 2900.64 1065.7 2899.96 1070.65C2899.42 1075.55 2898 1080.58 2895.71 1085.75L2883.89 1112.36C2883.06 1114.21 2882.07 1115.93 2880.9 1117.51C2879.87 1119.04 2878.36 1119.94 2876.37 1120.22C2874.47 1120.55 2871.72 1119.91 2868.11 1118.31C2864.41 1116.66 2861.99 1115.01 2860.87 1113.34C2859.88 1111.62 2859.56 1109.84 2859.91 1108.01C2860.3 1106.08 2860.9 1104.19 2861.72 1102.34L2873.48 1075.87C2874.78 1072.95 2875.4 1070.25 2875.33 1067.77C2875.27 1065.29 2874.5 1063.08 2873.02 1061.14C2871.59 1059.1 2869.46 1057.46 2866.64 1056.2C2863.81 1054.95 2861.11 1054.45 2858.55 1054.71C2855.98 1054.97 2853.66 1055.86 2851.58 1057.39C2849.6 1058.96 2847.98 1061.16 2846.72 1063.99L2834.9 1090.6C2834.08 1092.45 2833.08 1094.17 2831.91 1095.75C2830.88 1097.28 2829.37 1098.18 2827.38 1098.46C2825.49 1098.79 2822.73 1098.15 2819.13 1096.55ZM2901.72 1134.41C2898.19 1132.64 2895.9 1130.9 2894.86 1129.18C2893.95 1127.41 2893.72 1125.62 2894.15 1123.81C2894.73 1121.95 2895.47 1120.11 2896.38 1118.3L2921.44 1068.4C2922.39 1066.49 2923.42 1064.8 2924.52 1063.32C2925.72 1061.9 2927.32 1061.09 2929.32 1060.9C2931.37 1060.62 2934.16 1061.36 2937.69 1063.13C2941.12 1064.86 2943.29 1066.6 2944.19 1068.37C2945.19 1070.18 2945.42 1071.97 2944.9 1073.73C2944.46 1075.55 2943.75 1077.45 2942.74 1079.46L2917.76 1129.21C2916.85 1131.03 2915.77 1132.69 2914.53 1134.22C2913.43 1135.7 2911.88 1136.53 2909.87 1136.71C2907.96 1136.95 2905.25 1136.18 2901.72 1134.41ZM2942.79 1052.62C2939.16 1050.8 2936.85 1048.99 2935.85 1047.17C2934.86 1045.36 2934.6 1043.5 2935.08 1041.59C2935.65 1039.73 2936.42 1037.85 2937.38 1035.94C2938.38 1033.94 2939.48 1032.22 2940.68 1030.79C2941.92 1029.27 2943.54 1028.41 2945.55 1028.23C2947.6 1027.94 2950.44 1028.71 2954.06 1030.53C2957.58 1032.3 2959.85 1034.1 2960.85 1035.91C2961.84 1037.72 2962.06 1039.56 2961.48 1041.42C2961 1043.33 2960.28 1045.23 2959.32 1047.14C2958.37 1049.05 2957.27 1050.76 2956.02 1052.29C2954.88 1053.86 2953.28 1054.79 2951.23 1055.07C2949.22 1055.26 2946.41 1054.44 2942.79 1052.62ZM2956.7 1164.95C2952.6 1162.66 2948.82 1159.58 2945.37 1155.7C2942.06 1151.78 2939.41 1147.32 2937.44 1142.31C2935.61 1137.26 2934.85 1131.95 2935.14 1126.38C2935.49 1120.71 2937.28 1114.99 2940.49 1109.21C2943.71 1103.44 2947.61 1098.95 2952.2 1095.77C2956.78 1092.58 2961.67 1090.49 2966.87 1089.48C2972.08 1088.47 2977.19 1088.39 2982.21 1089.23C2987.38 1090.04 2991.97 1091.55 2995.98 1093.79C2999.42 1095.71 3002.27 1097.84 3004.5 1100.18C3006.88 1102.49 3008.69 1104.72 3009.93 1106.87C3011.27 1109.08 3012.12 1110.84 3012.49 1112.14C3013.4 1114.24 3014.12 1116.23 3014.66 1118.11C3015.2 1120 3014.87 1121.89 3013.69 1123.8C3013.02 1124.77 3012.1 1125.66 3010.92 1126.47C3009.79 1127.18 3008.49 1127.87 3007.03 1128.52C3002.06 1130.87 2998.27 1131.09 2995.69 1129.16C2994.44 1128.1 2993.4 1126.9 2992.55 1125.58C2991.8 1124.3 2991.04 1123.03 2990.29 1121.75C2989.68 1120.44 2988.9 1119.21 2987.95 1118.07C2986.99 1116.92 2985.73 1115.91 2984.14 1115.03C2981.44 1113.53 2978.68 1112.78 2975.86 1112.8C2973.04 1112.82 2970.38 1113.53 2967.89 1114.95C2965.48 1116.42 2963.5 1118.55 2961.94 1121.35C2960.44 1124.05 2959.69 1126.81 2959.71 1129.63C2959.82 1132.5 2960.54 1135.15 2961.86 1137.6C2963.33 1140.01 2965.37 1141.94 2967.98 1143.39C2969.56 1144.27 2971.02 1144.84 2972.34 1145.09C2973.76 1145.39 2975.02 1145.54 2976.12 1145.54C2977.27 1145.45 2978.15 1145.4 2978.77 1145.38C2980.31 1145.25 2981.74 1145.2 2983.08 1145.21C2984.47 1145.13 2985.72 1145.4 2986.84 1146.02C2988.14 1146.75 2989.21 1148.01 2990.04 1149.82C2990.92 1151.53 2991.6 1153.92 2992.08 1157C2992.48 1159.79 2992.31 1162.07 2991.56 1163.85C2990.9 1165.69 2989.65 1167.06 2987.79 1167.98C2985.94 1168.9 2983.55 1169.46 2980.63 1169.67C2979.52 1169.9 2977.7 1169.99 2975.17 1169.93C2972.74 1169.91 2969.89 1169.55 2966.63 1168.83C2963.46 1168.16 2960.15 1166.87 2956.7 1164.95ZM3015.05 1200.5C3012.61 1198.95 3010.13 1197 3007.59 1194.63C3005.14 1192.32 3002.88 1189.81 3000.81 1187.1C2998.79 1184.3 2997.31 1181.66 2996.37 1179.17C2995.48 1176.58 2995.48 1174.3 2996.35 1172.33C2996.74 1171.32 2997.34 1170.37 2998.15 1169.49C2999.11 1168.58 3000.24 1167.79 3001.56 1167.11C3002.93 1166.34 3004.47 1165.61 3006.17 1164.92C3007.52 1164.39 3008.73 1164.27 3009.8 1164.57C3010.87 1164.87 3011.88 1165.58 3012.82 1166.68C3014.09 1167.86 3015.22 1169.27 3016.2 1170.91C3017.33 1172.51 3018.36 1174.18 3019.29 1175.9C3020.36 1177.59 3021.51 1179.27 3022.73 1180.93C3024.01 1182.5 3025.5 1183.82 3027.21 1184.91C3029.74 1186.51 3031.9 1187.38 3033.71 1187.52C3035.66 1187.62 3037.07 1187 3037.93 1185.65C3038.56 1184.66 3038.76 1183.65 3038.53 1182.62C3038.39 1181.64 3037.92 1180.59 3037.12 1179.45C3036.48 1178.28 3035.59 1177.09 3034.47 1175.87C3033.35 1174.65 3032.09 1173.35 3030.7 1171.96C3029.45 1170.54 3028.16 1169.09 3026.83 1167.61C3024.98 1165.55 3023.33 1163.37 3021.89 1161.06C3020.44 1158.76 3019.35 1156.29 3018.61 1153.68C3017.93 1150.97 3017.81 1148.18 3018.25 1145.3C3018.74 1142.33 3020.05 1139.17 3022.16 1135.84C3024.96 1131.43 3028.34 1128.4 3032.3 1126.74C3036.26 1125.08 3040.71 1124.74 3045.64 1125.73C3050.63 1126.62 3055.96 1128.87 3061.64 1132.47C3063.26 1133.5 3064.82 1134.62 3066.33 1135.83C3067.84 1137.04 3069.21 1138.35 3070.46 1139.78C3071.79 1141.26 3073.02 1142.8 3074.16 1144.4C3075.29 1146 3076.33 1147.74 3077.29 1149.61C3079.19 1152.59 3079.5 1155.18 3078.22 1157.4C3076.94 1159.62 3074.77 1161.34 3071.72 1162.56C3069.76 1163.46 3068.01 1163.93 3066.47 1163.97C3064.99 1163.91 3063.75 1163.38 3062.75 1162.36C3061.54 1161.09 3060.33 1159.5 3059.14 1157.61C3058.03 1155.77 3056.76 1153.89 3055.33 1151.97C3053.98 1150.1 3052.41 1148.6 3050.61 1147.46C3049.08 1146.48 3047.63 1145.88 3046.26 1145.64C3044.95 1145.32 3043.8 1145.34 3042.8 1145.72C3041.86 1146.01 3041.11 1146.6 3040.54 1147.5C3039.79 1148.68 3039.51 1149.82 3039.68 1150.94C3040 1152.03 3040.6 1153.17 3041.49 1154.36C3042.37 1155.56 3043.47 1156.82 3044.77 1158.15C3046.07 1159.48 3047.51 1160.9 3049.08 1162.4C3051.23 1164.4 3053.3 1166.6 3055.31 1169.01C3057.46 1171.39 3059.12 1173.96 3060.28 1176.71C3061.52 1179.53 3062.01 1182.55 3061.72 1185.78C3061.53 1189.07 3060.18 1192.69 3057.66 1196.66C3053.14 1203.77 3047.21 1207.65 3039.86 1208.29C3032.5 1208.92 3024.23 1206.33 3015.05 1200.5ZM3118.6 1271.72C3114.45 1268.53 3111.43 1264.86 3109.51 1260.7C3107.75 1256.51 3106.95 1252.13 3107.11 1247.55C3107.36 1243.03 3108.39 1238.44 3110.22 1233.79C3112.13 1229.2 3114.79 1224.79 3118.19 1220.54C3121.37 1216.4 3124.98 1212.85 3129.01 1209.89C3133.03 1206.93 3137.16 1204.79 3141.4 1203.47C3145.73 1202.23 3150.03 1201.97 3154.31 1202.7C3158.74 1203.42 3163.03 1205.37 3167.17 1208.55C3170.89 1211.41 3173.83 1215.02 3176 1219.38C3178.25 1223.8 3179.59 1228.53 3180.02 1233.57C3180.52 1238.53 3180.06 1243.49 3178.66 1248.47C3177.4 1253.43 3175.18 1257.98 3172 1262.12C3168.68 1266.43 3164.72 1269.91 3160.13 1272.57C3155.68 1275.2 3150.96 1276.96 3145.98 1277.84C3141 1278.72 3136.13 1278.67 3131.36 1277.7C3126.66 1276.64 3122.4 1274.64 3118.6 1271.72ZM3130.37 1250.9C3132.74 1252.72 3135.27 1253.79 3137.98 1254.13C3140.75 1254.37 3143.43 1253.95 3146.03 1252.85C3148.71 1251.81 3150.96 1250.11 3152.78 1247.74C3154.66 1245.29 3155.77 1242.71 3156.1 1240.01C3156.5 1237.22 3156.19 1234.56 3155.17 1232.03C3154.16 1229.5 3152.47 1227.32 3150.1 1225.5C3147.82 1223.75 3145.28 1222.67 3142.49 1222.27C3139.78 1221.94 3137.13 1222.33 3134.54 1223.43C3132.09 1224.51 3129.93 1226.27 3128.04 1228.72C3126.22 1231.09 3125.11 1233.67 3124.72 1236.46C3124.32 1239.25 3124.6 1241.95 3125.55 1244.57C3126.56 1247.1 3128.17 1249.21 3130.37 1250.9ZM3093.77 1252.83C3090.72 1250.48 3088.88 1248.33 3088.24 1246.36C3087.61 1244.39 3087.67 1242.55 3088.44 1240.86C3089.36 1239.14 3090.43 1237.48 3091.67 1235.87L3147.75 1162.94C3149.11 1161.16 3150.52 1159.69 3151.96 1158.51C3153.4 1157.33 3155.09 1156.81 3157 1156.94C3159.07 1157.05 3161.67 1158.31 3164.8 1160.71C3167.84 1163.05 3169.64 1165.18 3170.2 1167.08C3170.75 1168.99 3170.57 1170.8 3169.65 1172.52C3168.8 1174.15 3167.71 1175.74 3166.39 1177.28L3107.29 1254.14C3105.37 1255.76 3103.38 1256.51 3101.31 1256.4C3099.24 1256.29 3096.73 1255.1 3093.77 1252.83ZM3148.78 1338.29C3146.77 1333.96 3146.26 1330.67 3147.26 1328.41C3148.33 1326.23 3150.85 1324.26 3154.82 1322.5L3244.33 1281.77C3248.44 1279.85 3251.54 1279.32 3253.63 1280.17C3255.88 1281.01 3258.08 1283.52 3260.23 1287.69C3262.08 1292.03 3262.51 1295.26 3261.51 1297.36C3260.59 1299.53 3258.25 1301.46 3254.5 1303.13L3164.46 1344.23C3160.34 1346.15 3157.21 1346.72 3155.04 1345.95C3152.88 1345.18 3150.79 1342.63 3148.78 1338.29ZM3183.89 1319.55L3193.59 1251.72C3194.16 1247.53 3195.38 1244.7 3197.26 1243.22C3199.21 1241.81 3202.4 1241.43 3206.82 1242.06C3211.63 1242.89 3214.67 1244.29 3215.92 1246.25C3217.33 1248.2 3217.71 1251.31 3217.07 1255.59L3209.77 1305.69L3183.89 1319.55ZM3319.09 1426.6C3317.56 1428.02 3315.59 1429.56 3313.17 1431.24C3310.82 1433 3308.3 1434.42 3305.6 1435.5C3302.99 1436.51 3300.39 1437 3297.81 1436.98C3295.31 1436.89 3293.06 1435.77 3291.08 1433.63C3288.46 1430.81 3287.5 1427.72 3288.22 1424.35C3289 1421.06 3290.52 1417.8 3292.78 1414.57C3295.11 1411.27 3297.7 1408.16 3300.53 1405.24C3303.44 1402.4 3305.73 1400.12 3307.42 1398.42C3301.4 1393.77 3295.56 1389.1 3289.91 1384.39C3288.01 1385.87 3285.52 1387.55 3282.43 1389.42C3279.41 1391.38 3276.18 1392.95 3272.75 1394.15C3269.46 1395.36 3266.16 1395.93 3262.84 1395.89C3259.6 1395.91 3256.88 1394.74 3254.68 1392.38C3252.98 1390.55 3252.28 1388.49 3252.59 1386.22C3253.04 1383.95 3253.93 1381.7 3255.27 1379.46C3256.6 1377.23 3258.15 1375.15 3259.92 1373.22C3261.83 1371.3 3263.44 1369.74 3264.74 1368.54C3269.09 1364.5 3273.68 1360.87 3278.52 1357.66C3283.43 1354.38 3288.41 1351.24 3293.46 1348.26C3296.1 1346.66 3299.26 1344.86 3302.94 1342.86C3306.63 1340.86 3310.53 1338.94 3314.66 1337.1C3318.92 1335.27 3323.26 1333.66 3327.66 1332.27C3332.21 1330.89 3336.59 1330.02 3340.8 1329.66C3345.02 1329.3 3349.02 1329.64 3352.82 1330.66C3356.61 1331.69 3359.89 1333.69 3362.65 1336.66C3365.35 1339.56 3367.04 1342.68 3367.73 1346.03C3368.41 1349.37 3368.43 1352.83 3367.78 1356.42C3367.14 1360.01 3365.93 1363.61 3364.18 1367.23C3362.5 1370.78 3360.57 1374.21 3358.38 1377.52C3356.34 1380.84 3354.2 1383.97 3351.95 1386.9C3349.78 1389.92 3347.84 1392.58 3346.13 1394.87C3342.09 1400.47 3337.84 1405.99 3333.36 1411.43C3328.96 1416.79 3324.2 1421.85 3319.09 1426.6ZM3326.39 1378.66C3327.3 1377.81 3328.72 1376.35 3330.64 1374.29C3332.71 1372.23 3334.59 1370.05 3336.3 1367.75C3338.08 1365.39 3339.38 1363.04 3340.21 1360.71C3341.18 1358.39 3341.02 1356.54 3339.75 1355.17C3339.04 1354.4 3337.83 1354.17 3336.13 1354.48C3334.5 1354.71 3332.63 1355.31 3330.53 1356.26C3328.51 1357.15 3326.33 1358.24 3324 1359.56C3321.73 1360.95 3319.58 1362.31 3317.55 1363.63C3315.51 1364.96 3313.69 1366.22 3312.1 1367.41C3310.58 1368.53 3309.48 1369.34 3308.8 1369.83C3313.44 1374.06 3318.19 1378.03 3323.07 1381.75L3326.39 1378.66ZM3390.11 1476.04C3386.56 1478.94 3382.31 1481.73 3377.37 1484.4C3372.58 1487.1 3367.61 1489 3362.46 1490.1C3357.38 1491.28 3352.41 1491.37 3347.56 1490.35C3342.76 1489.42 3338.56 1486.73 3334.94 1482.29C3334.02 1481.16 3333.15 1479.92 3332.32 1478.58C3331.5 1477.23 3330.83 1475.83 3330.31 1474.37C3329.86 1472.99 3329.59 1471.6 3329.52 1470.18C3329.52 1468.7 3329.89 1467.26 3330.62 1465.85L3312.29 1478.97C3310.37 1480.41 3308.08 1482.13 3305.43 1484.16C3302.85 1486.26 3300.12 1487.95 3297.25 1489.21C3294.45 1490.55 3291.65 1491.15 3288.85 1491.01C3286.03 1491.02 3283.54 1489.69 3281.37 1487.03C3280.12 1485.49 3279.87 1483.54 3280.63 1481.18C3281.31 1478.88 3282.6 1476.42 3284.5 1473.8C3286.46 1471.26 3288.81 1468.61 3291.53 1465.86C3294.26 1463.1 3296.96 1460.56 3299.64 1458.24C3302.32 1455.93 3304.79 1453.85 3307.05 1452C3309.31 1450.16 3310.97 1448.81 3312.02 1447.96C3317.43 1443.55 3322.77 1439.14 3328.03 1434.71C3333.38 1430.23 3338.76 1425.78 3344.17 1421.37C3345.14 1420.58 3346.63 1419.36 3348.65 1417.72C3350.75 1416.01 3353.08 1414.25 3355.63 1412.44C3358.19 1410.62 3360.89 1408.83 3363.73 1407.04C3366.65 1405.34 3369.45 1404 3372.14 1403.02C3374.92 1401.97 3377.41 1401.48 3379.62 1401.56C3381.92 1401.57 3383.72 1402.39 3385.04 1404C3385.89 1405.05 3386.33 1406.24 3386.34 1407.58C3386.5 1408.93 3386.32 1410.28 3385.81 1411.63C3385.45 1413 3384.91 1414.32 3384.19 1415.58C3383.47 1416.84 3382.76 1417.95 3382.07 1418.91C3386.93 1419.12 3391.41 1420.24 3395.5 1422.29C3399.65 1424.41 3403.23 1427.33 3406.26 1431.05C3409.42 1434.93 3410.89 1438.96 3410.69 1443.16C3410.55 1447.44 3409.42 1451.59 3407.31 1455.59C3405.26 1459.67 3402.61 1463.51 3399.35 1467.1C3396.18 1470.63 3393.1 1473.61 3390.11 1476.04ZM3376.97 1457.93C3378.18 1456.94 3379.29 1455.84 3380.31 1454.61C3381.47 1453.39 3382.34 1452.08 3382.93 1450.65C3383.67 1449.25 3383.97 1447.8 3383.82 1446.3C3383.76 1444.74 3383.14 1443.23 3381.95 1441.78C3380.37 1439.84 3378.05 1438.31 3374.98 1437.18C3372.06 1436.07 3369.36 1435.64 3366.89 1435.91C3365.92 1436.03 3364.67 1436.64 3363.15 1437.75C3361.63 1438.85 3360.51 1439.7 3359.78 1440.29C3359.22 1440.75 3358.45 1441.38 3357.48 1442.17C3356.66 1442.97 3355.79 1443.81 3354.89 1444.68C3353.99 1445.55 3353.12 1446.39 3352.3 1447.19C3351.54 1448.08 3351.02 1448.84 3350.73 1449.47C3350.21 1450.31 3349.95 1451.39 3349.96 1452.73C3350.05 1453.99 3350.25 1455.31 3350.55 1456.67C3350.86 1458.04 3351.28 1459.3 3351.83 1460.47C3352.44 1461.72 3353.05 1462.7 3353.64 1463.43C3355.02 1465.13 3356.79 1465.97 3358.93 1465.97C3361.08 1465.97 3363.27 1465.53 3365.51 1464.64C3367.81 1463.84 3369.96 1462.77 3371.95 1461.42C3374.08 1460.08 3375.76 1458.92 3376.97 1457.93ZM3439.32 1544.06C3435.59 1546.73 3431.18 1549.25 3426.09 1551.61C3421.14 1554.01 3416.06 1555.6 3410.86 1556.38C3405.71 1557.24 3400.75 1557.02 3395.96 1555.71C3391.24 1554.48 3387.21 1551.54 3383.87 1546.88C3383.02 1545.7 3382.22 1544.41 3381.48 1543.02C3380.74 1541.62 3380.16 1540.18 3379.73 1538.7C3379.37 1537.29 3379.19 1535.88 3379.2 1534.46C3379.3 1532.99 3379.75 1531.57 3380.58 1530.21L3361.47 1542.17C3359.46 1543.48 3357.07 1545.07 3354.3 1546.92C3351.59 1548.87 3348.76 1550.38 3345.82 1551.46C3342.94 1552.63 3340.11 1553.05 3337.32 1552.74C3334.51 1552.58 3332.11 1551.1 3330.11 1548.3C3328.95 1546.7 3328.83 1544.73 3329.73 1542.42C3330.55 1540.17 3331.99 1537.79 3334.05 1535.29C3336.16 1532.88 3338.67 1530.38 3341.56 1527.8C3344.45 1525.22 3347.3 1522.85 3350.12 1520.7C3352.94 1518.55 3355.53 1516.63 3357.9 1514.93C3360.27 1513.23 3362.01 1511.99 3363.11 1511.2C3368.78 1507.14 3374.38 1503.06 3379.91 1498.97C3385.52 1494.82 3391.17 1490.71 3396.84 1486.65C3397.86 1485.92 3399.42 1484.8 3401.54 1483.28C3403.74 1481.7 3406.17 1480.09 3408.83 1478.44C3411.5 1476.79 3414.3 1475.16 3417.26 1473.56C3420.27 1472.04 3423.15 1470.88 3425.9 1470.06C3428.73 1469.18 3431.25 1468.85 3433.45 1469.07C3435.74 1469.22 3437.49 1470.15 3438.7 1471.84C3439.49 1472.94 3439.85 1474.16 3439.78 1475.49C3439.86 1476.84 3439.6 1478.18 3439.01 1479.5C3438.56 1480.85 3437.94 1482.13 3437.14 1483.34C3436.34 1484.55 3435.57 1485.62 3434.82 1486.54C3439.67 1487.04 3444.06 1488.44 3448.01 1490.73C3452.03 1493.11 3455.43 1496.25 3458.22 1500.15C3461.13 1504.21 3462.35 1508.33 3461.89 1512.51C3461.48 1516.77 3460.1 1520.84 3457.74 1524.7C3455.45 1528.66 3452.57 1532.32 3449.1 1535.71C3445.71 1539.03 3442.45 1541.81 3439.32 1544.06ZM3427.32 1525.17C3428.59 1524.26 3429.77 1523.22 3430.86 1522.06C3432.09 1520.92 3433.05 1519.65 3433.72 1518.27C3434.54 1516.92 3434.93 1515.49 3434.88 1513.98C3434.91 1512.42 3434.38 1510.88 3433.29 1509.36C3431.84 1507.32 3429.61 1505.65 3426.62 1504.33C3423.77 1503.04 3421.11 1502.45 3418.62 1502.57C3417.64 1502.63 3416.36 1503.16 3414.78 1504.17C3413.19 1505.18 3412.02 1505.95 3411.26 1506.5C3410.66 1506.92 3409.86 1507.5 3408.84 1508.23C3407.97 1508.98 3407.06 1509.76 3406.1 1510.58C3405.15 1511.39 3404.23 1512.17 3403.36 1512.92C3402.55 1513.76 3401.99 1514.49 3401.66 1515.11C3401.08 1515.91 3400.75 1516.97 3400.68 1518.3C3400.7 1519.57 3400.81 1520.9 3401.03 1522.28C3401.25 1523.66 3401.6 1524.95 3402.08 1526.15C3402.61 1527.43 3403.15 1528.45 3403.7 1529.22C3404.97 1530.99 3406.68 1531.95 3408.82 1532.08C3410.97 1532.21 3413.18 1531.9 3415.47 1531.16C3417.82 1530.5 3420.03 1529.56 3422.09 1528.33C3424.31 1527.13 3426.05 1526.08 3427.32 1525.17ZM3460.82 1623.51C3459.23 1624.51 3457.11 1625.73 3454.44 1627.16C3451.83 1628.68 3449.09 1629.91 3446.24 1630.85C3443.47 1631.73 3440.79 1632.07 3438.19 1631.86C3435.59 1631.65 3433.55 1630.35 3432.05 1627.97C3429.99 1624.71 3429.47 1621.53 3430.47 1618.44C3431.48 1615.34 3433.6 1612.84 3436.82 1610.93C3432.58 1609.66 3428.61 1607.67 3424.93 1604.94C3421.3 1602.3 3418.31 1599.14 3415.98 1595.43C3414.37 1592.88 3413.46 1590.07 3413.25 1587C3413.04 1583.93 3413.35 1580.9 3414.18 1577.92C3415.01 1574.93 3416.28 1572.16 3417.99 1569.61C3419.79 1566.99 3421.89 1564.94 3424.26 1563.44C3428.5 1560.77 3433 1559.72 3437.79 1560.28C3442.62 1560.92 3447.34 1562.44 3451.93 1564.85C3456.61 1567.19 3460.94 1570.06 3464.93 1573.46C3468.97 1576.95 3472.27 1580.23 3474.82 1583.3C3475.26 1583.02 3475.66 1582.77 3476.01 1582.55C3476.42 1582.41 3476.84 1582.21 3477.28 1581.93C3480.01 1580.21 3481.75 1578.07 3482.48 1575.52C3483.21 1572.97 3482.71 1570.32 3480.99 1567.59C3479.6 1565.39 3478.01 1563.74 3476.22 1562.66C3474.51 1561.51 3472.73 1560.54 3470.88 1559.74C3469.11 1558.89 3467.38 1558.01 3465.7 1557.1C3464.1 1556.13 3462.75 1554.77 3461.64 1553C3460.42 1551.06 3459.98 1549 3460.33 1546.81C3460.73 1544.71 3461.9 1543.05 3463.84 1541.83C3466.75 1540 3469.92 1539.17 3473.35 1539.35C3476.84 1539.61 3480.19 1540.52 3483.38 1542.08C3486.72 1543.67 3489.78 1545.68 3492.55 1548.12C3495.46 1550.6 3497.72 1553.11 3499.33 1555.67C3500.83 1558.05 3502.02 1560.62 3502.9 1563.39C3503.87 1566.1 3504.41 1568.9 3504.51 1571.8C3504.69 1574.63 3504.43 1577.44 3503.73 1580.23C3503.16 1583.05 3502.07 1585.71 3500.44 1588.21C3498.18 1591.85 3495.5 1595.32 3492.41 1598.62C3489.41 1601.87 3486.14 1604.98 3482.59 1607.95C3479.14 1610.86 3475.52 1613.63 3471.76 1616.25C3468.08 1618.82 3464.43 1621.24 3460.82 1623.51ZM3451.72 1599.69L3460.46 1593.63C3460.35 1593.46 3460.24 1593.28 3460.13 1593.11C3460.11 1592.87 3460.04 1592.67 3459.93 1592.49C3459.21 1591.35 3457.98 1590.09 3456.25 1588.71C3454.67 1587.37 3452.85 1586.24 3450.79 1585.32C3448.82 1584.35 3446.86 1583.67 3444.91 1583.31C3443.01 1583.03 3441.4 1583.3 3440.07 1584.13C3438.84 1584.91 3438.28 1585.88 3438.39 1587.04C3438.51 1588.2 3438.93 1589.35 3439.65 1590.5C3440.87 1592.43 3442.66 1594.2 3445.02 1595.79C3447.46 1597.33 3449.7 1598.63 3451.72 1599.69Z" fill="white"/>
</svg>
