<svg width="172" height="115" viewBox="0 0 172 115" fill="none" xmlns="http://www.w3.org/2000/svg">
<path d="M11.2348 63.2186C10.9769 63.663 10.8236 64.0841 10.775 64.4819C10.5964 65.3718 10.5123 66.2755 10.5226 67.193C10.5328 68.1106 10.6106 69.0283 10.7558 69.9463C10.8022 70.1556 10.8285 70.3716 10.8344 70.5942C10.8404 70.8169 10.8194 71.0259 10.7715 71.2214C10.6345 71.8281 10.3026 72.1845 9.77605 72.2906C9.51265 72.3773 9.2664 72.3798 9.03732 72.2981C8.80823 72.2163 8.58606 72.0874 8.3708 71.9112C8.22967 71.7555 8.10548 71.5831 7.9982 71.3938C7.91119 71.1979 7.81405 71.0053 7.70677 70.816C7.33846 70.0389 6.96002 69.2651 6.57144 68.4947C6.19646 67.6973 5.8552 66.9 5.54768 66.1029C5.32693 65.5692 5.1467 65.0221 5.007 64.4617C4.8673 63.9012 4.74786 63.3341 4.64868 62.7604C4.61531 62.659 4.60553 62.5612 4.61936 62.4668C4.62651 62.3521 4.62686 62.2509 4.62042 62.1632C4.63591 61.5966 4.89681 61.2636 5.40313 61.1641C5.61242 61.1177 5.82482 61.1488 6.04032 61.2575C6.25581 61.3662 6.41041 61.5286 6.50409 61.7448C6.72508 62.2111 6.9326 62.6706 7.12665 63.1232C7.34096 63.5692 7.5654 64.0119 7.79998 64.4512C7.84694 64.5256 7.89045 64.6236 7.9305 64.7452C7.96387 64.8465 8.02764 64.9378 8.1218 65.0191C8.20976 64.9452 8.25386 64.8745 8.2541 64.807C8.24766 64.7193 8.24456 64.6417 8.2448 64.5742C8.31392 64.1022 8.38638 63.6404 8.46217 63.1886C8.53129 62.7167 8.64416 62.2752 8.80077 61.8642C8.86894 61.6621 8.94045 61.47 9.0153 61.2882C9.08347 61.086 9.17858 60.8974 9.30063 60.7225C9.68727 60.1234 10.2012 59.7744 10.8424 59.6755C11.477 59.5563 12.0836 59.7271 12.6621 60.1878C12.9513 60.452 13.2066 60.7497 13.4281 61.081C13.6428 61.3921 13.8306 61.7233 13.9913 62.0747C14.2928 62.6492 14.5775 63.2405 14.8452 63.8486C15.1265 64.4298 15.4078 65.0109 15.6891 65.5921C15.8497 65.9435 16.0205 66.2915 16.2015 66.6362C16.396 66.9539 16.5736 67.2885 16.7343 67.6399C16.8215 67.7684 16.9122 67.8733 17.0064 67.9545C17.1006 68.0358 17.2352 68.1038 17.4105 68.1583C17.9094 68.2411 18.1579 68.5523 18.156 69.0919C18.1405 69.6586 17.9299 70.0761 17.5242 70.3445C17.1185 70.6129 16.6596 70.6518 16.1476 70.4611C15.9118 70.3591 15.7031 70.2369 15.5214 70.0946C15.3398 69.9523 15.1649 69.7965 14.9969 69.6273C14.4791 69.1465 14.0391 68.6289 13.6767 68.0744C13.3144 67.5199 12.9825 66.9217 12.6812 66.2798C12.4669 65.8338 12.2594 65.3743 12.0586 64.9013C11.8579 64.4284 11.6301 63.9756 11.3753 63.5429C11.362 63.5024 11.3385 63.4652 11.3049 63.4314C11.2848 63.3706 11.2615 63.2997 11.2348 63.2186ZM26.6464 59.624C27.1992 61.6431 27.0805 63.7373 26.2903 65.9069C26.154 66.3111 25.9638 66.6883 25.7197 67.0382C25.4689 67.3679 25.1609 67.6603 24.7957 67.9153C24.0656 68.358 23.2757 68.5172 22.4261 68.3927C22.1093 68.3174 21.7926 68.2084 21.4761 68.0656C21.1528 67.9025 20.8668 67.716 20.6179 67.506C19.8174 66.8488 19.1825 66.1146 18.7131 65.3034C18.237 64.472 17.8759 63.5802 17.6296 62.6281C17.437 61.7707 17.359 60.9204 17.3957 60.0772C17.4257 59.2138 17.6108 58.3779 17.9509 57.5696C18.2501 56.9095 18.7038 56.4118 19.3122 56.0767C19.5894 55.8955 19.863 55.8054 20.1328 55.8063C20.396 55.787 20.669 55.8318 20.952 55.9408C21.0328 55.9815 21.1171 55.9987 21.2048 55.9923C21.2859 55.9656 21.377 55.9355 21.4783 55.9021C22.0054 55.6611 22.5184 55.582 23.0173 55.6647C23.5365 55.7407 24.0316 55.9482 24.5027 56.2872C25.0343 56.6736 25.4576 57.1406 25.7728 57.6881C26.1015 58.2087 26.3927 58.854 26.6464 59.624ZM21.5796 58.7663C21.3567 58.8397 21.1337 58.9469 20.9106 59.0877C20.708 59.1545 20.5727 59.2552 20.5047 59.3899C20.4368 59.5246 20.3924 59.6965 20.3714 59.9055C20.3347 60.7487 20.4297 61.5484 20.6564 62.3048C20.9034 63.0545 21.2651 63.7776 21.7417 64.4742C21.97 64.7583 22.2727 65.0292 22.6496 65.2869C22.8381 65.382 22.9661 65.4297 23.0336 65.4299C23.1146 65.4032 23.2027 65.2956 23.2978 65.107C23.4201 64.8646 23.5323 64.6255 23.6343 64.3897C23.7499 64.127 23.8318 63.8642 23.8799 63.6013C23.9011 63.3248 23.919 63.0381 23.9335 62.7413C23.9683 62.4379 23.9727 62.1444 23.9468 61.861C23.9212 61.4426 23.8755 61.031 23.8094 60.6259C23.7367 60.2007 23.583 59.8021 23.3481 59.4302C23.1067 59.0381 22.8579 58.7944 22.6019 58.699C22.3459 58.6037 22.0051 58.6261 21.5796 58.7663ZM35.0016 62.8349C35.3541 62.337 35.5987 61.8521 35.7353 61.3803C35.9331 60.7536 36.1175 60.1201 36.2884 59.4798C36.4796 58.8329 36.6134 58.1823 36.6899 57.5282C36.6835 57.4405 36.6837 57.373 36.6906 57.3258C36.6909 57.2584 36.681 57.1942 36.6609 57.1335C36.541 56.7013 36.6974 56.3578 37.1301 56.1029C37.5827 55.9089 37.9839 55.9676 38.3336 56.2792C38.5019 56.381 38.6229 56.5096 38.6966 56.665C38.7838 56.7935 38.8575 56.9489 38.9176 57.1313C39.1903 58.2319 39.2471 59.3587 39.0878 60.5117C38.8738 61.9075 38.3904 63.1673 37.6376 64.2913C37.4748 64.5471 37.2918 64.7758 37.0887 64.9775C36.9126 65.1927 36.6927 65.3775 36.429 65.5317C35.9625 65.8202 35.4393 65.9364 34.8593 65.8804C34.286 65.8446 33.774 65.6539 33.3232 65.3083C33.0407 65.0644 32.7751 64.8038 32.5265 64.5263C32.2712 64.2286 32.0361 63.9242 31.8214 63.6131C31.311 62.9501 30.8648 62.2436 30.4829 61.4934C30.101 60.7432 29.7293 59.9897 29.3676 59.2329C28.8317 58.1516 28.3297 57.0367 27.8615 55.8882C27.373 54.7464 26.9352 53.5879 26.5481 52.4127C26.4746 52.1898 26.411 52.0647 26.3571 52.0376C26.3032 52.0104 26.1614 52.0571 25.9316 52.1777C25.6882 52.3253 25.4482 52.483 25.2115 52.6508C24.9478 52.8051 24.6808 52.9492 24.4105 53.0831C24.0928 53.2777 23.7114 53.3472 23.2663 53.2916C22.8282 53.1889 22.5254 52.9517 22.3581 52.5801C22.184 52.1882 22.1921 51.8037 22.3824 51.4266C22.5859 51.09 22.8331 50.8176 23.1239 50.6095C23.4553 50.388 23.7866 50.1666 24.118 49.9451C24.4291 49.7303 24.7536 49.5223 25.0916 49.3211C25.3214 49.2005 25.46 49.1099 25.5075 49.0494C25.528 48.9752 25.505 48.8031 25.4385 48.533C25.2318 47.8375 25.0689 47.1386 24.95 46.4366C24.8041 45.721 24.7088 44.9887 24.6642 44.2397C24.6652 43.9699 24.656 43.7034 24.6367 43.4402C24.631 43.1501 24.6623 42.8702 24.7307 42.6006C24.7989 42.3985 24.8737 42.2166 24.9553 42.055C25.0301 41.8731 25.1352 41.7149 25.2706 41.5805C25.5688 41.1902 25.9877 41.0298 26.5271 41.0991C26.7765 41.1742 26.9548 41.3064 27.0621 41.4957C27.1896 41.6783 27.2698 41.8877 27.3027 42.1239C27.409 42.583 27.4748 43.0555 27.5001 43.5413C27.5187 44.0069 27.5845 44.4794 27.6975 44.9587C27.7838 45.3571 27.86 45.7587 27.926 46.1637C28.0123 46.5621 28.102 46.9705 28.1949 47.3891C28.255 47.5715 28.3019 47.6796 28.3355 47.7134C28.3827 47.7203 28.5076 47.6904 28.7102 47.6237C29.1154 47.4902 29.4971 47.3532 29.8551 47.2128C30.2132 47.0724 30.5847 46.9388 30.9697 46.812C31.6586 46.585 32.3228 46.6582 32.9624 47.0315C33.1174 47.0927 33.2486 47.1843 33.3561 47.3061C33.4772 47.4009 33.5712 47.516 33.6382 47.6511C33.7922 47.9822 33.7809 48.3229 33.6043 48.6731C33.421 49.003 33.1675 49.1539 32.8437 49.1258C32.8032 49.1391 32.7526 49.1558 32.6918 49.1758C32.6446 49.1689 32.5939 49.1856 32.5398 49.2259C32.1474 49.5348 31.7149 49.7559 31.2422 49.8892C30.7898 50.0158 30.3405 50.1862 29.8945 50.4005L29.469 50.5407C29.2259 50.6208 29.1444 50.7824 29.2245 51.0256C29.3918 51.3972 29.5389 51.7755 29.6657 52.1605C29.7859 52.5252 29.9195 52.8967 30.0666 53.275C30.4342 54.2545 30.8322 55.224 31.2606 56.1835C31.6889 57.143 32.1444 58.0823 32.6269 59.0015C32.8545 59.488 33.0923 59.9712 33.3403 60.4511C33.6018 60.904 33.8869 61.3603 34.1956 61.8202C34.2962 61.9892 34.4171 62.1515 34.5582 62.3072C34.6993 62.4628 34.8471 62.6388 35.0016 62.8349ZM42.7068 50.9303C42.7145 50.6807 42.7018 50.4378 42.6689 50.2016C42.6496 49.9384 42.6303 49.6752 42.611 49.412C42.5986 49.1017 42.6131 48.8049 42.6546 48.5217C42.6961 48.2385 42.7847 47.9622 42.9206 47.6928C43.1516 47.2349 43.4766 46.892 43.8957 46.6641C44.3148 46.4362 44.7804 46.3839 45.2927 46.5071C45.933 46.678 46.4782 47.0375 46.9283 47.5855C47.3583 48.0727 47.7241 48.6036 48.0257 49.1781C48.3475 49.7459 48.6491 50.3204 48.9303 50.9016C49.2915 51.7933 49.5886 52.695 49.8215 53.6066C50.0544 54.5181 50.267 55.4364 50.4594 56.3613C50.4926 56.53 50.5054 56.7055 50.498 56.8876C50.5042 57.0428 50.4699 57.2113 50.3951 57.3932C50.3472 57.5887 50.2353 57.7603 50.0593 57.9081C49.9037 58.0492 49.7213 58.1093 49.5123 58.0883C49.1411 58.1208 48.8585 57.9106 48.6644 57.458C48.3364 56.735 47.9983 56.0153 47.65 55.299C47.322 54.576 46.9838 53.8563 46.6355 53.14C46.4076 52.7209 46.2134 52.302 46.053 51.8831C45.8926 51.4643 45.6949 51.069 45.4601 50.6971C45.3791 50.7238 45.3384 50.7709 45.3382 50.8383C45.3313 50.8855 45.3244 50.9327 45.3175 50.9799C45.2121 52.1602 45.1945 53.3339 45.2646 54.5013C45.3483 55.6417 45.5264 56.7959 45.7989 57.964C45.8854 58.2948 45.9517 58.6324 45.9977 58.9766C46.064 59.3142 46.1303 59.6517 46.1965 59.9892C46.3088 60.671 46.0609 61.1457 45.4528 61.4135C45.2097 61.4936 44.9433 61.469 44.6537 61.3398C44.3707 61.2309 44.1622 61.0413 44.0283 60.7709C43.8607 60.4668 43.7065 60.1694 43.5659 59.8788C43.4455 59.5815 43.3218 59.2742 43.1947 58.9566C42.88 58.2742 42.5654 57.5917 42.2507 56.9092C41.9294 56.2065 41.6215 55.5105 41.3271 54.8214C40.9723 54.0173 40.6209 53.2234 40.2729 52.4396C39.9182 51.6356 39.587 50.835 39.2795 50.0379C38.9987 49.3218 38.7313 48.6125 38.4775 47.91C38.2236 47.2075 37.9765 46.4915 37.7362 45.7621C37.4825 44.9921 37.2255 44.212 36.9652 43.4218C36.7185 42.6046 36.5493 41.7844 36.4578 40.961C36.4182 40.7045 36.3921 40.4548 36.3794 40.2119C36.3804 39.942 36.4184 39.6824 36.4935 39.4331C36.5755 39.1366 36.718 38.8874 36.9211 38.6858C37.1445 38.4774 37.3944 38.3839 37.671 38.4051C38.2581 38.3464 38.6618 38.6514 38.8821 39.3201C39.3164 40.5022 39.6933 41.7145 40.0128 42.9569C40.3525 44.1926 40.7294 45.4049 41.1435 46.5937C41.404 47.3165 41.6443 48.0459 41.8644 48.782C42.1047 49.5115 42.345 50.2409 42.5853 50.9703L42.7068 50.9303ZM50.7827 42.4749C50.2819 42.9318 49.7486 43.0177 49.183 42.7323C48.9877 42.617 48.8265 42.4342 48.6992 42.1842C48.5719 41.9341 48.5188 41.6708 48.54 41.3943C48.5748 41.0909 48.7073 40.8114 48.9376 40.5558C49.1612 40.28 49.4148 40.0954 49.6985 40.0019C50.2861 39.8083 50.7713 39.9517 51.1542 40.4321C51.3356 40.6418 51.4292 40.8918 51.4349 41.1819C51.4542 41.445 51.3825 41.7045 51.2197 41.9603C51.1653 42.0681 51.0975 42.169 51.0162 42.2632C50.9485 42.3304 50.8707 42.401 50.7827 42.4749ZM56.1536 54.6876C56.3749 55.0864 56.3433 55.4337 56.0589 55.7295C55.7543 56.032 55.3762 56.1116 54.9247 55.9684C54.7159 55.88 54.5409 55.7579 54.3998 55.6022C54.2587 55.4466 54.1142 55.2808 53.9664 55.1049C53.8122 54.8412 53.6546 54.5675 53.4937 54.2835C53.353 53.993 53.2157 53.7125 53.0817 53.4422C52.6264 52.4691 52.1914 51.4894 51.7766 50.503C51.3753 49.4896 51.0484 48.4631 50.7957 47.4233C50.7425 47.1937 50.6995 46.9608 50.6666 46.7246C50.627 46.4681 50.6448 46.2152 50.7198 45.9658C50.7544 45.7298 50.8327 45.5243 50.9548 45.3494C51.0971 45.1677 51.2898 45.0368 51.5329 44.9567C52.0056 44.8235 52.4201 44.9565 52.7762 45.3558C53.0787 45.6604 53.3001 46.0255 53.4402 46.451L54.822 50.6452C54.8818 50.8951 54.9583 51.1955 55.0516 51.5467C55.1448 51.8978 55.2581 52.276 55.3916 52.6812C55.4984 53.0054 55.6086 53.3398 55.722 53.6842C55.8558 54.022 55.9996 54.3564 56.1536 54.6876ZM62.6421 46.2834C62.3842 46.7277 62.2309 47.1488 62.1823 47.5467C62.0038 48.4366 61.9196 49.3403 61.9299 50.2578C61.9402 51.1753 62.0179 52.0931 62.1631 53.0111C62.2096 53.2204 62.2358 53.4363 62.2418 53.659C62.2477 53.8816 62.2267 54.0907 62.1788 54.2862C62.0418 54.8928 61.71 55.2492 61.1834 55.3553C60.92 55.4421 60.6737 55.4446 60.4446 55.3628C60.2156 55.2811 59.9934 55.1521 59.7781 54.976C59.637 54.8203 59.5128 54.6478 59.4055 54.4586C59.3185 54.2626 59.2214 54.07 59.1141 53.8807C58.7458 53.1036 58.3673 52.3299 57.9788 51.5594C57.6038 50.762 57.2625 49.9648 56.955 49.1677C56.7343 48.6339 56.554 48.0868 56.4143 47.5264C56.2746 46.966 56.1552 46.3989 56.056 45.8251C56.0226 45.7238 56.0129 45.6259 56.0267 45.5315C56.0338 45.4169 56.0342 45.3157 56.0277 45.228C56.0432 44.6613 56.3041 44.3283 56.8105 44.2289C57.0197 44.1824 57.2321 44.2135 57.4476 44.3222C57.6631 44.4309 57.8177 44.5934 57.9114 44.8096C58.1324 45.2758 58.3399 45.7353 58.534 46.188C58.7483 46.634 58.9727 47.0767 59.2073 47.516C59.2543 47.5904 59.2978 47.6883 59.3378 47.8099C59.3712 47.9112 59.435 48.0025 59.5291 48.0838C59.6171 48.0099 59.6612 47.9392 59.6614 47.8718C59.655 47.784 59.6519 47.7065 59.6521 47.639C59.7212 47.167 59.7937 46.7051 59.8695 46.2534C59.9386 45.7814 60.0515 45.3399 60.2081 44.929C60.2763 44.7268 60.3478 44.5348 60.4226 44.3529C60.4908 44.1508 60.5859 43.9622 60.708 43.7872C61.0946 43.1882 61.6085 42.8392 62.2498 42.7402C62.8843 42.621 63.4909 42.7918 64.0695 43.2526C64.3586 43.5167 64.6139 43.8145 64.8354 44.1458C65.0502 44.4569 65.2379 44.7881 65.3986 45.1395C65.7001 45.714 65.9848 46.3053 66.2525 46.9134C66.5338 47.4945 66.8151 48.0757 67.0964 48.6569C67.2571 49.0082 67.4279 49.3563 67.6088 49.7009C67.8033 50.0187 67.9809 50.3533 68.1416 50.7046C68.2289 50.8331 68.3196 50.938 68.4137 51.0193C68.5079 51.1006 68.6426 51.1685 68.8178 51.2231C69.3167 51.3058 69.5652 51.617 69.5633 52.1567C69.5478 52.7233 69.3372 53.1409 68.9315 53.4093C68.5258 53.6777 68.0669 53.7166 67.5549 53.5259C67.3191 53.4239 67.1104 53.3017 66.9288 53.1594C66.7471 53.0171 66.5723 52.8613 66.4042 52.692C65.8864 52.2112 65.4464 51.6936 65.084 51.1391C64.7217 50.5847 64.3898 49.9865 64.0885 49.3445C63.8742 48.8985 63.6667 48.439 63.466 47.9661C63.2652 47.4932 63.0375 47.0404 62.7826 46.6077C62.7693 46.5672 62.7458 46.53 62.7122 46.4961C62.6922 46.4354 62.6688 46.3644 62.6421 46.2834ZM75.2904 45.9238C75.2694 46.1328 75.2383 46.3452 75.1971 46.561C75.1761 46.77 75.145 46.9824 75.1038 47.1982C75.0826 47.4747 75.031 47.7612 74.949 48.0578C74.867 48.3543 74.7547 48.6271 74.6122 48.8762C74.2591 49.5092 73.7753 49.9156 73.1608 50.0956C72.5463 50.2756 71.9192 50.1789 71.2796 49.8056C70.9228 49.6087 70.6032 49.3546 70.321 49.0433C70.0523 48.7051 69.8039 48.3601 69.5758 48.0085C68.529 46.3992 68.0495 44.6368 68.1372 42.7212C68.1596 42.1073 68.2426 41.5072 68.3864 40.9208C68.5504 40.3277 68.8289 39.7755 69.222 39.2642C69.6151 38.7528 70.0616 38.3699 70.5618 38.1153C71.0552 37.8404 71.6223 37.721 72.2631 37.7569C72.4385 37.7441 72.5904 37.7277 72.7186 37.7079C72.8671 37.6815 72.999 37.6044 73.1141 37.4766C73.4659 37.181 73.8744 37.0914 74.3395 37.2077C74.8181 37.2971 75.1681 37.5412 75.3893 37.94C75.6844 38.4267 75.939 38.9268 76.1531 39.4403C76.3672 39.9538 76.5711 40.4706 76.7649 40.9907C77.1995 42.1054 77.6172 43.2368 78.0179 44.3851C78.412 45.5131 78.7757 46.6511 79.1089 47.7992C79.2689 48.3529 79.4119 48.9235 79.5381 49.5108C79.6778 50.0713 79.7465 50.6551 79.7444 51.2622C79.769 51.9504 79.7059 52.6113 79.5553 53.2449C79.4316 53.8921 79.2068 54.5053 78.8809 55.0843C78.623 55.5286 78.2777 55.8782 77.8451 56.1331C77.2975 56.4482 76.6868 56.5034 76.0129 56.2987C75.3593 56.0872 74.885 55.7044 74.5901 55.1502C74.4294 54.7988 74.4541 54.4987 74.6641 54.2498C74.7454 54.1556 74.8435 54.0784 74.9584 54.0181C75.0935 53.9511 75.2454 53.9348 75.4139 53.9691C75.5555 53.9898 75.6769 54.0172 75.7779 54.0513C75.8857 54.1057 75.9968 54.1702 76.1112 54.2448C76.3403 54.3265 76.5126 54.2361 76.6282 53.9734C76.833 53.2995 76.9062 52.6352 76.8477 51.9806C76.7569 50.9549 76.5682 49.9389 76.2817 48.9327C75.9884 47.9063 75.658 46.9033 75.2904 45.9238ZM72.5346 46.8653C72.6839 46.6365 72.7758 46.404 72.8103 46.168C72.8585 45.9051 72.8999 45.6219 72.9347 45.3185C72.9776 44.6305 72.9733 43.9356 72.9218 43.2338C72.8839 42.5051 72.8021 41.7796 72.6765 41.0573C72.5837 40.5713 72.3379 40.4726 71.9388 40.7613C71.7224 40.9224 71.553 41.1242 71.4307 41.3666C71.3287 41.6024 71.2571 41.8281 71.2158 42.0439C71.1746 42.2596 71.14 42.4956 71.1122 42.7519C71.0764 43.3252 71.1385 43.8887 71.2985 44.4424C71.4584 44.9962 71.6589 45.5366 71.8999 46.0637C71.9939 46.2124 72.0777 46.3645 72.1513 46.5199C72.2386 46.6484 72.3663 46.7635 72.5346 46.8653ZM89.4274 37.5268C89.4281 37.3244 89.4288 37.122 89.4295 36.9197C89.4303 36.7173 89.4444 36.5217 89.4721 36.3329C89.5433 35.2537 89.8201 34.2529 90.3023 33.3304C90.4651 33.0746 90.6278 32.8525 90.7904 32.6642C90.9732 32.4692 91.1963 32.3283 91.4597 32.2415C91.9055 32.0947 92.2968 32.0893 92.6336 32.2254C92.9705 32.3615 93.2868 32.5718 93.5826 32.8562C93.744 33.0051 93.8784 33.1743 93.9856 33.3635C94.0929 33.5528 94.2103 33.7388 94.3378 33.9213C94.4394 33.8205 94.4971 33.7229 94.5109 33.6285C94.5181 33.5138 94.5184 33.4126 94.512 33.3249C94.5811 32.8529 94.667 32.3979 94.7698 31.9597C94.8928 31.5149 95.0663 31.0871 95.2904 30.6764C95.7111 29.9763 96.2727 29.4992 96.9752 29.2454C97.6777 28.9915 98.4192 29.1627 99.1996 29.7591C99.6101 30.0507 99.9463 30.3892 100.208 30.7746C100.47 31.1601 100.711 31.5522 100.932 31.951C101.361 32.7756 101.736 33.6067 102.057 34.4443C102.378 35.282 102.631 36.1531 102.817 37.0578C102.869 37.4897 102.952 37.9117 103.065 38.3236C103.172 38.7152 103.272 39.1204 103.365 39.539C103.411 39.7483 103.508 39.9746 103.656 40.218C103.77 40.4275 103.799 40.6536 103.745 40.8963C103.71 41.1323 103.591 41.3174 103.388 41.4516C103.213 41.5994 103.013 41.6763 102.791 41.6822C102.582 41.6613 102.373 41.5728 102.164 41.4169C101.949 41.1733 101.768 40.9298 101.62 40.6864C101.332 40.085 101.034 39.4869 100.726 38.8922C100.418 38.2974 100.113 37.7128 99.8112 37.1383C99.6372 36.7464 99.4733 36.3512 99.3195 35.9526C99.186 35.5474 99.0525 35.1421 98.919 34.7369C98.7853 34.3991 98.6346 34.0781 98.4671 33.774C98.2995 33.4698 98.1387 33.1521 97.9847 32.821C97.931 32.7264 97.8673 32.6351 97.7934 32.5471C97.7397 32.4525 97.6489 32.3814 97.5209 32.3337C97.3314 32.5084 97.1856 32.7137 97.0836 32.9494C96.9749 33.1649 96.8762 33.4108 96.7876 33.6871C96.6576 34.1791 96.5479 34.6982 96.4583 35.2443C96.3822 35.7635 96.3298 36.2862 96.301 36.8123C96.306 37.3048 96.3143 37.8074 96.326 38.3201C96.3513 38.806 96.4002 39.2952 96.4727 39.788C96.5058 39.9567 96.5491 40.1222 96.6025 40.2843C96.6492 40.4261 96.6756 40.5746 96.6818 40.7298C96.8749 41.4523 96.6674 41.9474 96.0593 42.2151C95.5051 42.51 95.0132 42.3464 94.5836 41.7242C94.3689 41.4132 94.1845 41.0921 94.0305 40.761C93.8967 40.4232 93.7359 40.1055 93.5481 39.808C93.2937 39.2405 93.0528 38.6797 92.8254 38.1257C92.6182 37.565 92.4111 37.0044 92.2039 36.4437C92.1639 36.3221 92.1101 36.2612 92.0427 36.261C91.9411 36.3618 91.8901 36.4797 91.8896 36.6146C91.8825 36.7293 91.8753 36.8439 91.8682 36.9586C91.7249 39.3193 91.9867 41.6139 92.6535 43.8425C92.7002 43.9843 92.7435 44.1498 92.7833 44.3388C92.8231 44.5279 92.8191 44.7201 92.7712 44.9156C92.6346 45.3873 92.3569 45.7034 91.9381 45.8639C91.5259 46.0446 91.0977 46.006 90.6533 45.748C90.3639 45.5514 90.0985 45.257 89.857 44.8649C89.4477 44.236 89.0553 43.5904 88.6798 42.9279C88.3044 42.2655 87.9525 41.6065 87.6242 40.9509C87.2021 40.1467 86.8035 39.3458 86.4285 38.5485C86.0468 37.7308 85.7158 36.8965 85.4355 36.0455C85.3218 35.7685 85.225 35.4747 85.1451 35.1641C85.0652 34.8535 85.0292 34.5396 85.0371 34.2226C85.0853 33.9597 85.1941 33.7104 85.3636 33.4749C85.533 33.2394 85.7326 33.095 85.9621 33.0419C86.2255 32.9551 86.4751 32.9627 86.7109 33.0648C86.9669 33.1601 87.1788 33.3261 87.3466 33.5628C87.528 33.7726 87.6621 34.0092 87.7489 34.2726C87.8493 34.5091 87.9664 34.7625 88.1004 35.0328C88.4487 35.7491 88.8002 36.5093 89.1549 37.3134C89.1883 37.4147 89.2791 37.4858 89.4274 37.5268ZM103.585 25.0801C103.084 25.537 102.551 25.6229 101.985 25.3375C101.79 25.2222 101.629 25.0394 101.501 24.7894C101.374 24.5393 101.321 24.276 101.342 23.9995C101.377 23.6961 101.51 23.4166 101.74 23.161C101.964 22.8852 102.217 22.7006 102.501 22.6071C103.088 22.4135 103.574 22.5569 103.957 23.0372C104.138 23.247 104.232 23.497 104.237 23.7871C104.257 24.0502 104.185 24.3097 104.022 24.5655C103.968 24.6732 103.9 24.7742 103.819 24.8684C103.751 24.9356 103.673 25.0062 103.585 25.0801ZM108.956 37.2927C109.177 37.6916 109.146 38.0389 108.861 38.3347C108.557 38.6372 108.179 38.7168 107.727 38.5736C107.518 38.4852 107.343 38.3631 107.202 38.2074C107.061 38.0518 106.917 37.886 106.769 37.7101C106.614 37.4464 106.457 37.1727 106.296 36.8887C106.155 36.5982 106.018 36.3177 105.884 36.0474C105.429 35.0743 104.994 34.0946 104.579 33.1082C104.178 32.0948 103.851 31.0683 103.598 30.0285C103.545 29.7989 103.502 29.566 103.469 29.3298C103.429 29.0733 103.447 28.8204 103.522 28.571C103.557 28.335 103.635 28.1295 103.757 27.9546C103.899 27.7729 104.092 27.642 104.335 27.5619C104.808 27.4287 105.222 27.5617 105.579 27.961C105.881 28.2656 106.102 28.6307 106.243 29.0562L107.624 33.2504C107.684 33.5003 107.761 33.8007 107.854 34.1519C107.947 34.503 108.06 34.8812 108.194 35.2864C108.301 35.6106 108.411 35.945 108.524 36.2894C108.658 36.6272 108.802 36.9616 108.956 37.2927ZM116.607 34.8732C116.452 34.8794 116.297 34.8856 116.142 34.8918C116 34.8711 115.852 34.8638 115.697 34.87C112.594 34.7242 110.454 33.2392 109.276 30.4152C108.888 29.5098 108.746 28.6019 108.851 27.6916C108.955 26.7812 109.302 25.9256 109.892 25.1249C110.265 24.6203 110.698 24.2305 111.191 23.9556C111.685 23.6808 112.265 23.6019 112.933 23.7189C113.142 23.7399 113.351 23.7946 113.56 23.883C113.789 23.9648 113.984 24.0801 114.145 24.2291C115.753 25.4963 116.5 27.1484 116.384 29.1853C116.397 29.4283 116.312 29.6472 116.129 29.8422C115.967 30.0305 115.777 30.1378 115.561 30.164C115.082 30.277 114.715 30.0497 114.461 29.4822C114.367 29.1985 114.277 28.925 114.19 28.6616C114.117 28.3712 114.017 28.101 113.89 27.8509C113.796 27.6347 113.675 27.4387 113.527 27.2627C113.393 27.0599 113.225 26.8906 113.023 26.755C112.72 26.5853 112.477 26.6317 112.294 26.8941C112.118 27.1768 112.005 27.4834 111.957 27.8138C111.902 28.1239 111.887 28.4544 111.913 28.8053C112.039 29.5276 112.407 30.1698 113.019 30.7319C113.652 31.2873 114.301 31.6235 114.969 31.7406C115.373 31.8095 115.768 31.8479 116.152 31.856C116.53 31.8439 116.925 31.8149 117.337 31.7691C117.532 31.7496 117.721 31.7435 117.903 31.7509C118.106 31.7516 118.305 31.7422 118.501 31.7226C119.027 31.7515 119.461 31.9453 119.804 32.304C120.14 32.6425 120.327 33.0749 120.366 33.6013C120.432 34.0737 120.343 34.5524 120.098 35.0373C119.819 35.6907 119.453 36.2831 118.999 36.8144C118.545 37.3458 118.078 37.8703 117.597 38.3881C117.292 38.6906 116.981 38.9729 116.663 39.2348C116.372 39.5104 116.034 39.7453 115.648 39.9396C115.473 40.02 115.29 40.08 115.101 40.1199C114.933 40.153 114.75 40.1793 114.555 40.1989C113.995 40.2037 113.594 40.01 113.352 39.6179C113.118 39.246 113.014 38.8645 113.043 38.4733C113.051 38.1562 113.123 37.863 113.258 37.5937C113.374 37.3984 113.506 37.2538 113.655 37.1599C113.824 37.0593 114.006 37.033 114.201 37.0809C114.37 37.1152 114.501 37.1056 114.596 37.0519C114.691 36.9983 114.782 36.9345 114.87 36.8606C115.1 36.6051 115.334 36.3596 115.571 36.1244C115.828 35.8824 116.072 35.6336 116.302 35.3781C116.37 35.3109 116.434 35.2335 116.495 35.146C116.556 35.0585 116.594 34.9676 116.607 34.8732ZM126.639 31.5683C126.484 31.5745 126.329 31.5807 126.174 31.5869C126.032 31.5662 125.884 31.5589 125.729 31.5651C122.626 31.4193 120.486 29.9343 119.309 27.1103C118.92 26.2049 118.779 25.297 118.883 24.3866C118.987 23.4763 119.334 22.6207 119.924 21.82C120.297 21.3153 120.73 20.9256 121.224 20.6507C121.717 20.3759 122.297 20.2969 122.965 20.414C123.174 20.4349 123.383 20.4896 123.592 20.5781C123.821 20.6598 124.016 20.7752 124.177 20.9242C125.785 22.1914 126.532 23.8435 126.417 25.8804C126.429 26.1233 126.344 26.3423 126.161 26.5373C125.999 26.7256 125.809 26.8329 125.594 26.8591C125.114 26.9721 124.747 26.7448 124.493 26.1773C124.399 25.8936 124.309 25.62 124.223 25.3566C124.149 25.0663 124.049 24.7961 123.922 24.546C123.828 24.3298 123.707 24.1338 123.56 23.9578C123.425 23.755 123.257 23.5857 123.055 23.4501C122.752 23.2804 122.509 23.3267 122.326 23.5892C122.15 23.8719 122.038 24.1785 121.989 24.5089C121.934 24.819 121.919 25.1495 121.945 25.5004C122.071 26.2227 122.44 26.8649 123.052 27.427C123.684 27.9824 124.334 28.3186 125.001 28.4357C125.406 28.5045 125.8 28.543 126.185 28.5511C126.562 28.539 126.957 28.51 127.369 28.4642C127.565 28.4447 127.754 28.4386 127.936 28.446C128.138 28.4467 128.337 28.4373 128.533 28.4177C129.059 28.4465 129.493 28.6403 129.836 28.9991C130.172 29.3376 130.36 29.77 130.398 30.2963C130.464 30.7688 130.375 31.2475 130.13 31.7324C129.851 32.3858 129.485 32.9781 129.031 33.5095C128.577 34.0409 128.11 34.5654 127.629 35.0832C127.324 35.3857 127.013 35.6679 126.695 35.9299C126.404 36.2055 126.066 36.4404 125.681 36.6347C125.505 36.7151 125.323 36.7751 125.134 36.8149C124.965 36.8481 124.782 36.8744 124.587 36.894C124.027 36.8988 123.626 36.7051 123.385 36.3129C123.15 35.9411 123.047 35.5596 123.075 35.1684C123.083 34.8513 123.155 34.5581 123.291 34.2887C123.406 34.0935 123.538 33.9489 123.687 33.855C123.856 33.7544 124.038 33.7281 124.233 33.776C124.402 33.8103 124.534 33.8006 124.628 33.747C124.723 33.6934 124.814 33.6296 124.902 33.5557C125.132 33.3002 125.366 33.0547 125.603 32.8194C125.86 32.5775 126.104 32.3287 126.334 32.0732C126.402 32.006 126.466 31.9286 126.527 31.8411C126.588 31.7536 126.626 31.6627 126.639 31.5683ZM129.022 16.7004C128.521 17.1574 127.987 17.2432 127.422 16.9579C127.227 16.8425 127.065 16.6598 126.938 16.4098C126.811 16.1597 126.758 15.8964 126.779 15.6199C126.814 15.3164 126.946 15.0369 127.176 14.7814C127.4 14.5056 127.654 14.3209 127.937 14.2275C128.525 14.0339 129.01 14.1773 129.393 14.6576C129.574 14.8674 129.668 15.1173 129.674 15.4074C129.693 15.6706 129.621 15.9301 129.459 16.1859C129.404 16.2936 129.336 16.3946 129.255 16.4887C129.187 16.556 129.11 16.6265 129.022 16.7004ZM134.393 28.9131C134.614 29.3119 134.582 29.6593 134.298 29.9551C133.993 30.2576 133.615 30.3372 133.164 30.194C132.955 30.1055 132.78 29.9835 132.639 29.8278C132.498 29.6722 132.353 29.5064 132.205 29.3304C132.051 29.0668 131.893 28.793 131.733 28.5091C131.592 28.2185 131.455 27.9381 131.321 27.6678C130.865 26.6947 130.43 25.715 130.015 24.7286C129.614 23.7152 129.287 22.6886 129.035 21.6488C128.981 21.4193 128.938 21.1864 128.905 20.9501C128.866 20.6937 128.884 20.4407 128.959 20.1914C128.993 19.9554 129.072 19.7499 129.194 19.5749C129.336 19.3933 129.529 19.2624 129.772 19.1823C130.245 19.049 130.659 19.1821 131.015 19.5813C131.318 19.886 131.539 20.251 131.679 20.6766L133.061 24.8708C133.121 25.1206 133.197 25.4211 133.29 25.7723C133.384 26.1234 133.497 26.5016 133.63 26.9068C133.737 27.231 133.847 27.5653 133.961 27.9098C134.095 28.2476 134.239 28.582 134.393 28.9131ZM140.881 20.509C140.623 20.9533 140.47 21.3744 140.421 21.7723C140.243 22.6621 140.158 23.5658 140.169 24.4834C140.179 25.4009 140.257 26.3186 140.402 27.2366C140.448 27.4459 140.475 27.6619 140.481 27.8846C140.487 28.1072 140.466 28.3163 140.418 28.5117C140.281 29.1184 139.949 29.4748 139.422 29.5809C139.159 29.6677 138.913 29.6702 138.684 29.5884C138.454 29.5067 138.232 29.3777 138.017 29.2015C137.876 29.0459 137.752 28.8734 137.644 28.6841C137.557 28.4882 137.46 28.2956 137.353 28.1063C136.985 27.3292 136.606 26.5554 136.218 25.785C135.843 24.9876 135.501 24.1904 135.194 23.3932C134.973 22.8595 134.793 22.3124 134.653 21.752C134.513 21.1916 134.394 20.6245 134.295 20.0507C134.261 19.9494 134.252 19.8515 134.266 19.7571C134.273 19.6425 134.273 19.5413 134.267 19.4535C134.282 18.8869 134.543 18.5539 135.049 18.4545C135.259 18.408 135.471 18.4391 135.687 18.5478C135.902 18.6565 136.057 18.8189 136.15 19.0351C136.371 19.5014 136.579 19.9609 136.773 20.4136C136.987 20.8596 137.212 21.3022 137.446 21.7416C137.493 21.8159 137.537 21.9139 137.577 22.0355C137.61 22.1368 137.674 22.2281 137.768 22.3094C137.856 22.2355 137.9 22.1648 137.9 22.0973C137.894 22.0096 137.891 21.932 137.891 21.8646C137.96 21.3926 138.033 20.9307 138.108 20.479C138.177 20.007 138.29 19.5655 138.447 19.1545C138.515 18.9524 138.587 18.7604 138.661 18.5785C138.73 18.3763 138.825 18.1878 138.947 18.0128C139.333 17.4137 139.847 17.0647 140.489 16.9658C141.123 16.8466 141.73 17.0174 142.308 17.4782C142.597 17.7423 142.853 18.04 143.074 18.3714C143.289 18.6825 143.477 19.0137 143.637 19.365C143.939 19.9395 144.224 20.5308 144.491 21.1389C144.773 21.7201 145.054 22.3013 145.335 22.8824C145.496 23.2338 145.667 23.5818 145.848 23.9265C146.042 24.2443 146.22 24.5788 146.38 24.9302C146.468 25.0587 146.558 25.1636 146.653 25.2449C146.747 25.3262 146.881 25.3941 147.057 25.4487C147.556 25.5314 147.804 25.8426 147.802 26.3823C147.787 26.9489 147.576 27.3664 147.17 27.6349C146.765 27.9033 146.306 27.9421 145.794 27.7514C145.558 27.6494 145.349 27.5273 145.168 27.3849C144.986 27.2426 144.811 27.0869 144.643 26.9176C144.125 26.4368 143.685 25.9192 143.323 25.3647C142.961 24.8102 142.629 24.212 142.327 23.5701C142.113 23.1241 141.906 22.6646 141.705 22.1917C141.504 21.7187 141.276 21.2659 141.021 20.8333C141.008 20.7928 140.985 20.7556 140.951 20.7217C140.931 20.6609 140.908 20.59 140.881 20.509ZM153.529 20.1494C153.508 20.3584 153.477 20.5708 153.436 20.7865C153.415 20.9956 153.384 21.208 153.343 21.4237C153.321 21.7003 153.27 21.9868 153.188 22.2833C153.106 22.5799 152.994 22.8527 152.851 23.1018C152.498 23.7347 152.014 24.1412 151.4 24.3212C150.785 24.5012 150.158 24.4045 149.518 24.0312C149.162 23.8343 148.842 23.5802 148.56 23.2689C148.291 22.9306 148.043 22.5857 147.815 22.2341C146.768 20.6248 146.288 18.8624 146.376 16.9467C146.398 16.3329 146.481 15.7328 146.625 15.1464C146.789 14.5533 147.068 14.0011 147.461 13.4897C147.854 12.9784 148.301 12.5954 148.801 12.3408C149.294 12.066 149.861 11.9465 150.502 11.9825C150.677 11.9696 150.829 11.9533 150.957 11.9335C151.106 11.9071 151.238 11.8299 151.353 11.7022C151.705 11.4066 152.113 11.3169 152.578 11.4333C153.057 11.5226 153.407 11.7667 153.628 12.1655C153.923 12.6523 154.178 13.1524 154.392 13.6659C154.606 14.1794 154.81 14.6962 155.004 15.2163C155.438 16.331 155.856 17.4624 156.257 18.6107C156.651 19.7387 157.015 20.8767 157.348 22.0247C157.508 22.5785 157.651 23.1491 157.777 23.7364C157.917 24.2968 157.985 24.8806 157.983 25.4878C158.008 26.176 157.945 26.8369 157.794 27.4705C157.67 28.1177 157.446 28.7308 157.12 29.3099C156.862 29.7542 156.517 30.1038 156.084 30.3586C155.536 30.6738 154.926 30.729 154.252 30.5242C153.598 30.3128 153.124 29.93 152.829 29.3757C152.668 29.0244 152.693 28.7243 152.903 28.4754C152.984 28.3812 153.082 28.304 153.197 28.2437C153.332 28.1767 153.484 28.1604 153.653 28.1947C153.794 28.2154 153.916 28.2428 154.017 28.2769C154.125 28.3313 154.236 28.3957 154.35 28.4703C154.579 28.5521 154.751 28.4616 154.867 28.1989C155.072 27.525 155.145 26.8608 155.087 26.2062C154.996 25.1805 154.807 24.1645 154.521 23.1583C154.227 22.1318 153.897 21.1289 153.529 20.1494ZM150.774 21.0909C150.923 20.862 151.015 20.6296 151.049 20.3936C151.097 20.1307 151.139 19.8475 151.174 19.544C151.216 18.8561 151.212 18.1612 151.161 17.4594C151.123 16.7307 151.041 16.0052 150.915 15.2829C150.823 14.7968 150.577 14.6981 150.178 14.9868C149.961 15.148 149.792 15.3498 149.67 15.5922C149.568 15.828 149.496 16.0537 149.455 16.2694C149.413 16.4852 149.379 16.7212 149.351 16.9774C149.315 17.5507 149.377 18.1143 149.537 18.668C149.697 19.2218 149.898 19.7622 150.139 20.2892C150.233 20.438 150.317 20.5901 150.39 20.7455C150.477 20.874 150.605 20.9891 150.774 21.0909ZM23.1246 99.3106C22.8667 99.755 22.7135 100.176 22.6648 100.574C22.4863 101.464 22.4022 102.367 22.4124 103.285C22.4227 104.203 22.5004 105.12 22.6456 106.038C22.6921 106.248 22.7183 106.464 22.7243 106.686C22.7303 106.909 22.7093 107.118 22.6614 107.313C22.5243 107.92 22.1925 108.276 21.6659 108.383C21.4025 108.469 21.1563 108.472 20.9272 108.39C20.6981 108.308 20.4759 108.179 20.2607 108.003C20.1195 107.848 19.9953 107.675 19.8881 107.486C19.8011 107.29 19.7039 107.097 19.5966 106.908C19.2283 106.131 18.8499 105.357 18.4613 104.587C18.0863 103.789 17.7451 102.992 17.4375 102.195C17.2168 101.661 17.0366 101.114 16.8969 100.554C16.7572 99.9932 16.6377 99.4261 16.5386 98.8523C16.5052 98.751 16.4954 98.6532 16.5092 98.5588C16.5164 98.4441 16.5167 98.3429 16.5103 98.2552C16.5258 97.6886 16.7867 97.3555 17.293 97.2561C17.5023 97.2096 17.7147 97.2407 17.9302 97.3494C18.1457 97.4581 18.3003 97.6206 18.394 97.8368C18.615 98.3031 18.8225 98.7625 19.0165 99.2152C19.2308 99.6612 19.4553 100.104 19.6898 100.543C19.7368 100.618 19.7803 100.716 19.8204 100.837C19.8537 100.938 19.9175 101.03 20.0117 101.111C20.0996 101.037 20.1437 100.966 20.144 100.899C20.1375 100.811 20.1344 100.734 20.1347 100.666C20.2038 100.194 20.2762 99.7324 20.352 99.2806C20.4212 98.8086 20.534 98.3672 20.6906 97.9562C20.7588 97.754 20.8303 97.562 20.9052 97.3801C20.9733 97.178 21.0685 96.9894 21.1905 96.8145C21.5771 96.2154 22.0911 95.8664 22.7323 95.7675C23.3669 95.6483 23.9734 95.819 24.552 96.2798C24.8412 96.5439 25.0965 96.8417 25.3179 97.173C25.5327 97.4841 25.7205 97.8153 25.8811 98.1667C26.1827 98.7412 26.4673 99.3325 26.735 99.9406C27.0163 100.522 27.2976 101.103 27.5789 101.684C27.7396 102.035 27.9104 102.383 28.0914 102.728C28.2859 103.046 28.4635 103.38 28.6241 103.732C28.7114 103.86 28.8021 103.965 28.8963 104.047C28.9904 104.128 29.1251 104.196 29.3003 104.25C29.7993 104.333 30.0478 104.644 30.0459 105.184C30.0304 105.751 29.8198 106.168 29.4141 106.437C29.0084 106.705 28.5495 106.744 28.0374 106.553C27.8017 106.451 27.593 106.329 27.4113 106.187C27.2297 106.044 27.0548 105.889 26.8868 105.719C26.369 105.238 25.9289 104.721 25.5666 104.166C25.2042 103.612 24.8724 103.014 24.5711 102.372C24.3568 101.926 24.1492 101.466 23.9485 100.993C23.7478 100.52 23.52 100.068 23.2652 99.6349C23.2518 99.5944 23.2283 99.5572 23.1947 99.5234C23.1747 99.4626 23.1513 99.3917 23.1246 99.3106ZM38.5362 95.716C39.0891 97.735 38.9704 99.8293 38.1802 101.999C38.0439 102.403 37.8537 102.78 37.6096 103.13C37.3588 103.46 37.0508 103.752 36.6856 104.007C35.9555 104.45 35.1656 104.609 34.316 104.485C33.9992 104.409 33.6825 104.3 33.3659 104.158C33.0427 103.995 32.7566 103.808 32.5078 103.598C31.7073 102.941 31.0723 102.207 30.6029 101.395C30.1269 100.564 29.7657 99.6722 29.5195 98.7201C29.3268 97.8626 29.2489 97.0123 29.2856 96.1692C29.3156 95.3058 29.5007 94.4699 29.8408 93.6615C30.14 93.0015 30.5937 92.5038 31.2021 92.1687C31.4793 91.9875 31.7528 91.8974 32.0227 91.8983C32.2858 91.879 32.5589 91.9238 32.8419 92.0327C32.9227 92.0735 33.007 92.0907 33.0947 92.0842C33.1757 92.0575 33.2669 92.0275 33.3682 91.9941C33.8953 91.7531 34.4083 91.674 34.9072 91.7567C35.4264 91.8327 35.9215 92.0402 36.3925 92.3792C36.9241 92.7656 37.3475 93.2325 37.6627 93.7801C37.9914 94.3007 38.2826 94.946 38.5362 95.716ZM33.4695 94.8583C33.2466 94.9317 33.0236 95.0388 32.8005 95.1797C32.5978 95.2465 32.4626 95.3472 32.3946 95.4819C32.3267 95.6166 32.2822 95.7884 32.2613 95.9975C32.2246 96.8406 32.3196 97.6404 32.5463 98.3968C32.7933 99.1465 33.155 99.8696 33.6315 100.566C33.8599 100.85 34.1625 101.121 34.5394 101.379C34.728 101.474 34.856 101.522 34.9235 101.522C35.0045 101.495 35.0926 101.388 35.1877 101.199C35.31 100.957 35.4221 100.717 35.5242 100.482C35.6398 100.219 35.7216 99.9562 35.7698 99.6933C35.791 99.4167 35.8089 99.1301 35.8234 98.8333C35.8582 98.5299 35.8626 98.2364 35.8366 97.953C35.8111 97.5346 35.7653 97.1229 35.6993 96.7179C35.6266 96.2927 35.4728 95.8941 35.238 95.5222C34.9965 95.1301 34.7478 94.8864 34.4918 94.791C34.2357 94.6957 33.895 94.7181 33.4695 94.8583ZM46.8914 98.9269C47.244 98.4289 47.4886 97.9441 47.6252 97.4723C47.823 96.8456 48.0074 96.2121 48.1783 95.5718C48.3694 94.9249 48.5033 94.2743 48.5798 93.6202C48.5734 93.5325 48.5736 93.465 48.5805 93.4178C48.5807 93.3503 48.5708 93.2862 48.5508 93.2254C48.4309 92.7933 48.5873 92.4497 49.0199 92.1949C49.4726 92.0009 49.8738 92.0596 50.2235 92.3712C50.3918 92.473 50.5128 92.6016 50.5865 92.757C50.6737 92.8855 50.7474 93.0409 50.8074 93.2233C51.0802 94.3238 51.1369 95.4507 50.9777 96.6037C50.7637 97.9994 50.2803 99.2593 49.5275 100.383C49.3647 100.639 49.1817 100.868 48.9786 101.069C48.8025 101.285 48.5826 101.469 48.3189 101.624C47.8524 101.912 47.3292 102.028 46.7492 101.972C46.1759 101.937 45.6638 101.746 45.2131 101.4C44.9306 101.156 44.665 100.896 44.4164 100.618C44.1611 100.321 43.926 100.016 43.7112 99.7051C43.2008 99.0421 42.7547 98.3356 42.3728 97.5854C41.9909 96.8352 41.6191 96.0817 41.2575 95.3249C40.7216 94.2436 40.2196 93.1287 39.7514 91.9802C39.2629 90.8384 38.8251 89.6798 38.4379 88.5046C38.3645 88.2817 38.3009 88.1567 38.247 88.1295C38.1931 88.1024 38.0513 88.1491 37.8215 88.2697C37.5781 88.4173 37.3381 88.575 37.1013 88.7428C36.8377 88.897 36.5707 89.0411 36.3004 89.1751C35.9826 89.3696 35.6012 89.4391 35.1562 89.3836C34.718 89.2809 34.4153 89.0437 34.2479 88.6721C34.0739 88.2802 34.082 87.8957 34.2722 87.5185C34.4758 87.1819 34.723 86.9096 35.0138 86.7015C35.3452 86.48 35.6765 86.2586 36.0079 86.0371C36.3189 85.8223 36.6435 85.6143 36.9815 85.4131C37.2113 85.2925 37.3499 85.2019 37.3974 85.1414C37.4178 85.0672 37.3948 84.8951 37.3283 84.625C37.1216 83.9294 36.9588 83.2306 36.8398 82.5286C36.6939 81.813 36.5987 81.0807 36.5541 80.3317C36.5551 80.0618 36.5459 79.7953 36.5266 79.5322C36.5208 79.2421 36.5522 78.9622 36.6206 78.6926C36.6888 78.4904 36.7636 78.3086 36.8451 78.1469C36.92 77.9651 37.0251 77.8069 37.1605 77.6724C37.4587 77.2822 37.8775 77.1218 38.417 77.1911C38.6663 77.2662 38.8446 77.3984 38.9519 77.5877C39.0795 77.7703 39.1597 77.9797 39.1926 78.2159C39.2989 78.675 39.3647 79.1475 39.39 79.6333C39.4086 80.0989 39.4744 80.5713 39.5874 81.0507C39.6737 81.449 39.7499 81.8507 39.8159 82.2557C39.9022 82.654 39.9918 83.0625 40.0848 83.4811C40.1449 83.6635 40.1917 83.7716 40.2253 83.8054C40.2725 83.8123 40.3975 83.7824 40.6001 83.7157C41.0053 83.5822 41.387 83.4452 41.745 83.3048C42.1031 83.1644 42.4746 83.0308 42.8595 82.9039C43.5485 82.677 44.2127 82.7502 44.8523 83.1234C45.0072 83.1847 45.1385 83.2762 45.246 83.3981C45.3671 83.4929 45.4611 83.6079 45.5281 83.7431C45.6821 84.0742 45.6708 84.4149 45.4942 84.765C45.3108 85.095 45.0573 85.2459 44.7336 85.2177C44.6931 85.2311 44.6424 85.2478 44.5816 85.2678C44.5344 85.2609 44.4838 85.2776 44.4297 85.3179C44.0373 85.6268 43.6048 85.8479 43.1321 85.9812C42.6796 86.1078 42.2304 86.2782 41.7844 86.4925L41.3589 86.6327C41.1157 86.7128 41.0342 86.8744 41.1143 87.1176C41.2817 87.4892 41.4288 87.8675 41.5556 88.2525C41.6757 88.6172 41.8094 88.9887 41.9564 89.367C42.324 90.3465 42.722 91.316 43.1504 92.2755C43.5788 93.2349 44.0343 94.1743 44.5168 95.0935C44.7444 95.58 44.9822 96.0632 45.2301 96.543C45.4916 96.9959 45.7768 97.4523 46.0855 97.9122C46.1861 98.0812 46.3069 98.2435 46.448 98.3992C46.5892 98.5548 46.737 98.7307 46.8914 98.9269ZM54.5967 87.0223C54.6043 86.7727 54.5917 86.5298 54.5588 86.2935C54.5395 86.0304 54.5202 85.7672 54.5009 85.504C54.4885 85.1936 54.503 84.8969 54.5445 84.6137C54.5859 84.3305 54.6746 84.0542 54.8105 83.7848C55.0415 83.3269 55.3665 82.984 55.7856 82.7561C56.2046 82.5282 56.6703 82.4758 57.1826 82.5991C57.8229 82.77 58.3681 83.1294 58.8181 83.6775C59.2482 84.1647 59.614 84.6956 59.9155 85.2701C60.2374 85.8379 60.5389 86.4124 60.8202 86.9935C61.1814 87.8853 61.4784 88.787 61.7113 89.6985C61.9443 90.6101 62.1569 91.5283 62.3493 92.4532C62.3824 92.622 62.3953 92.7975 62.3879 92.9796C62.3941 93.1348 62.3598 93.3033 62.2849 93.4852C62.237 93.6807 62.1251 93.8523 61.9492 94.0001C61.7935 94.1412 61.6112 94.2013 61.4021 94.1803C61.031 94.2127 60.7484 94.0026 60.5543 93.5499C60.2263 92.8269 59.8881 92.1073 59.5398 91.391C59.2118 90.668 58.8737 89.9483 58.5254 89.232C58.2975 88.8129 58.1033 88.394 57.9429 87.9751C57.7824 87.5563 57.5848 87.1609 57.35 86.7891C57.269 86.8158 57.2283 86.8629 57.2281 86.9303C57.2212 86.9775 57.2142 87.0247 57.2073 87.0719C57.102 88.2521 57.0844 89.4259 57.1545 90.5933C57.2382 91.7337 57.4163 92.8879 57.6888 94.056C57.7753 94.3868 57.8416 94.7244 57.8876 95.0686C57.9539 95.4061 58.0201 95.7437 58.0864 96.0812C58.1987 96.763 57.9508 97.2377 57.3427 97.5054C57.0995 97.5855 56.8332 97.561 56.5435 97.4318C56.2606 97.3229 56.0521 97.1332 55.9181 96.8629C55.7505 96.5587 55.5964 96.2614 55.4558 95.9708C55.3354 95.6735 55.2117 95.3661 55.0846 95.0486C54.7699 94.3661 54.4552 93.6837 54.1406 93.0012C53.8192 92.2985 53.5113 91.6025 53.2169 90.9134C52.8622 90.1093 52.5108 89.3154 52.1628 88.5316C51.808 87.7276 51.4769 86.927 51.1694 86.1298C50.8886 85.4137 50.6212 84.7044 50.3673 84.0019C50.1134 83.2994 49.8663 82.5835 49.626 81.854C49.3724 81.0841 49.1154 80.304 48.8551 79.5138C48.6083 78.6966 48.4392 77.8763 48.3476 77.053C48.3081 76.7965 48.282 76.5468 48.2693 76.3039C48.2703 76.034 48.3083 75.7744 48.3834 75.5251C48.4654 75.2285 48.6079 74.9794 48.811 74.7777C49.0344 74.5694 49.2843 74.4758 49.5608 74.497C50.148 74.4384 50.5517 74.7434 50.7719 75.412C51.2063 76.5942 51.5832 77.8064 51.9026 79.0489C52.2424 80.2846 52.6193 81.4969 53.0333 82.6857C53.2939 83.4084 53.5342 84.1379 53.7542 84.874C53.9945 85.6034 54.2348 86.3329 54.4751 87.0623L54.5967 87.0223ZM62.6726 78.5668C62.1718 79.0238 61.6385 79.1096 61.0728 78.8243C60.8776 78.7089 60.7163 78.5262 60.589 78.2762C60.4617 78.0261 60.4087 77.7628 60.4299 77.4863C60.4647 77.1828 60.5972 76.9033 60.8275 76.6478C61.0511 76.372 61.3047 76.1874 61.5884 76.0939C62.176 75.9003 62.6612 76.0437 63.0441 76.524C63.2255 76.7338 63.319 76.9837 63.3248 77.2738C63.3441 77.537 63.2723 77.7965 63.1095 78.0523C63.0552 78.16 62.9874 78.261 62.9061 78.3551C62.8384 78.4224 62.7605 78.4929 62.6726 78.5668ZM68.0435 90.7795C68.2647 91.1783 68.2332 91.5257 67.9488 91.8215C67.6441 92.124 67.2661 92.2036 66.8146 92.0604C66.6057 91.9719 66.4308 91.8499 66.2897 91.6942C66.1485 91.5386 66.0041 91.3728 65.8563 91.1969C65.702 90.9332 65.5445 90.6594 65.3835 90.3755C65.2429 90.0849 65.1056 89.8045 64.9716 89.5342C64.5163 88.5611 64.0812 87.5814 63.6664 86.595C63.2652 85.5816 62.9383 84.5551 62.6856 83.5152C62.6324 83.2857 62.5894 83.0528 62.5565 82.8166C62.5169 82.5601 62.5346 82.3071 62.6097 82.0578C62.6443 81.8218 62.7226 81.6163 62.8446 81.4413C62.9869 81.2597 63.1797 81.1288 63.4228 81.0487C63.8955 80.9154 64.3099 81.0485 64.6661 81.4477C64.9686 81.7524 65.1899 82.1175 65.3301 82.543L66.7118 86.7372C66.7717 86.987 66.8482 87.2875 66.9414 87.6387C67.0346 87.9898 67.148 88.368 67.2815 88.7732C67.3883 89.0974 67.4984 89.4317 67.6119 89.7762C67.7456 90.114 67.8895 90.4484 68.0435 90.7795ZM74.532 82.3754C74.274 82.8197 74.1208 83.2408 74.0722 83.6387C73.8936 84.5285 73.8095 85.4322 73.8198 86.3498C73.83 87.2673 73.9078 88.1851 74.0529 89.1031C74.0994 89.3123 74.1257 89.5283 74.1316 89.751C74.1376 89.9736 74.1166 90.1827 74.0687 90.3781C73.9316 90.9848 73.5998 91.3412 73.0733 91.4473C72.8098 91.5341 72.5636 91.5366 72.3345 91.4548C72.1054 91.3731 71.8833 91.2441 71.668 91.0679C71.5269 90.9123 71.4027 90.7398 71.2954 90.5505C71.2084 90.3546 71.1112 90.162 71.004 89.9727C70.6357 89.1956 70.2572 88.4218 69.8686 87.6514C69.4937 86.854 69.1524 86.0568 68.8449 85.2596C68.6241 84.7259 68.4439 84.1788 68.3042 83.6184C68.1645 83.058 68.0451 82.4909 67.9459 81.9171C67.9125 81.8158 67.9027 81.7179 67.9166 81.6235C67.9237 81.5089 67.9241 81.4077 67.9176 81.3199C67.9331 80.7533 68.194 80.4203 68.7003 80.3209C68.9096 80.2744 69.122 80.3055 69.3375 80.4142C69.553 80.5229 69.7076 80.6853 69.8013 80.9016C70.0223 81.3678 70.2298 81.8273 70.4238 82.28C70.6382 82.726 70.8626 83.1686 71.0972 83.608C71.1441 83.6823 71.1876 83.7803 71.2277 83.9019C71.2611 84.0032 71.3248 84.0945 71.419 84.1758C71.507 84.1019 71.5511 84.0312 71.5513 83.9637C71.5449 83.876 71.5418 83.7984 71.542 83.731C71.6111 83.259 71.6836 82.7971 71.7594 82.3454C71.8285 81.8734 71.9414 81.4319 72.098 81.0209C72.1661 80.8188 72.2376 80.6268 72.3125 80.4449C72.3807 80.2427 72.4758 80.0542 72.5978 79.8792C72.9845 79.2802 73.4984 78.9312 74.1396 78.8322C74.7742 78.713 75.3808 78.8838 75.9593 79.3446C76.2485 79.6087 76.5038 79.9064 76.7253 80.2378C76.94 80.5489 77.1278 80.8801 77.2885 81.2314C77.59 81.8059 77.8746 82.3972 78.1424 83.0053C78.4237 83.5865 78.705 84.1677 78.9863 84.7488C79.1469 85.1002 79.3177 85.4482 79.4987 85.7929C79.6932 86.1107 79.8708 86.4452 80.0315 86.7966C80.1187 86.9251 80.2094 87.03 80.3036 87.1113C80.3978 87.1926 80.5324 87.2605 80.7076 87.3151C81.2066 87.3978 81.4551 87.709 81.4532 88.2487C81.4377 88.8153 81.2271 89.2328 80.8214 89.5013C80.4157 89.7697 79.9568 89.8085 79.4448 89.6179C79.209 89.5158 79.0003 89.3937 78.8186 89.2514C78.637 89.109 78.4621 88.9533 78.2941 88.784C77.7763 88.3032 77.3363 87.7856 76.9739 87.2311C76.6116 86.6767 76.2797 86.0784 75.9784 85.4365C75.7641 84.9905 75.5566 84.531 75.3558 84.0581C75.1551 83.5851 74.9273 83.1323 74.6725 82.6997C74.6591 82.6592 74.6357 82.622 74.6021 82.5881C74.582 82.5273 74.5587 82.4564 74.532 82.3754ZM87.1803 82.0158C87.1593 82.2248 87.1282 82.4372 87.087 82.653C87.066 82.862 87.0349 83.0744 86.9937 83.2901C86.9724 83.5667 86.9208 83.8532 86.8388 84.1497C86.7568 84.4463 86.6446 84.7191 86.502 84.9682C86.149 85.6011 85.6652 86.0076 85.0507 86.1876C84.4361 86.3676 83.8091 86.2709 83.1695 85.8976C82.8126 85.7007 82.4931 85.4466 82.2108 85.1353C81.9422 84.797 81.6938 84.4521 81.4656 84.1005C80.4189 82.4912 79.9394 80.7288 80.027 78.8131C80.0494 78.1993 80.1325 77.5992 80.2762 77.0128C80.4402 76.4197 80.7188 75.8675 81.1118 75.3561C81.5049 74.8448 81.9515 74.4618 82.4516 74.2072C82.9451 73.9324 83.5122 73.8129 84.1529 73.8489C84.3284 73.836 84.4802 73.8197 84.6085 73.7999C84.757 73.7735 84.8888 73.6963 85.004 73.5686C85.3558 73.273 85.7643 73.1833 86.2293 73.2997C86.708 73.389 87.058 73.6331 87.2792 74.0319C87.5743 74.5187 87.8289 75.0188 88.043 75.5323C88.2571 76.0458 88.461 76.5626 88.6548 77.0827C89.0894 78.1974 89.5071 79.3288 89.9078 80.4771C90.3019 81.6051 90.6655 82.7431 90.9988 83.8911C91.1588 84.4449 91.3018 85.0155 91.4279 85.6028C91.5676 86.1633 91.6364 86.747 91.6343 87.3542C91.6588 88.0424 91.5958 88.7033 91.4452 89.3369C91.3215 89.9841 91.0967 90.5972 90.7708 91.1763C90.5129 91.6206 90.1676 91.9702 89.735 92.225C89.1874 92.5402 88.5767 92.5954 87.9028 92.3906C87.2491 92.1792 86.7749 91.7964 86.48 91.2421C86.3193 90.8908 86.344 90.5907 86.554 90.3418C86.6353 90.2476 86.7334 90.1704 86.8483 90.1101C86.9834 90.0431 87.1353 90.0268 87.3038 90.0611C87.4454 90.0818 87.5667 90.1092 87.6678 90.1433C87.7756 90.1977 87.8866 90.2621 88.0011 90.3368C88.2301 90.4185 88.4025 90.328 88.5181 90.0653C88.7229 89.3914 88.796 88.7272 88.7376 88.0726C88.6468 87.0469 88.4581 86.0309 88.1715 85.0247C87.8783 83.9982 87.5479 82.9953 87.1803 82.0158ZM84.4245 82.9573C84.5737 82.7284 84.6656 82.496 84.7002 82.26C84.7483 81.9971 84.7898 81.7139 84.8246 81.4104C84.8675 80.7225 84.8632 80.0276 84.8117 79.3258C84.7738 78.5971 84.692 77.8716 84.5664 77.1493C84.4736 76.6632 84.2277 76.5645 83.8287 76.8532C83.6122 77.0144 83.4429 77.2162 83.3206 77.4586C83.2186 77.6944 83.1469 77.9201 83.1057 78.1358C83.0645 78.3516 83.0299 78.5876 83.002 78.8438C82.9663 79.4171 83.0284 79.9807 83.1883 80.5344C83.3483 81.0882 83.5488 81.6286 83.7898 82.1556C83.8837 82.3044 83.9675 82.4565 84.0412 82.6119C84.1284 82.7404 84.2562 82.8555 84.4245 82.9573ZM98.967 77.2231C98.6533 76.2708 98.4846 75.3156 98.461 74.3576C98.451 73.3726 98.5287 72.3812 98.6941 71.3833C98.7835 70.9047 98.9201 70.4329 99.1039 69.9681C99.2876 69.5032 99.5286 69.0757 99.8268 68.6854C100.234 68.1472 100.71 67.7542 101.258 67.5065C101.852 67.2657 102.443 67.2172 103.029 67.3609C103.616 67.5047 104.127 67.7966 104.564 68.2366C104.995 68.6564 105.266 69.2071 105.378 69.8889C105.418 70.0779 105.441 70.2838 105.447 70.5064C105.453 70.7291 105.435 70.9483 105.394 71.164C105.297 71.7573 105.143 72.3471 104.932 72.9333C104.735 73.4925 104.439 74.0278 104.046 74.5391C103.796 74.8688 103.514 75.1748 103.203 75.457C102.905 75.7123 102.551 75.8966 102.139 76.0099C101.997 76.0566 101.912 76.1069 101.885 76.1608C101.878 76.2079 101.898 76.3025 101.945 76.4443C102.031 76.7752 102.158 77.0927 102.326 77.3969C102.494 77.701 102.681 77.9985 102.89 78.2893C103.098 78.5127 103.259 78.628 103.374 78.6351C103.489 78.6423 103.651 78.5214 103.861 78.2725C104.179 77.9431 104.434 77.5561 104.624 77.1115C104.753 76.8893 104.889 76.6874 105.031 76.5057C105.167 76.3038 105.302 76.1019 105.438 75.9C105.492 75.7923 105.587 75.6712 105.723 75.5367C105.993 75.3353 106.256 75.2822 106.512 75.3776C106.782 75.446 106.97 75.6423 107.077 75.9665C107.124 76.1083 107.16 76.2535 107.187 76.402C107.213 76.5505 107.23 76.7024 107.236 76.8576C107.226 77.7143 107.072 78.5064 106.772 79.234C106.473 79.9615 105.951 80.5938 105.207 81.1309C104.152 81.8153 103.059 81.8722 101.928 81.3015C101.335 81.0026 100.858 80.6097 100.495 80.1226C100.132 79.6356 99.8037 79.115 99.5088 78.5608C99.4151 78.3446 99.3214 78.1284 99.2277 77.9122C99.1476 77.669 99.0607 77.4394 98.967 77.2231ZM102.999 70.3359C102.952 70.1941 102.902 70.0758 102.848 69.9812C102.788 69.8663 102.7 69.8053 102.586 69.7981C102.417 69.7638 102.251 69.8745 102.088 70.1303C102.021 70.1976 101.967 70.2716 101.926 70.3524C101.885 70.4332 101.837 70.5275 101.783 70.6352C101.627 71.0462 101.52 71.4742 101.465 71.9193C101.43 72.3576 101.405 72.7927 101.39 73.2244C101.335 73.3996 101.382 73.5077 101.53 73.5487C101.584 73.5759 101.641 73.5795 101.702 73.5594C101.776 73.5125 101.831 73.4722 101.864 73.4386C102.609 72.6316 103.001 71.6717 103.038 70.5587C103.045 70.5115 103.042 70.4676 103.029 70.4271C103.009 70.3663 102.999 70.3359 102.999 70.3359ZM114.329 75.9023C114.172 76.3132 114.056 76.7108 113.981 77.0951C113.898 77.4591 113.793 77.8197 113.663 78.1768C113.608 78.352 113.544 78.5305 113.469 78.7124C113.401 78.9146 113.309 79.1132 113.194 79.3085C112.834 79.7862 112.399 79.9972 111.886 79.9414C111.333 79.8315 111.011 79.4661 110.918 78.8451C110.892 78.6966 110.886 78.5414 110.9 78.3796C110.907 78.1974 110.918 78.0254 110.932 77.8636C111.118 76.6567 111.332 75.4971 111.572 74.3848C111.634 74.0274 111.544 73.7202 111.302 73.463C110.898 73.0568 110.519 72.6203 110.163 72.1536C109.82 71.6599 109.495 71.1831 109.186 70.7233C108.864 70.2904 108.565 69.8272 108.29 69.3338C107.834 68.5631 107.995 67.9262 108.773 67.4229C108.962 67.3157 109.195 67.2726 109.471 67.2938C109.748 67.3151 110.004 67.4104 110.24 67.5799C110.388 67.6884 110.505 67.8068 110.592 67.9353C110.7 68.0571 110.801 68.1924 110.895 68.3411C111.103 68.632 111.324 68.9296 111.559 69.234C111.815 69.5317 112.07 69.8294 112.325 70.1272C112.447 70.0871 112.511 70.0435 112.518 69.9963C112.518 69.9288 112.515 69.8513 112.509 69.7635C112.639 69.204 112.759 68.6479 112.869 68.0951C112.999 67.5356 113.122 66.9896 113.239 66.4571C113.328 65.9784 113.478 65.5472 113.689 65.1634C113.892 64.7593 114.14 64.3858 114.431 64.0427C114.574 63.8611 114.716 63.7132 114.858 63.599C115.02 63.4781 115.206 63.3944 115.415 63.348C115.787 63.2481 116.103 63.3234 116.366 63.5739C116.648 63.8178 116.755 64.1082 116.686 64.4453C116.282 66.2856 115.911 68.126 115.574 69.9666C115.485 70.3778 115.396 70.789 115.307 71.2002C115.238 71.6047 115.159 72.0126 115.07 72.4238C114.995 72.6731 115.044 72.8926 115.219 73.0821C115.67 73.4952 116.124 73.8847 116.581 74.2506C117.059 74.6098 117.547 74.9657 118.045 75.3183C118.213 75.4875 118.415 75.5894 118.651 75.624C119.149 75.7742 119.398 76.0854 119.396 76.5576C119.416 76.7533 119.354 76.942 119.212 77.1236C119.09 77.2986 118.921 77.4329 118.705 77.5266C118.509 77.6136 118.316 77.6433 118.128 77.6157C117.946 77.6083 117.753 77.5705 117.551 77.5023C117.154 77.3862 116.77 77.2432 116.399 77.0733C116.042 76.8764 115.675 76.6828 115.298 76.4926C115.13 76.3908 114.965 76.2991 114.803 76.2176C114.655 76.1092 114.497 76.004 114.329 75.9023ZM127.238 72.4583C127.59 71.9603 127.835 71.4754 127.971 71.0037C128.169 70.377 128.354 69.7435 128.524 69.1032C128.716 68.4562 128.849 67.8057 128.926 67.1515C128.92 67.0638 128.92 66.9964 128.927 66.9492C128.927 66.8817 128.917 66.8176 128.897 66.7568C128.777 66.3246 128.933 65.9811 129.366 65.7263C129.819 65.5322 130.22 65.591 130.57 65.9025C130.738 66.0043 130.859 66.1329 130.933 66.2883C131.02 66.4168 131.094 66.5722 131.154 66.7546C131.426 67.8552 131.483 68.982 131.324 70.1351C131.11 71.5308 130.626 72.7906 129.874 73.9146C129.711 74.1704 129.528 74.3991 129.325 74.6008C129.149 74.816 128.929 75.0008 128.665 75.155C128.199 75.4435 127.675 75.5597 127.095 75.5037C126.522 75.4679 126.01 75.2773 125.559 74.9316C125.277 74.6878 125.011 74.4271 124.763 74.1496C124.507 73.8519 124.272 73.5475 124.057 73.2364C123.547 72.5735 123.101 71.8669 122.719 71.1167C122.337 70.3666 121.965 69.6131 121.604 68.8562C121.068 67.7749 120.566 66.66 120.098 65.5115C119.609 64.3697 119.171 63.2112 118.784 62.036C118.711 61.8131 118.647 61.6881 118.593 61.6609C118.539 61.6337 118.397 61.6804 118.168 61.8011C117.924 61.9486 117.684 62.1063 117.448 62.2741C117.184 62.4284 116.917 62.5725 116.647 62.7065C116.329 62.901 115.947 62.9705 115.502 62.9149C115.064 62.8122 114.761 62.575 114.594 62.2034C114.42 61.8115 114.428 61.427 114.618 61.0499C114.822 60.7133 115.069 60.4409 115.36 60.2328C115.691 60.0114 116.023 59.7899 116.354 59.5684C116.665 59.3536 116.99 59.1457 117.328 58.9445C117.558 58.8238 117.696 58.7332 117.744 58.6727C117.764 58.5986 117.741 58.4265 117.675 58.1564C117.468 57.4608 117.305 56.762 117.186 56.0599C117.04 55.3443 116.945 54.612 116.9 53.863C116.901 53.5932 116.892 53.3267 116.873 53.0635C116.867 52.7734 116.898 52.4935 116.967 52.2239C117.035 52.0218 117.11 51.8399 117.191 51.6783C117.266 51.4964 117.371 51.3382 117.507 51.2038C117.805 50.8135 118.224 50.6531 118.763 50.7225C119.013 50.7976 119.191 50.9297 119.298 51.119C119.426 51.3016 119.506 51.511 119.539 51.7473C119.645 52.2064 119.711 52.6788 119.736 53.1647C119.755 53.6302 119.821 54.1027 119.934 54.5821C120.02 54.9804 120.096 55.3821 120.162 55.7871C120.248 56.1854 120.338 56.5939 120.431 57.0125C120.491 57.1948 120.538 57.3029 120.572 57.3368C120.619 57.3437 120.744 57.3138 120.946 57.247C121.352 57.1135 121.733 56.9765 122.091 56.8361C122.449 56.6957 122.821 56.5621 123.206 56.4353C123.895 56.2083 124.559 56.2815 125.198 56.6548C125.353 56.7161 125.485 56.8076 125.592 56.9294C125.713 57.0243 125.807 57.1393 125.874 57.2744C126.028 57.6056 126.017 57.9462 125.84 58.2964C125.657 58.6263 125.404 58.7772 125.08 58.7491C125.039 58.7624 124.989 58.7791 124.928 58.7991C124.881 58.7922 124.83 58.8089 124.776 58.8492C124.384 59.1582 123.951 59.3793 123.478 59.5125C123.026 59.6391 122.577 59.8096 122.131 60.0239L121.705 60.164C121.462 60.2441 121.38 60.4058 121.461 60.6489C121.628 61.0205 121.775 61.3989 121.902 61.7838C122.022 62.1486 122.156 62.5201 122.303 62.8984C122.67 63.8779 123.068 64.8474 123.497 65.8068C123.925 66.7663 124.38 67.7056 124.863 68.6248C125.091 69.1113 125.328 69.5945 125.576 70.0744C125.838 70.5273 126.123 70.9837 126.432 71.4435C126.532 71.6125 126.653 71.7748 126.794 71.9305C126.935 72.0862 127.083 72.2621 127.238 72.4583ZM134.245 60.6488C134.353 60.5008 134.411 60.3694 134.418 60.2547C134.419 60.1198 134.426 60.0052 134.44 59.9108C134.509 59.5062 134.615 59.1119 134.758 58.7279C134.894 58.3236 135.101 57.9634 135.379 57.6473C135.751 57.2101 136.154 56.8978 136.586 56.7105C137.032 56.4962 137.535 56.4541 138.094 56.5842C138.499 56.6531 138.842 56.8432 139.125 57.1545C139.427 57.4592 139.598 57.8072 139.637 58.1986C139.703 58.6036 139.624 58.9103 139.401 59.1187C139.178 59.327 138.86 59.3866 138.449 59.2975C138.233 59.2562 138.065 59.2556 137.943 59.2957C137.822 59.3357 137.707 59.4635 137.598 59.679C137.543 59.7867 137.496 59.9148 137.455 60.063C137.434 60.2046 137.4 60.3394 137.352 60.4674C137.317 60.8384 137.302 61.2026 137.308 61.5602C137.307 61.8975 137.309 62.2449 137.314 62.6025C137.339 63.2907 137.377 63.9857 137.428 64.6875C137.494 65.3623 137.582 66.0406 137.694 66.7224C137.787 67.141 137.88 67.5596 137.973 67.9782C138.066 68.3968 138.18 68.8087 138.313 69.2139C138.36 69.3558 138.4 69.5111 138.433 69.6799C138.486 69.8419 138.509 70.0141 138.502 70.1962C138.5 70.8708 138.184 71.3116 137.556 71.5185C136.948 71.7862 136.409 71.6831 135.938 71.2092C135.804 71.0738 135.686 70.9216 135.586 70.7526C135.505 70.5769 135.421 70.4248 135.334 70.2964C134.912 69.4921 134.513 68.6912 134.138 67.8939C133.757 67.0762 133.375 66.2586 132.994 65.441C132.639 64.6369 132.311 63.8127 132.01 62.9684C131.703 62.1038 131.416 61.2325 131.149 60.3546C130.963 59.7872 131.038 59.3018 131.377 58.8982C131.668 58.5551 132.033 58.4013 132.472 58.4365C132.903 58.4515 133.247 58.6416 133.502 59.0068C133.73 59.291 133.898 59.5952 134.005 59.9194C134.018 60.0273 134.044 60.1421 134.084 60.2637C134.145 60.3786 134.198 60.507 134.245 60.6488ZM150.516 63.6779C150.407 63.8259 150.339 63.9944 150.312 64.1832C150.297 64.345 150.256 64.4933 150.189 64.628C150.086 64.9987 149.957 65.3558 149.8 65.6993C149.637 66.0225 149.407 66.3118 149.109 66.5671C148.628 67.0174 148.058 67.2279 147.397 67.1986C146.749 67.1424 146.217 66.8571 145.801 66.343C144.981 65.3551 144.492 64.3145 144.334 63.221C144.197 62.1209 144.339 60.9847 144.761 59.8123C145 59.1723 145.359 58.6608 145.839 58.278C146.333 57.8682 146.938 57.6241 147.653 57.5456C147.694 57.5323 147.727 57.5324 147.754 57.546C147.795 57.5326 147.835 57.5193 147.876 57.5059C147.904 57.3171 147.877 57.1686 147.797 57.0604C147.709 56.9319 147.632 56.8001 147.565 56.6649C147.337 56.2459 147.096 55.8537 146.841 55.4886C146.606 55.1167 146.344 54.765 146.055 54.4334C145.638 53.9867 145.322 53.7764 145.106 53.8026C144.91 53.8222 144.66 54.0844 144.355 54.5893C143.873 55.3769 143.519 56.2459 143.293 57.1964C143.198 57.4524 143.183 57.6817 143.25 57.8843C143.397 58.3301 143.278 58.6839 142.892 58.9456C142.764 59.0329 142.585 59.0693 142.355 59.055C142.126 59.0407 141.927 58.9827 141.759 58.8809C141.362 58.5624 141.124 58.1467 141.045 57.6337C140.972 57.141 140.961 56.662 141.01 56.1966C141.052 55.7111 141.144 55.2425 141.288 54.791C141.438 54.2923 141.622 53.8275 141.839 53.3965C142.05 52.9452 142.314 52.5212 142.633 52.1243C143.148 51.5054 143.79 51.1029 144.56 50.9167C145.343 50.7036 146.139 50.8346 146.947 51.3096C147.297 51.4863 147.596 51.7133 147.845 51.9908C148.107 52.2413 148.366 52.5154 148.621 52.8132C149.051 53.3679 149.443 53.9461 149.799 54.5477C150.175 55.1427 150.513 55.7612 150.814 56.4031C151.216 57.2816 151.604 58.1532 151.979 59.018C152.354 59.8829 152.722 60.7612 153.083 61.6529C153.317 62.1597 153.494 62.6967 153.614 63.2638C153.773 63.885 153.664 64.4041 153.284 64.821C152.898 65.2177 152.399 65.3374 151.785 65.18C151.536 65.1049 151.338 64.9794 151.19 64.8035C151.042 64.6276 150.911 64.4349 150.797 64.2253C150.743 64.1307 150.703 64.0429 150.677 63.9618C150.643 63.8605 150.59 63.7659 150.516 63.6779ZM147.702 63.8299C147.913 63.3787 148.117 62.9409 148.314 62.5166C148.504 62.072 148.644 61.6104 148.733 61.1317C148.754 60.9901 148.697 60.8516 148.563 60.7162C148.442 60.5539 148.297 60.4555 148.129 60.4212C147.954 60.3666 147.839 60.3932 147.784 60.5009C147.744 60.5818 147.679 60.6591 147.591 60.733C147.584 60.7802 147.567 60.8308 147.54 60.8846C147.513 60.9385 147.496 60.989 147.489 61.0362C147.353 61.508 147.294 61.9766 147.312 62.4422C147.324 62.8875 147.454 63.3501 147.702 63.8299Z" fill="#9C7346"/>
</svg>
