<svg width="108" height="108" viewBox="0 0 108 108" fill="none" xmlns="http://www.w3.org/2000/svg">
<path fill-rule="evenodd" clip-rule="evenodd" d="M54 3.375C26.0584 3.375 3.375 26.0584 3.375 54C3.375 81.9416 26.0584 104.625 54 104.625C81.9416 104.625 104.625 81.9416 104.625 54C104.625 26.0584 81.9416 3.375 54 3.375ZM54 10.125C78.2156 10.125 97.875 29.7844 97.875 54C97.875 78.2156 78.2156 97.875 54 97.875C29.7844 97.875 10.125 78.2156 10.125 54C10.125 29.7844 29.7844 10.125 54 10.125ZM33.3112 50.625H33.2674C32.481 50.625 31.698 50.6959 30.9251 50.8342C29.7202 51.0536 28.5457 51.4485 27.4489 51.9952C25.92 52.7614 24.5464 53.8312 23.4259 55.1273C22.0421 56.7202 21.06 58.6474 20.5841 60.7061C20.4255 61.3946 20.3209 62.1 20.277 62.8088C20.2635 63.0146 20.2534 63.2239 20.25 63.4331C20.25 63.5816 20.25 63.7301 20.2567 63.882C20.2466 64.0575 20.2466 64.2364 20.2635 64.4186C20.4052 66.0555 20.9014 67.635 21.8194 69.1436C28.0294 80.9122 40.3549 88.9313 54.5333 88.9313C68.7454 88.9313 81.1013 80.8684 87.2944 69.0525C88.1584 67.4055 87.5205 65.3636 85.8701 64.4963C84.2197 63.6323 82.1779 64.2701 81.3139 65.9205C76.2514 75.5797 66.1534 82.1813 54.5333 82.1813C49.0961 82.1813 43.9965 80.7367 39.5854 78.2122C41.2088 76.0489 43.0279 73.2206 44.3306 70.5105C45.5287 68.013 46.2611 65.5729 46.2848 63.693V63.6019C46.2814 62.937 46.2307 62.2755 46.1295 61.6207C45.9641 60.5644 45.6671 59.5249 45.2453 58.5427C44.7998 57.4931 44.2125 56.5042 43.5071 55.6065C42.9435 54.891 42.3056 54.2329 41.607 53.649C40.0883 52.38 38.286 51.4654 36.3623 50.9963C35.3633 50.7533 34.3372 50.6284 33.3112 50.625ZM33.2269 57.375C32.5451 57.3817 31.8668 57.4931 31.2221 57.7159C30.4223 57.9926 29.6797 58.4348 29.0554 59.0051C28.3534 59.6396 27.8032 60.4328 27.4489 61.3102C27.2362 61.8401 27.0979 62.397 27.0371 62.964C27.0203 63.1226 27.0068 63.2812 27.0034 63.4399C27 63.5816 27 63.72 26.9933 63.8584V63.8786C27.054 64.4996 27.2531 65.097 27.6075 65.6707C27.6311 65.7112 27.6581 65.7517 27.6817 65.7956C27.7087 65.8429 27.7324 65.8867 27.756 65.934C29.3962 69.0592 31.563 71.8639 34.1381 74.2264C35.5354 72.3735 37.1216 69.93 38.2455 67.5878C38.9509 66.1196 39.5179 64.7291 39.5348 63.6255C39.5246 60.1729 36.72 57.375 33.2674 57.375H33.2269ZM67.5 40.5C67.5 38.6404 68.9985 37.125 70.848 37.125C72.7009 37.125 74.196 38.6404 74.196 40.5C74.196 42.363 75.7113 43.875 77.571 43.875C79.434 43.875 80.946 42.363 80.946 40.5C80.946 34.9076 76.4201 30.375 70.848 30.375C65.2793 30.375 60.75 34.9076 60.75 40.5C60.75 42.363 62.262 43.875 64.125 43.875C65.988 43.875 67.5 42.363 67.5 40.5ZM33.75 40.5C33.75 38.6404 35.2485 37.125 37.098 37.125C38.9509 37.125 40.446 38.6404 40.446 40.5C40.446 42.363 41.9614 43.875 43.821 43.875C45.684 43.875 47.196 42.363 47.196 40.5C47.196 34.9076 42.6701 30.375 37.098 30.375C31.5293 30.375 27 34.9076 27 40.5C27 42.363 28.512 43.875 30.375 43.875C32.238 43.875 33.75 42.363 33.75 40.5Z" fill="#6D755E"/>
</svg>
