<svg width="146" height="148" viewBox="0 0 146 148" fill="none" xmlns="http://www.w3.org/2000/svg">
<path d="M23.1118 128.192C9.54653 115.428 1.33429 97.9454 0.148821 79.3067C-1.03664 60.668 4.89385 42.2764 16.7316 27.8804C28.2321 13.8946 44.4669 4.70265 62.2864 2.0456C63.1533 1.91634 63.9476 2.53715 64.0573 3.41108L64.0619 3.45198C64.1464 4.29613 63.5564 5.05857 62.7244 5.20465L62.684 5.21121C45.7989 7.74604 30.406 16.4158 19.4362 29.6003L19.178 29.9127C7.94327 43.5752 2.27104 61.0002 3.29065 78.6854L3.31598 79.1032C4.44992 96.9316 12.3051 113.654 25.2806 125.863C38.2561 138.072 55.3752 144.848 73.1488 144.81L73.5652 144.808C91.1891 144.665 108.113 137.827 120.936 125.658C133.86 113.394 141.644 96.6379 142.702 78.8048C143.752 61.1111 138.103 43.6787 126.898 30.0049L126.632 29.6827C115.59 16.3699 100.05 7.64959 83.0218 5.16768C82.1545 5.04126 81.5348 4.24785 81.6408 3.37345C81.7469 2.49906 82.5385 1.87488 83.406 2.00042C101.237 4.58115 117.51 13.7035 129.07 27.6399L129.348 27.9768C141.062 42.2721 146.968 60.4969 145.87 78.9948C144.764 97.6384 136.626 115.156 123.115 127.978C109.709 140.7 92.0158 147.848 73.5909 147.998L73.1555 148C54.7193 148.039 36.9566 141.066 23.4305 128.49L23.1118 128.192Z" fill="white"/>
<path d="M112.507 114.757C112.508 114.757 112.508 114.756 112.507 114.756C110.747 113.166 111.993 112.341 112.806 111.533C118.134 106.23 120.543 101.544 123.269 94.5595C127.978 82.4924 128.085 70.2869 124.164 57.9907C124.009 57.5109 123.725 57.0182 123.759 56.5515C123.821 55.6947 125.385 55.1379 125.673 55.9464C125.676 55.955 125.679 55.9636 125.682 55.9723C126.602 59.1447 127.655 62.3084 128.189 65.5543C131.212 83.9705 127.642 98.4457 115.227 112.198C114.423 113.088 113.478 113.849 112.506 114.756C112.506 114.756 112.506 114.757 112.507 114.757Z" fill="white"/>
<path d="M18.9639 59.2268C19.3538 57.298 21.1054 59.214 20.6624 61.1312C20.2423 62.9495 19.841 64.7323 19.5702 66.5354C16.9127 84.2168 20.4065 97.8503 32.4514 110.864C33.1351 111.599 33.9693 112.225 34.5111 113.051C34.5437 113.101 34.5728 113.153 34.599 113.207C34.9874 114.009 33.809 115.156 33.1308 114.581C31.9869 113.613 30.9291 112.524 29.9314 111.396C18.966 98.9914 15.4205 86.2093 17.0933 69.5867C17.4416 66.1032 18.2673 62.6671 18.9639 59.2268Z" fill="white"/>
<path d="M73.4212 0C75.1972 0.0821188 76.6206 1.6078 76.5733 3.37552C76.5217 5.24264 74.9091 6.79857 73.1116 6.71213C71.1722 6.61705 69.8134 5.13027 69.8908 3.18535C69.9639 1.27933 71.4776 -0.0864408 73.4255 0.00432207L73.4212 0Z" fill="white"/>
<path d="M30.0864 80.3665C29.3296 77.4811 29.9994 75.8216 32.4827 74.3898C44.8647 67.2528 57.1292 59.91 69.4111 52.5978C70.7724 51.7878 71.8032 51.6127 73.308 52.5278C80.4927 56.9107 87.7818 61.1185 95.0362 65.3832C95.6451 65.7422 96.2887 66.0312 97.3586 66.5785C97.3586 63.658 97.4369 61.0791 97.2934 58.5132C97.2629 57.9834 96.4801 57.3617 95.906 57.0202C88.2429 52.4402 80.5449 47.9259 72.8904 43.3372C71.8206 42.6979 71.0421 42.6936 69.9461 43.3503C62.3525 47.8997 54.6894 52.3307 47.1045 56.8932C46.3303 57.3617 45.3692 58.5439 45.4649 59.2663C45.8693 62.327 44.4341 63.8551 41.6159 64.6826L41.2723 60.3479C37.3711 62.6291 33.7831 64.7308 30.1473 66.8587C29.2818 63.1238 29.4166 62.7648 32.4566 60.9696C44.8821 53.6224 57.3249 46.2927 69.746 38.928C70.8159 38.2931 71.6553 38.083 72.8687 38.8054C85.3333 46.2314 97.8501 53.5742 110.341 60.9608C113.333 62.7298 113.372 62.9049 112.615 66.8237C108.953 64.6782 105.365 62.5765 101.308 60.199C101.308 63.3209 101.242 65.9743 101.369 68.6189C101.39 69.0743 102.164 69.591 102.691 69.915C105.165 71.4343 107.67 72.8924 110.167 74.3723C113.359 76.2682 113.368 76.2814 112.668 80.3928C108.979 78.2298 105.37 76.1281 101.777 74.0001C92.2266 68.3431 82.6716 62.6947 73.147 56.9939C71.9641 56.2846 71.0856 56.1707 69.8156 56.937C62.2351 61.5038 54.5676 65.9305 46.9827 70.4929C46.2608 70.9264 45.4431 71.9641 45.4344 72.7347C45.3257 81.054 45.3648 89.3732 45.3779 97.6924C45.3779 98.0296 45.504 98.3667 45.6606 99.168C47.9569 97.9902 50.1054 97.0094 52.1103 95.7878C52.6018 95.4856 52.754 94.426 52.841 93.6861C53.1237 91.3041 53.0802 88.8609 53.5716 86.5272C55.0938 79.2719 59.4473 74.3329 66.2406 71.535C71.0551 69.5515 76.0697 68.7503 81.206 68.7196C84.7592 83.6855 74.0778 99.006 59.9257 98.4412C62.2351 96.8342 64.3879 94.8989 66.8843 93.6817C73.0992 90.6386 75.9914 85.3931 77.27 78.9435C77.6484 77.0389 77.7397 75.0816 77.9615 73.1814C67.7889 70.9352 55.1243 82.5733 57.1249 92.5345C59.4125 90.5948 61.5914 88.8478 63.6486 86.965C65.6578 85.126 67.5367 83.1425 69.5851 81.3605C63.1658 92.3856 55.1678 101.436 41.455 104.028V73.7462C37.3972 76.1106 33.8136 78.1948 30.0864 80.3665Z" fill="white"/>
<path d="M65.7274 103.814C67.8237 102.758 70.0505 101.572 72.3425 100.525C73.0905 100.184 74.0082 100.109 74.8519 100.105C81.593 100.07 88.3385 100.031 95.0797 100.114C96.8759 100.136 97.4412 99.5621 97.4195 97.7406C97.3282 90.5204 97.3804 83.3002 97.3804 76.0581C100.747 76.9381 101.208 77.5117 101.203 80.7562C101.203 87.6174 101.203 94.4786 101.186 101.34C101.186 102.119 101.112 102.899 101.068 103.814H65.7274Z" fill="white"/>
<path d="M26.6976 53.2472C26.2929 53.9379 25.7601 54.4768 25.099 54.8638C24.4379 55.2508 23.7243 55.4454 22.9582 55.4475C22.1851 55.4454 21.4375 55.2306 20.7154 54.8031C20.0002 54.3797 19.4578 53.8307 19.0881 53.1562C18.7114 52.4775 18.5311 51.7537 18.5472 50.9848C18.5632 50.2159 18.7736 49.4861 19.1782 48.7954C19.587 48.0977 20.1199 47.5588 20.7768 47.1788C21.4379 46.7918 22.1529 46.6029 22.9219 46.612C23.688 46.6099 24.4286 46.8205 25.1437 47.2439C25.8659 47.6715 26.4153 48.2246 26.792 48.9032C27.1658 49.5707 27.3447 50.2889 27.3286 51.0578C27.3126 51.8267 27.1022 52.5565 26.6976 53.2472ZM25.3409 52.444C25.6011 52 25.7321 51.5507 25.734 51.0962C25.7288 50.6375 25.6032 50.2071 25.3571 49.8051C25.104 49.399 24.7356 49.0527 24.2519 48.7663C23.7681 48.4799 23.2917 48.326 22.8226 48.3046C22.3466 48.2791 21.9113 48.3773 21.5168 48.5994C21.1223 48.8215 20.795 49.1546 20.5349 49.5986C20.2747 50.0426 20.1417 50.4955 20.1357 50.957C20.1338 51.4116 20.2594 51.8419 20.5125 52.2481C20.7586 52.6501 21.1235 52.9943 21.6072 53.2807C22.091 53.5671 22.5709 53.7231 23.047 53.7486C23.516 53.77 23.9513 53.6717 24.3528 53.4538C24.7514 53.2246 25.0808 52.8881 25.3409 52.444Z" fill="white"/>
<path d="M32.3908 45.0186L28.636 44.3407L28.1215 44.9638L30.6757 47.0955L29.5843 48.4171L23.0297 42.9469L25.0721 40.4735C25.4931 39.9637 25.9425 39.6052 26.4203 39.398C26.8918 39.1856 27.3537 39.1193 27.806 39.199C28.2572 39.2673 28.6706 39.4582 29.0462 39.7717C29.4782 40.1322 29.7656 40.5846 29.9082 41.1289C30.0447 41.668 29.9734 42.241 29.6942 42.8479L33.6537 43.4892L32.3908 45.0186ZM27.1448 44.1488L28.0569 43.0442C28.3532 42.6855 28.4864 42.3449 28.4566 42.0224C28.4269 41.6999 28.2586 41.4106 27.9518 41.1546C27.6451 40.8986 27.3344 40.7882 27.0199 40.8233C26.6991 40.8532 26.3905 41.0476 26.0943 41.4063L25.1822 42.5108L27.1448 44.1488Z" fill="white"/>
<path d="M31.5408 39.5143C30.9882 38.8809 30.6353 38.1911 30.4822 37.4449C30.3298 36.6871 30.3806 35.9514 30.6347 35.2379C30.8896 34.5127 31.3229 33.8805 31.9346 33.3412C32.6565 32.7048 33.4391 32.3303 34.2824 32.2178C35.1204 32.0991 35.9193 32.2706 36.6792 32.7322L35.2018 34.0346C34.8189 33.8935 34.4373 33.8655 34.057 33.9505C33.6767 34.0356 33.3153 34.2291 32.9727 34.5312C32.5934 34.8655 32.3321 35.2483 32.1886 35.6793C32.0452 36.1104 32.0304 36.5586 32.1442 37.024C32.258 37.4894 32.4973 37.9312 32.8621 38.3494C33.2377 38.7799 33.6475 39.0822 34.0916 39.2564C34.5419 39.4252 34.992 39.4635 35.442 39.3715C35.8919 39.2794 36.3157 39.0581 36.7134 38.7075C37.2028 38.2761 37.4881 37.7906 37.5694 37.2511C37.6568 36.7062 37.5425 36.1596 37.2266 35.6113L35.0243 37.5529L34.1713 36.5751L37.6399 33.5171L38.6216 34.6425C38.9276 35.167 39.1062 35.7439 39.1574 36.3732C39.2087 37.0026 39.1129 37.631 38.8702 38.2584C38.6283 38.8742 38.232 39.4249 37.6814 39.9103C37.0636 40.455 36.3831 40.8101 35.6401 40.9756C34.8978 41.1295 34.1656 41.0842 33.4436 40.8396C32.7276 40.5895 32.0933 40.1478 31.5408 39.5143Z" fill="white"/>
<path d="M45.3795 32.2327L42.4923 34.0244L42.8673 35.7094L41.3406 36.6568L39.466 27.7413L41.1588 26.6908L48.2469 32.3709L46.7098 33.3248L45.3795 32.2327ZM44.2964 31.3331L41.3458 28.9106L42.1778 32.6479L44.2964 31.3331Z" fill="white"/>
<path d="M56.0188 29.1199L54.4375 29.7708L48.642 25.8056L50.8571 31.2444L49.2758 31.8953L46.0434 23.9584L47.6247 23.3076L53.4248 27.2841L51.2051 21.8339L52.7864 21.1831L56.0188 29.1199Z" fill="white"/>
<path d="M56.9501 19.8632L59.2485 28.1097L57.6032 28.5732L55.3048 20.3267L56.9501 19.8632Z" fill="white"/>
<path d="M59.8268 23.5712C59.6978 22.7388 59.7674 21.9662 60.0357 21.2537C60.3108 20.5317 60.7417 19.9385 61.3285 19.474C61.9221 19.0002 62.6208 18.7003 63.4248 18.5744C64.3654 18.427 65.227 18.5403 66.0097 18.9144C66.7923 19.2885 67.3908 19.8818 67.805 20.6944L65.8634 20.9986C65.6023 20.6422 65.2839 20.3941 64.9081 20.2543C64.5311 20.1064 64.1134 20.0683 63.6552 20.1401C63.1648 20.217 62.7442 20.3988 62.3934 20.6855C62.0506 20.971 61.8032 21.3409 61.6513 21.7952C61.5075 22.2482 61.4782 22.7495 61.5634 23.2991C61.6486 23.8487 61.8283 24.3172 62.1025 24.7048C62.3834 25.0829 62.731 25.3596 63.1452 25.5348C63.5662 25.7006 64.0219 25.7451 64.5123 25.6682C64.9705 25.5964 65.3568 25.4324 65.6712 25.1762C65.9936 24.9187 66.2212 24.5809 66.354 24.1627L68.2956 23.8585C68.1483 24.7674 67.7585 25.5197 67.1262 26.1155C66.5007 26.7019 65.7136 27.0695 64.7649 27.2181C63.961 27.3441 63.2052 27.2762 62.4976 27.0146C61.7968 26.7436 61.2068 26.3104 60.7274 25.7149C60.2561 25.1182 59.9559 24.4037 59.8268 23.5712Z" fill="white"/>
<path d="M73.0907 26.5163C72.4967 26.5165 71.9597 26.4145 71.4795 26.2102C71.0075 26.0059 70.6331 25.7115 70.3564 25.3272C70.0796 24.9429 69.937 24.489 69.9286 23.9655L71.7594 23.9647C71.7839 24.3246 71.9061 24.6109 72.1259 24.8235C72.3538 25.036 72.663 25.1423 73.0535 25.1421C73.4522 25.1419 73.7654 25.0437 73.9932 24.8473C74.2209 24.6509 74.3348 24.3891 74.3346 24.0619C74.3345 23.8083 74.2571 23.5998 74.1025 23.4362C73.9478 23.2727 73.7525 23.146 73.5165 23.0561C73.2887 22.958 72.9713 22.8518 72.5644 22.7375C72.0111 22.5741 71.5594 22.4148 71.2095 22.2595C70.8677 22.0961 70.5706 21.8549 70.3183 21.536C70.074 21.2089 69.9518 20.7754 69.9516 20.2356C69.9514 19.7284 70.0773 19.2867 70.3294 18.9103C70.5815 18.5339 70.9353 18.2475 71.3909 18.051C71.8465 17.8464 72.3672 17.7439 72.953 17.7437C73.8318 17.7433 74.5438 17.9598 75.0891 18.3931C75.6426 18.8182 75.9479 19.4152 76.0052 20.1841L74.1256 20.1848C74.1092 19.8658 73.983 19.6123 73.747 19.4243C73.5191 19.2281 73.2139 19.13 72.8315 19.1302C72.4979 19.1303 72.2294 19.2204 72.0261 19.4004C71.8309 19.5723 71.7333 19.83 71.7335 20.1735C71.7336 20.4025 71.8069 20.5947 71.9534 20.7501C72.108 20.8973 72.2952 21.0199 72.515 21.1179C72.7428 21.2078 73.0602 21.314 73.4671 21.4366C74.0204 21.5999 74.472 21.7634 74.822 21.9268C75.1719 22.0903 75.4731 22.3355 75.7254 22.6626C75.9778 22.9897 76.1041 23.4191 76.1043 23.9508C76.1045 24.4088 75.9866 24.8342 75.7508 25.2269C75.515 25.6196 75.1693 25.9347 74.7138 26.1721C74.2582 26.4013 73.7172 26.516 73.0907 26.5163Z" fill="white"/>
<path d="M86.4203 23.5802C86.873 23.7645 87.2119 24.08 87.437 24.5267C87.6622 24.9733 87.7246 25.4452 87.6241 25.9421C87.5333 26.391 87.3415 26.765 87.0485 27.064C86.7652 27.3567 86.3967 27.5568 85.9432 27.6645C85.4897 27.7721 84.9799 27.7681 84.4137 27.6524L80.8137 26.9167L82.5107 18.5243L85.9553 19.2282C86.5214 19.3439 86.9891 19.5355 87.3585 19.803C87.7358 20.0721 87.9949 20.3921 88.1358 20.7631C88.2846 21.1357 88.3169 21.5305 88.2326 21.9473C88.1337 22.4362 87.9195 22.8182 87.5899 23.093C87.2683 23.3695 86.8785 23.5319 86.4203 23.5802ZM83.4801 22.3533L85.011 22.6662C85.4097 22.7476 85.7353 22.7182 85.9879 22.5778C86.2404 22.4375 86.4016 22.1949 86.4713 21.8503C86.541 21.5056 86.4836 21.2143 86.2993 20.9763C86.1229 20.7399 85.8393 20.5818 85.4486 20.5019L83.9177 20.1891L83.4801 22.3533ZM84.4444 26.2689C84.8511 26.352 85.1855 26.3202 85.4476 26.1735C85.7194 26.0203 85.8925 25.7594 85.9671 25.3907C86.04 25.03 85.978 24.721 85.7809 24.4637C85.5838 24.2064 85.282 24.0362 84.8753 23.9531L83.2248 23.6158L82.758 25.9243L84.4444 26.2689Z" fill="white"/>
<path d="M97.7198 22.8558L93.1275 27.1262L92.1221 29.9311L90.5146 29.3488L91.52 26.5439L90.6813 20.3061L92.4955 20.9633L92.8906 25.2537L95.9057 22.1986L97.7198 22.8558Z" fill="white"/>
<path d="M103.905 34.2369L101.029 32.4261L99.6919 33.5094L98.1714 32.5519L105.297 26.9188L106.982 27.9805L105.049 36.8834L103.519 35.9194L103.905 34.2369ZM104.228 32.8625L105.085 29.1308L102.118 31.5337L104.228 32.8625Z" fill="white"/>
<path d="M114.483 37.1667C114.186 37.5144 113.825 37.7685 113.398 37.929C112.978 38.0949 112.513 38.1192 112.002 38.002C111.497 37.8901 110.979 37.6052 110.448 37.1473L109.364 36.2129L107.235 38.7091L105.937 37.591L111.483 31.0897L113.864 33.1422C114.364 33.5735 114.716 34.0278 114.92 34.5051C115.124 34.9825 115.182 35.4478 115.096 35.9012C115.015 36.3598 114.811 36.7817 114.483 37.1667ZM111.266 36.0748C111.618 36.3783 111.955 36.5177 112.276 36.4929C112.603 36.4734 112.894 36.3147 113.148 36.0166C113.413 35.7061 113.531 35.3925 113.501 35.0758C113.476 34.7528 113.285 34.437 112.926 34.1282L111.898 33.2417L110.238 35.1884L111.266 36.0748Z" fill="white"/>
<path d="M120.012 43.2773C119.672 43.5812 119.279 43.7835 118.835 43.8842C118.396 43.991 117.932 43.9514 117.442 43.7654C116.957 43.5855 116.482 43.2324 116.018 42.7061L115.07 41.632L112.623 43.8137L111.489 42.5285L117.863 36.8464L119.944 39.2056C120.382 39.7013 120.669 40.1996 120.806 40.7004C120.943 41.2012 120.938 41.6702 120.791 42.1075C120.649 42.5509 120.39 42.9408 120.012 43.2773ZM116.974 41.7555C117.281 42.1044 117.596 42.2885 117.918 42.3079C118.245 42.3334 118.554 42.2159 118.846 41.9554C119.151 41.6841 119.31 41.3894 119.323 41.0716C119.342 40.7482 119.195 40.4091 118.882 40.0541L117.983 39.0352L116.075 40.7365L116.974 41.7555Z" fill="white"/>
<path d="M120.521 51.6986L118.671 48.839L117.004 49.2553L116.026 47.7432L124.849 45.6503L125.933 47.327L120.45 54.5837L119.466 53.0613L120.521 51.6986ZM121.39 50.589L123.73 47.5669L120.033 48.4906L121.39 50.589Z" fill="white"/>
<path d="M40.5437 115.076L36.9957 118.775L36.2577 118.06L37.7776 116.475L36.2014 114.947L34.6816 116.532L33.9436 115.816L37.4915 112.117L38.2295 112.833L36.7605 114.364L38.3367 115.892L39.8057 114.361L40.5437 115.076Z" fill="white"/>
<path d="M39.6433 121.001C39.2667 120.704 38.9901 120.343 38.8135 119.917C38.6369 119.491 38.5783 119.049 38.6377 118.591C38.7002 118.129 38.8865 117.699 39.1966 117.301C39.5037 116.907 39.8715 116.626 40.2998 116.459C40.7312 116.287 41.1736 116.237 41.6273 116.307C42.0809 116.378 42.496 116.561 42.8726 116.858C43.253 117.158 43.5296 117.519 43.7024 117.942C43.879 118.368 43.9341 118.81 43.8679 119.269C43.8084 119.727 43.6251 120.153 43.318 120.548C43.0079 120.945 42.6371 121.23 42.2058 121.402C41.7813 121.572 41.3422 121.622 40.8886 121.552C40.435 121.481 40.0199 121.298 39.6433 121.001ZM40.2259 120.254C40.468 120.444 40.7234 120.558 40.9922 120.595C41.264 120.629 41.5285 120.588 41.7858 120.472C42.0462 120.353 42.2802 120.16 42.488 119.894C42.6957 119.627 42.8245 119.354 42.8743 119.076C42.9271 118.793 42.9035 118.525 42.8033 118.272C42.7032 118.018 42.5321 117.796 42.29 117.605C42.0479 117.415 41.7905 117.299 41.5179 117.259C41.2491 117.222 40.9846 117.263 40.7243 117.382C40.467 117.497 40.2344 117.688 40.0267 117.955C39.8189 118.221 39.6886 118.496 39.6358 118.779C39.586 119.057 39.6097 119.325 39.7068 119.583C39.8108 119.839 39.9838 120.063 40.2259 120.254Z" fill="white"/>
<path d="M49.8436 121.594L47.1739 125.976L46.2997 125.438L48.0361 122.588L45.1319 124.719L44.47 124.311L45.0324 120.738L43.296 123.588L42.4217 123.05L45.0913 118.668L46.0842 119.279L45.4856 123.391L48.8569 120.987L49.8436 121.594Z" fill="white"/>
<path d="M50.9239 123.047L50.3461 124.247L51.8948 125.001L51.55 125.716L50.0013 124.962L49.3979 126.214L51.1444 127.065L50.7901 127.8L48.1209 126.501L50.3524 121.869L53.0215 123.169L52.6703 123.898L50.9239 123.047Z" fill="white"/>
<path d="M60.4745 125.806L58.8954 130.693L57.9204 130.375L58.9475 127.196L56.618 129.949L55.8797 129.708L55.5975 126.102L54.5704 129.281L53.5953 128.962L55.1744 124.075L56.2818 124.437L56.6538 128.576L59.3741 125.447L60.4745 125.806Z" fill="white"/>
<path d="M63.2054 130.649L61.2112 130.238L60.6854 131.129L59.6309 130.911L62.461 126.242L63.6302 126.483L64.4011 131.896L63.3395 131.676L63.2054 130.649ZM63.1005 129.808L62.8034 127.53L61.6372 129.506L63.1005 129.808Z" fill="white"/>
<path d="M67.4594 127.075C67.9935 127.132 68.4512 127.286 68.8324 127.538C69.2184 127.791 69.5004 128.124 69.6783 128.537C69.8616 128.946 69.9266 129.407 69.8734 129.92C69.8201 130.432 69.6618 130.869 69.3983 131.232C69.1403 131.589 68.7964 131.852 68.3667 132.019C67.9419 132.186 67.4625 132.242 66.9284 132.186L65.1512 131.999L65.6823 126.889L67.4594 127.075ZM66.9787 131.348C67.5079 131.403 67.9339 131.295 68.2567 131.023C68.5843 130.751 68.7761 130.347 68.8318 129.81C68.8871 129.278 68.7848 128.845 68.5249 128.512C68.2651 128.179 67.8681 127.984 67.334 127.928L66.6129 127.853L66.2576 131.272L66.9787 131.348Z" fill="white"/>
<path d="M71.5512 128.196L71.5263 129.528L73.2469 129.561L73.232 130.356L71.5115 130.323L71.4855 131.714L73.4257 131.751L73.4104 132.568L70.4451 132.512L70.5414 127.367L73.5066 127.423L73.4915 128.233L71.5512 128.196Z" fill="white"/>
<path d="M75.9222 129.915C75.8687 129.413 75.9325 128.952 76.1137 128.532C76.2992 128.108 76.5769 127.764 76.9467 127.502C77.3208 127.235 77.7506 127.075 78.236 127.023C78.8088 126.961 79.3214 127.049 79.7739 127.287C80.2258 127.52 80.5589 127.881 80.7732 128.371L79.6009 128.497C79.4615 128.295 79.2839 128.149 79.0681 128.059C78.8522 127.968 78.6084 127.938 78.3366 127.967C78.0356 128 77.7759 128.097 77.5575 128.258C77.339 128.42 77.1778 128.635 77.0738 128.903C76.9697 129.171 76.9354 129.47 76.9707 129.802C77.0071 130.144 77.1043 130.435 77.2624 130.674C77.4254 130.913 77.6331 131.088 77.8855 131.199C78.1379 131.31 78.4218 131.349 78.7374 131.315C79.1257 131.273 79.4325 131.134 79.6577 130.898C79.8877 130.661 80.0194 130.353 80.0527 129.974L78.3052 130.162L78.2226 129.386L80.9749 129.09L81.07 129.983C81.04 130.346 80.9295 130.692 80.7384 131.018C80.5473 131.345 80.2845 131.62 79.9499 131.843C79.6196 132.062 79.2361 132.194 78.7992 132.241C78.3089 132.294 77.8531 132.232 77.4316 132.055C77.0145 131.873 76.6709 131.597 76.4006 131.226C76.1352 130.855 75.9758 130.418 75.9222 129.915Z" fill="white"/>
<path d="M84.4229 131.333C83.9553 131.435 83.5021 131.418 83.0633 131.283C82.6245 131.147 82.2488 130.91 81.936 130.572C81.6222 130.228 81.4121 129.809 81.3056 129.315C81.2002 128.826 81.2201 128.362 81.3654 127.924C81.5096 127.481 81.7536 127.106 82.0973 126.8C82.441 126.495 82.8466 126.291 83.3142 126.189C83.7865 126.086 84.2397 126.103 84.6738 126.239C85.1125 126.375 85.4865 126.615 85.7955 126.959C86.1082 127.298 86.3173 127.712 86.4228 128.201C86.5292 128.695 86.5104 129.164 86.3661 129.607C86.2256 130.044 85.9835 130.416 85.6398 130.722C85.2961 131.027 84.8905 131.231 84.4229 131.333ZM84.2229 130.405C84.5235 130.339 84.7738 130.215 84.9739 130.03C85.1729 129.841 85.3105 129.611 85.3866 129.338C85.4616 129.061 85.4635 128.756 85.3922 128.425C85.3209 128.094 85.1944 127.821 85.0129 127.604C84.8303 127.383 84.61 127.23 84.3521 127.145C84.0941 127.061 83.8148 127.052 83.5142 127.117C83.2136 127.182 82.9609 127.308 82.7561 127.493C82.556 127.677 82.4184 127.908 82.3434 128.186C82.2673 128.458 82.2649 128.76 82.3362 129.091C82.4075 129.422 82.5345 129.698 82.7171 129.919C82.8986 130.136 83.1189 130.289 83.3779 130.378C83.6406 130.461 83.9223 130.47 84.2229 130.405Z" fill="white"/>
<path d="M90.0337 129.79C89.5798 129.942 89.1275 129.975 88.6767 129.888C88.2259 129.801 87.8268 129.607 87.4794 129.304C87.1305 128.997 86.8765 128.603 86.7175 128.124C86.56 127.649 86.5299 127.186 86.6271 126.734C86.7228 126.278 86.925 125.879 87.2337 125.537C87.5425 125.196 87.9238 124.949 88.3776 124.797C88.8361 124.643 89.2885 124.611 89.7346 124.699C90.1854 124.786 90.583 124.984 90.9273 125.293C91.2746 125.595 91.5271 125.984 91.6846 126.459C91.8436 126.938 91.8753 127.406 91.7796 127.863C91.687 128.313 91.4863 128.708 91.1776 129.05C90.8688 129.391 90.4875 129.638 90.0337 129.79ZM89.7349 128.889C90.0267 128.792 90.2621 128.64 90.4412 128.435C90.6187 128.226 90.7306 127.981 90.7769 127.702C90.8216 127.418 90.7907 127.115 90.6842 126.794C90.5777 126.473 90.4225 126.214 90.2187 126.019C90.0134 125.819 89.7779 125.691 89.5124 125.635C89.2468 125.579 88.9682 125.6 88.6764 125.698C88.3847 125.796 88.1469 125.948 87.9632 126.154C87.7841 126.359 87.6722 126.603 87.6275 126.887C87.5812 127.167 87.6113 127.467 87.7179 127.788C87.8244 128.11 87.9803 128.37 88.1857 128.571C88.3895 128.766 88.6249 128.894 88.892 128.955C89.1622 129.009 89.4431 128.987 89.7349 128.889Z" fill="white"/>
<path d="M92.7847 123.175C93.2738 122.952 93.7462 122.852 94.2019 122.876C94.6621 122.898 95.0729 123.042 95.4342 123.308C95.7981 123.568 96.0858 123.933 96.2976 124.402C96.5093 124.871 96.5925 125.329 96.5473 125.776C96.5045 126.215 96.3398 126.617 96.053 126.979C95.7707 127.339 95.385 127.631 94.8959 127.854L93.2687 128.596L91.1575 123.916L92.7847 123.175ZM94.5178 127.105C95.0024 126.884 95.3156 126.574 95.4573 126.176C95.6035 125.775 95.5657 125.329 95.3439 124.837C95.1241 124.35 94.8183 124.028 94.4265 123.873C94.0347 123.717 93.5943 123.751 93.1053 123.974L92.445 124.275L93.8575 127.406L94.5178 127.105Z" fill="white"/>
<path d="M101.872 124.136L100.985 124.653L97.2166 122.775L98.9773 125.825L98.0906 126.342L95.5212 121.891L96.4079 121.374L100.18 123.259L98.4156 120.203L99.3023 119.685L101.872 124.136Z" fill="white"/>
<path d="M101.143 119.412L101.905 120.502L103.313 119.507L103.768 120.157L102.36 121.152L103.157 122.29L104.744 121.168L105.211 121.836L102.786 123.552L99.8409 119.342L102.267 117.627L102.73 118.29L101.143 119.412Z" fill="white"/>
<path d="M107.401 120.133C107.126 120.361 106.839 120.52 106.539 120.61C106.244 120.697 105.958 120.705 105.684 120.634C105.41 120.563 105.172 120.408 104.969 120.169L105.815 119.465C105.963 119.622 106.128 119.707 106.311 119.721C106.497 119.732 106.681 119.662 106.861 119.512C107.045 119.358 107.153 119.192 107.183 119.014C107.214 118.836 107.167 118.671 107.043 118.52C106.946 118.402 106.831 118.336 106.697 118.32C106.564 118.303 106.425 118.32 106.282 118.369C106.139 118.411 105.952 118.484 105.72 118.588C105.402 118.725 105.133 118.825 104.912 118.888C104.692 118.943 104.463 118.946 104.225 118.896C103.987 118.838 103.766 118.685 103.561 118.435C103.368 118.201 103.258 117.948 103.231 117.677C103.205 117.406 103.259 117.138 103.395 116.872C103.528 116.602 103.73 116.355 104.001 116.129C104.407 115.791 104.818 115.618 105.235 115.608C105.653 115.592 106.021 115.751 106.34 116.084L105.471 116.807C105.342 116.666 105.188 116.597 105.007 116.601C104.827 116.598 104.649 116.67 104.472 116.817C104.318 116.945 104.228 117.09 104.202 117.252C104.177 117.406 104.23 117.563 104.361 117.722C104.448 117.827 104.555 117.888 104.682 117.904C104.809 117.912 104.943 117.897 105.081 117.858C105.221 117.812 105.408 117.739 105.643 117.639C105.961 117.502 106.232 117.404 106.456 117.345C106.68 117.286 106.912 117.284 107.153 117.338C107.395 117.392 107.616 117.542 107.819 117.788C107.993 118 108.1 118.242 108.141 118.514C108.181 118.786 108.141 119.065 108.02 119.35C107.897 119.631 107.69 119.892 107.401 120.133Z" fill="white"/>
<path d="M110.772 117.083C110.517 117.334 110.244 117.516 109.952 117.631C109.665 117.742 109.381 117.774 109.102 117.726C108.823 117.677 108.572 117.542 108.351 117.321L109.136 116.549C109.297 116.693 109.468 116.765 109.651 116.763C109.838 116.759 110.015 116.674 110.182 116.509C110.353 116.341 110.447 116.167 110.463 115.987C110.479 115.806 110.418 115.646 110.282 115.506C110.176 115.397 110.056 115.34 109.921 115.335C109.787 115.33 109.65 115.358 109.511 115.419C109.372 115.473 109.192 115.561 108.97 115.683C108.664 115.846 108.404 115.968 108.189 116.049C107.974 116.123 107.746 116.145 107.504 116.114C107.263 116.077 107.03 115.942 106.805 115.711C106.593 115.493 106.463 115.251 106.414 114.983C106.365 114.715 106.398 114.443 106.511 114.167C106.622 113.887 106.802 113.623 107.054 113.376C107.431 113.006 107.827 112.798 108.241 112.755C108.656 112.704 109.036 112.831 109.381 113.137L108.575 113.93C108.435 113.8 108.275 113.744 108.095 113.763C107.916 113.775 107.744 113.861 107.58 114.023C107.437 114.163 107.359 114.315 107.347 114.478C107.335 114.634 107.4 114.786 107.544 114.933C107.639 115.031 107.751 115.083 107.878 115.088C108.006 115.086 108.138 115.06 108.273 115.009C108.408 114.952 108.589 114.863 108.814 114.745C109.12 114.581 109.382 114.461 109.6 114.384C109.819 114.306 110.05 114.285 110.295 114.319C110.54 114.353 110.773 114.484 110.995 114.712C111.186 114.909 111.313 115.141 111.375 115.409C111.438 115.677 111.421 115.958 111.325 116.251C111.225 116.542 111.04 116.819 110.772 117.083Z" fill="white"/>
</svg>
