<svg width="146" height="146" viewBox="0 0 146 146" fill="none" xmlns="http://www.w3.org/2000/svg">
<path d="M23.1118 126.358C9.54653 113.701 1.33429 96.3647 0.148821 77.8821C-1.03664 59.3995 4.89385 41.1619 16.7316 26.8865C28.2321 13.0178 44.4669 3.90284 62.2864 1.26805C63.1533 1.13988 63.9476 1.75548 64.0573 2.62209L64.0619 2.66265C64.1464 3.49973 63.5564 4.25579 62.7244 4.40065L62.684 4.40715C45.7989 6.92075 30.406 15.5179 19.4362 28.592L19.1779 28.9017C7.94327 42.4499 2.27104 59.7289 3.29065 77.2659L3.31598 77.6803C4.44992 95.3593 12.3051 111.942 25.2806 124.049C38.2561 136.155 55.3752 142.874 73.1488 142.837L73.5652 142.835C91.1891 142.692 108.113 135.912 120.936 123.846C133.86 111.684 141.644 95.0681 142.702 77.3844C143.752 59.8388 138.103 42.5524 126.898 28.9932L126.632 28.6736C115.59 15.4724 100.05 6.8251 83.0218 4.36398C82.1545 4.23862 81.5348 3.45185 81.6408 2.58478C81.7469 1.71771 82.5385 1.09876 83.406 1.22325C101.237 3.78237 117.51 12.8284 129.07 26.648L129.348 26.9821C141.062 41.1576 146.968 59.2298 145.87 77.5728C144.764 96.0602 136.626 113.431 123.115 126.146C109.709 138.761 92.0158 145.849 73.5909 145.998L73.1555 146C54.7193 146.039 36.9566 139.124 23.4305 126.654L23.1118 126.358Z" fill="white"/>
<path d="M50.463 117.84L40.2637 125.494C40.0238 125.693 39.7613 125.808 39.4762 125.84C39.2121 125.865 38.9666 125.813 38.7396 125.682C38.379 125.475 38.1697 125.221 38.1116 124.922C38.0536 124.622 38.1094 124.326 38.2789 124.033C38.3483 123.913 38.4415 123.798 38.5586 123.688L50.4594 114.617C50.7204 114.412 51.0001 114.298 51.2985 114.275C51.6103 114.259 51.8854 114.337 52.1238 114.51C52.3642 114.648 52.5421 114.848 52.6577 115.109C52.7943 115.366 52.8361 115.647 52.7832 115.954L50.9374 130.488C50.904 130.7 50.8449 130.879 50.7601 131.025C50.5521 131.385 50.2662 131.602 49.9025 131.676C49.5522 131.759 49.2368 131.719 48.9563 131.558C48.7159 131.42 48.5379 131.22 48.4224 130.958C48.3202 130.704 48.2889 130.42 48.3284 130.106L49.8127 117.625L50.463 117.84ZM42.295 123.415L44.7261 121.753L50.135 124.864L49.1863 127.379L42.295 123.415Z" fill="white"/>
<path d="M97.5856 117.389L98.2303 130.099C98.2614 130.408 98.2099 130.689 98.0761 130.942C97.9494 131.175 97.7682 131.348 97.5324 131.462C97.158 131.644 96.8301 131.674 96.5487 131.554C96.2673 131.434 96.0524 131.222 95.9041 130.918C95.8434 130.794 95.8002 130.653 95.7744 130.494L94.9059 115.587C94.882 115.256 94.9439 114.961 95.0916 114.702C95.2531 114.436 95.4724 114.252 95.7494 114.152C95.999 114.031 96.2648 113.997 96.547 114.048C96.8363 114.079 97.0935 114.202 97.3187 114.417L108.362 124.086C108.519 124.233 108.635 124.382 108.709 124.534C108.891 124.907 108.911 125.264 108.769 125.607C108.641 125.942 108.432 126.18 108.141 126.321C107.891 126.442 107.625 126.477 107.343 126.426C107.075 126.368 106.821 126.235 106.582 126.026L97.0431 117.806L97.5856 117.389ZM97.6413 127.257L97.6223 124.318L103.238 121.597L104.797 123.789L97.6413 127.257Z" fill="white"/>
<path d="M68.2001 119.258C68.9878 119.407 69.6795 119.772 70.2751 120.354C70.8859 120.939 71.3301 121.656 71.6079 122.506C71.8856 123.356 71.934 124.257 71.7532 125.208C71.5751 126.145 71.2008 126.958 70.6302 127.648C70.0596 128.338 69.3813 128.851 68.5955 129.187C67.8276 129.511 67.0498 129.599 66.262 129.45L62.0808 128.66L62.3855 128.296L61.494 132.984C61.4194 133.377 61.235 133.686 60.9409 133.912C60.6497 134.123 60.3072 134.191 59.9133 134.117C59.5346 134.045 59.2484 133.858 59.0548 133.556C58.8641 133.238 58.8061 132.883 58.8808 132.49L61.3701 119.399C61.4447 119.006 61.6352 118.706 61.9416 118.498C62.266 118.278 62.6251 118.205 63.019 118.279L68.2001 119.258ZM66.753 126.868C67.0408 126.923 67.3441 126.855 67.6627 126.665C67.9813 126.475 68.2674 126.208 68.521 125.865C68.7775 125.507 68.9459 125.116 69.0263 124.693C69.1095 124.255 69.0961 123.831 68.9861 123.419C68.8761 123.007 68.7063 122.662 68.4767 122.384C68.2499 122.091 67.9926 121.917 67.7048 121.863L63.4781 121.064L63.8283 120.708L62.7301 126.484L62.549 126.074L66.753 126.868Z" fill="white"/>
<path d="M82.773 118.967C83.5669 118.855 84.3398 118.978 85.0918 119.338C85.859 119.695 86.5117 120.231 87.0496 120.947C87.5876 121.662 87.9249 122.499 88.0614 123.458C88.1958 124.401 88.1045 125.291 87.7876 126.128C87.4707 126.964 86.9947 127.668 86.3597 128.239C85.7377 128.793 85.0298 129.126 84.236 129.238L80.0226 129.834L80.193 129.391L80.866 134.115C80.9223 134.511 80.8479 134.863 80.6427 135.172C80.4352 135.465 80.1331 135.639 79.7362 135.696C79.3545 135.75 79.0231 135.665 78.742 135.44C78.4588 135.201 78.289 134.884 78.2326 134.488L76.3535 121.296C76.2972 120.9 76.3803 120.555 76.603 120.259C76.8388 119.947 77.1551 119.762 77.552 119.706L82.773 118.967ZM83.8654 126.636C84.1554 126.595 84.4205 126.433 84.6606 126.151C84.9007 125.869 85.0853 125.524 85.2143 125.118C85.3411 124.696 85.3742 124.273 85.3135 123.847C85.2507 123.405 85.1006 123.007 84.8632 122.653C84.6258 122.299 84.3535 122.027 84.0462 121.837C83.7367 121.633 83.437 121.551 83.1469 121.592L78.8877 122.195L79.1039 121.745L79.933 127.565L79.6291 127.235L83.8654 126.636Z" fill="white"/>
<path d="M110.981 114.556C110.982 114.556 110.982 114.555 110.982 114.555C109.221 112.979 110.468 112.16 111.28 111.359C116.608 106.1 120.543 99.933 123.269 93.0071C127.978 81.041 128.085 68.9378 124.164 56.7446C124.009 56.2688 123.725 55.7803 123.759 55.3174C123.821 54.4678 125.385 53.9157 125.673 54.7174C125.676 54.7259 125.679 54.7345 125.682 54.7431C126.602 57.8889 127.655 61.0261 128.189 64.2448C131.212 82.5068 126.116 98.3815 113.701 112.019C112.898 112.902 111.952 113.655 110.981 114.555C110.98 114.555 110.981 114.556 110.981 114.556Z" fill="white"/>
<path d="M18.9639 57.9703C19.3538 56.0576 21.1054 57.9576 20.6624 59.8588C20.2423 61.6618 19.841 63.4297 19.5702 65.2177C16.9127 82.7511 22.0084 97.8672 34.0532 110.772C34.737 111.501 35.5712 112.122 36.113 112.941C36.1456 112.99 36.1747 113.042 36.2009 113.095C36.5893 113.89 35.4109 115.028 34.7327 114.458C33.5888 113.498 32.531 112.418 31.5333 111.299C20.5679 98.9987 15.4205 84.7268 17.0933 68.2435C17.4416 64.7891 18.2673 61.3819 18.9639 57.9703Z" fill="white"/>
<path d="M73.1161 0C74.8921 0.081431 76.3155 1.59433 76.2682 3.34724C76.2166 5.19873 74.604 6.74163 72.8065 6.65592C70.8671 6.56163 69.5083 5.0873 69.5857 3.15867C69.6588 1.26861 71.1724 -0.0857169 73.1204 0.00428584L73.1161 0Z" fill="white"/>
<path d="M30.0864 78.933C29.3296 76.0717 29.9994 74.4262 32.4827 73.0064C44.8647 65.9291 57.1292 58.6478 69.4111 51.3969C70.7724 50.5936 71.8032 50.42 73.3079 51.3274C80.4927 55.6736 87.7818 59.8462 95.0362 64.0751C95.6451 64.4312 96.2887 64.7177 97.3586 65.2605C97.3586 62.3644 97.4369 59.8071 97.2934 57.2627C97.2629 56.7374 96.4801 56.1208 95.906 55.7822C88.2428 51.2406 80.5449 46.7641 72.8904 42.2138C71.8205 41.5799 71.0421 41.5756 69.9461 42.2268C62.3525 46.738 54.6894 51.132 47.1045 55.6562C46.3303 56.1208 45.3692 57.2931 45.4649 58.0095C45.8693 61.0445 44.4341 62.5598 41.6159 63.3804L41.2723 59.082C37.3711 61.3441 33.7831 63.4282 30.1472 65.5383C29.2818 61.8347 29.4166 61.4787 32.4566 59.6985C44.8821 52.4129 57.3249 45.1446 69.746 37.8416C70.8159 37.212 71.6553 37.0036 72.8687 37.72C85.3333 45.0838 97.8501 52.3651 110.341 59.6898C113.333 61.444 113.372 61.6176 112.615 65.5036C108.953 63.3761 105.365 61.292 101.308 58.9344C101.308 62.0301 101.242 64.6613 101.368 67.2838C101.39 67.7353 102.164 68.2477 102.691 68.569C105.165 70.0756 107.67 71.5214 110.167 72.989C113.359 74.869 113.368 74.882 112.668 78.9591C108.979 76.8142 105.37 74.7301 101.777 72.6199C92.2266 67.0102 82.6716 61.4092 73.147 55.7561C71.9641 55.0527 71.0855 54.9398 69.8156 55.6997C62.2351 60.2282 54.5676 64.6179 46.9827 69.1421C46.2608 69.5719 45.4431 70.601 45.4344 71.3651C45.3257 79.6147 45.3648 87.8642 45.3779 96.1138C45.3779 96.4481 45.504 96.7824 45.6606 97.577C47.9569 96.409 50.1054 95.4365 52.1103 94.2251C52.6018 93.9255 52.754 92.8748 52.841 92.141C53.1237 89.779 53.0802 87.3562 53.5716 85.042C55.0938 77.8475 59.4473 72.9499 66.2406 70.1755C71.0551 68.2086 76.0696 67.414 81.206 67.3836C84.7592 82.2242 74.0777 97.4164 59.9257 96.8563C62.2351 95.2628 64.3879 93.3437 66.8843 92.1366C73.0992 89.119 75.9914 83.9175 77.27 77.5219C77.6484 75.6332 77.7397 73.6924 77.9615 71.808C67.7889 69.5806 55.1243 81.1213 57.1249 90.9991C59.4125 89.0756 61.5914 87.3432 63.6485 85.4762C65.6578 83.6526 67.5367 81.6858 69.5851 79.9186C63.1658 90.8514 55.1678 99.8261 41.455 102.396V72.3681C37.3972 74.7127 33.8136 76.7794 30.0864 78.933Z" fill="white"/>
<path d="M65.7274 102.184C67.8237 101.137 70.0505 99.9607 72.3424 98.923C73.0905 98.5843 74.0082 98.5105 74.8519 98.5061C81.593 98.4714 88.3385 98.4323 95.0797 98.5148C96.8759 98.5366 97.4412 97.9678 97.4195 96.1616C97.3282 89.0018 97.3804 81.8421 97.3804 74.6606C100.747 75.5333 101.208 76.1021 101.203 79.3194C101.203 86.1231 101.203 92.9269 101.186 99.7306C101.186 100.503 101.112 101.276 101.068 102.184H65.7274Z" fill="white"/>
<path d="M25.6161 51.6946C24.5457 51.6946 23.5627 51.4442 22.6672 50.9434C21.7716 50.4427 21.0616 49.7514 20.5374 48.8697C20.0131 47.977 19.751 46.9701 19.751 45.8488C19.751 44.7384 20.0131 43.7424 20.5374 42.8606C21.0616 41.968 21.7716 41.2713 22.6672 40.7705C23.5627 40.2698 24.5457 40.0194 25.6161 40.0194C26.6973 40.0194 27.6803 40.2698 28.565 40.7705C29.4606 41.2713 30.165 41.968 30.6784 42.8606C31.2026 43.7424 31.4647 44.7384 31.4647 45.8488C31.4647 46.9701 31.2026 47.977 30.6784 48.8697C30.165 49.7514 29.4606 50.4427 28.565 50.9434C27.6694 51.4442 26.6864 51.6946 25.6161 51.6946ZM25.6161 49.5881C26.3041 49.5881 26.9103 49.4357 27.4346 49.1309C27.9588 48.8152 28.3684 48.3798 28.6633 47.8246C28.9582 47.2585 29.1056 46.5999 29.1056 45.8488C29.1056 45.0977 28.9582 44.4445 28.6633 43.8893C28.3684 43.3233 27.9588 42.8878 27.4346 42.583C26.9103 42.2782 26.3041 42.1258 25.6161 42.1258C24.928 42.1258 24.3164 42.2782 23.7812 42.583C23.2569 42.8878 22.8474 43.3233 22.5525 43.8893C22.2576 44.4445 22.1101 45.0977 22.1101 45.8488C22.1101 46.5999 22.2576 47.2585 22.5525 47.8246C22.8474 48.3798 23.2569 48.8152 23.7812 49.1309C24.3164 49.4357 24.928 49.5881 25.6161 49.5881Z" fill="white"/>
<path d="M39.2155 38.365L34.3127 36.8917L33.531 37.6363L36.6099 40.8471L34.9518 42.4266L27.0508 34.1871L30.1538 31.2312C30.7934 30.6219 31.4476 30.2171 32.1165 30.0165C32.7778 29.8082 33.4039 29.7915 33.9948 29.9665C34.586 30.1261 35.1079 30.442 35.5607 30.9142C36.0814 31.4572 36.3952 32.0995 36.5019 32.841C36.6011 33.5747 36.4181 34.3213 35.9528 35.0808L41.1341 36.5373L39.2155 38.365ZM32.3538 36.4086L33.7395 35.0886C34.1895 34.6599 34.4194 34.2301 34.4292 33.7991C34.439 33.3681 34.259 32.9599 33.8892 32.5743C33.5195 32.1886 33.1222 31.9949 32.6973 31.993C32.265 31.9833 31.8237 32.1928 31.3737 32.6215L29.988 33.9415L32.3538 36.4086Z" fill="white"/>
<path d="M39.6157 30.3577C38.9606 29.4462 38.5797 28.4862 38.473 27.4777C38.3689 26.4541 38.5333 25.4864 38.9663 24.5747C39.4019 23.6479 40.0636 22.8675 40.9515 22.2336C41.9993 21.4856 43.0938 21.0925 44.2352 21.0543C45.3702 21.0073 46.4149 21.3394 47.3693 22.0506L45.225 23.5815C44.7321 23.3442 44.226 23.2569 43.7068 23.3196C43.1876 23.3823 42.6794 23.5911 42.1821 23.9461C41.6316 24.3391 41.2323 24.8116 40.9842 25.3637C40.736 25.9157 40.6575 26.5075 40.7484 27.1388C40.8394 27.7702 41.1011 28.3867 41.5336 28.9885C41.9788 29.608 42.4866 30.0623 43.057 30.3514C43.6364 30.6341 44.2326 30.744 44.8458 30.6812C45.4589 30.6184 46.0541 30.381 46.6312 29.969C47.3416 29.4619 47.7864 28.8564 47.9658 28.1526C48.154 27.4424 48.0731 26.7035 47.7229 25.9358L44.5264 28.2178L43.5152 26.8106L48.5497 23.2165L49.7136 24.836C50.0535 25.5708 50.2164 26.3584 50.2023 27.1987C50.1882 28.039 49.9778 28.8586 49.5713 29.6577C49.1673 30.4415 48.5658 31.1187 47.7666 31.6892C46.8698 32.3294 45.9143 32.7103 44.9 32.8318C43.8882 32.9382 42.9161 32.7819 41.9837 32.363C41.0601 31.9377 40.2707 31.2693 39.6157 30.3577Z" fill="white"/>
<path d="M59.2527 23.7735L54.8777 25.0351L54.7594 27.33L52.446 27.9971L53.2135 15.8938L55.7787 15.1541L62.9113 24.9793L60.5822 25.6509L59.2527 23.7735ZM58.1742 22.2317L55.2258 18.0673L54.9637 23.1574L58.1742 22.2317Z" fill="white"/>
<path d="M74.9385 23.9245L72.6555 24.1435L66.7342 16.8539L67.486 24.6395L65.203 24.8585L64.1058 13.4971L66.3888 13.278L72.3117 20.5839L71.5583 12.7821L73.8414 12.5631L74.9385 23.9245Z" fill="white"/>
<path d="M80.8955 13.0292L80.1 24.3992L77.812 24.2401L78.6075 12.8701L80.8955 13.0292Z" fill="white"/>
<path d="M83.114 19.9008C83.3847 18.8125 83.8703 17.9006 84.5708 17.1652C85.2845 16.4219 86.1245 15.9173 87.0908 15.6513C88.0704 15.3774 89.0902 15.3714 90.1503 15.6333C91.3907 15.9398 92.3984 16.5252 93.1737 17.3896C93.9489 18.2541 94.3828 19.2922 94.4753 20.5038L91.9151 19.8713C91.7762 19.2987 91.5104 18.8293 91.1176 18.463C90.7274 18.0863 90.2302 17.8232 89.626 17.674C88.9793 17.5142 88.3648 17.5194 87.7823 17.6895C87.2105 17.8623 86.7132 18.188 86.2903 18.6667C85.878 19.1481 85.5826 19.748 85.4039 20.4665C85.2252 21.185 85.2053 21.853 85.3443 22.4706C85.4965 23.0802 85.7837 23.5997 86.2057 24.0292C86.641 24.4508 87.182 24.7415 87.8286 24.9012C88.4329 25.0505 88.9958 25.0494 89.5173 24.8979C90.0495 24.749 90.5058 24.4523 90.8864 24.008L93.4465 24.6405C92.7943 25.6794 91.923 26.4006 90.8324 26.8041C89.7551 27.1997 88.5909 27.2429 87.34 26.9339C86.2799 26.672 85.3796 26.1972 84.6392 25.5096C83.912 24.814 83.4057 23.9768 83.1203 22.9978C82.8455 22.0215 82.8434 20.9891 83.114 19.9008Z" fill="white"/>
<path d="M114.406 37.2674C114.801 37.789 114.975 38.3821 114.928 39.0469C114.881 39.7117 114.629 40.2933 114.172 40.7917C113.76 41.2418 113.282 41.5369 112.74 41.677C112.213 41.8163 111.651 41.7916 111.055 41.6028C110.459 41.4139 109.875 41.0589 109.302 40.5377L105.661 37.2231L113.373 28.8073L116.856 31.9788C117.429 32.5 117.836 33.0402 118.078 33.5995C118.328 34.1661 118.407 34.7097 118.315 35.2301C118.23 35.7579 117.997 36.2308 117.614 36.6487C117.164 37.139 116.656 37.4279 116.088 37.5151C115.528 37.6098 114.967 37.5272 114.406 37.2674ZM111.862 33.8455L113.411 35.255C113.814 35.6221 114.209 35.8123 114.596 35.8256C114.983 35.839 115.335 35.6728 115.652 35.3272C115.969 34.9816 116.102 34.6095 116.053 34.2111C116.012 33.8199 115.794 33.4445 115.399 33.0848L113.851 31.6752L111.862 33.8455ZM110.286 38.9791C110.698 39.3535 111.105 39.547 111.507 39.5597C111.925 39.5716 112.304 39.3927 112.642 39.023C112.974 38.6613 113.114 38.2658 113.064 37.8366C113.014 37.4074 112.783 37.0055 112.371 36.6311L110.702 35.1115L108.581 37.4264L110.286 38.9791Z" fill="white"/>
<path d="M127.597 45.928L119.257 46.9037L115.961 49.1288L114.674 47.236L117.971 45.0109L121.965 37.6403L123.417 39.7765L120.472 44.7028L126.145 43.7919L127.597 45.928Z" fill="white"/>
<path d="M97.2002 30.9513C96.4932 30.5839 95.9172 30.131 95.4721 29.5928C95.0366 29.0595 94.7729 28.4805 94.681 27.8557C94.5891 27.2309 94.6999 26.6071 95.0134 25.9843L97.1924 27.1168C96.9992 27.5566 96.9678 27.9699 97.0979 28.3568C97.2378 28.7487 97.5402 29.0655 98.005 29.3071C98.4795 29.5537 98.913 29.6316 99.3053 29.5409C99.6977 29.4502 99.9949 29.2118 100.197 28.8257C100.353 28.5264 100.39 28.2325 100.307 27.9438C100.224 27.6551 100.07 27.3847 99.8447 27.1326C99.6342 26.8758 99.3221 26.554 98.9086 26.1672C98.3511 25.6319 97.9121 25.1643 97.5916 24.7645C97.2858 24.3601 97.0813 23.8916 96.9781 23.3591C96.8895 22.822 97.0119 22.235 97.3452 21.5979C97.6583 20.9994 98.0811 20.5562 98.6136 20.2682C99.1461 19.9802 99.7441 19.8614 100.408 19.9116C101.076 19.9521 101.759 20.1536 102.456 20.516C103.502 21.0596 104.216 21.7558 104.597 22.6046C104.993 23.4488 104.988 24.3422 104.581 25.2847L102.344 24.122C102.521 23.7355 102.528 23.3583 102.363 22.9903C102.213 22.6177 101.91 22.3131 101.455 22.0766C101.058 21.8702 100.683 21.8103 100.33 21.8968C99.9913 21.9787 99.716 22.2224 99.5039 22.6278C99.3625 22.8981 99.331 23.1702 99.4094 23.4442C99.5025 23.7136 99.6495 23.9741 99.8504 24.2258C100.066 24.4729 100.378 24.7947 100.787 25.1912C101.344 25.7265 101.781 26.1989 102.096 26.6084C102.411 27.0178 102.618 27.4936 102.716 28.0358C102.815 28.5779 102.7 29.1627 102.371 29.7901C102.089 30.3306 101.686 30.7596 101.162 31.0769C100.639 31.3943 100.033 31.552 99.3443 31.5501C98.6606 31.5385 97.9459 31.3389 97.2002 30.9513Z" fill="white"/>
</svg>
