<svg width="164" height="276" viewBox="0 0 164 276" fill="none" xmlns="http://www.w3.org/2000/svg">
<path d="M61.262 223.935C25.3048 190.386 3.53678 144.432 0.394479 95.4408C-2.74779 46.4493 12.9721 -1.8927 44.3503 -39.7325C74.8343 -76.4938 117.868 -100.655 165.102 -107.639C167.399 -107.979 169.505 -106.347 169.796 -104.05L169.808 -103.942C170.032 -101.723 168.468 -99.7192 166.263 -99.3353L166.156 -99.318C121.398 -92.6553 80.5967 -69.8669 51.5193 -35.2116L50.8347 -34.3907C21.0551 1.52121 6.0198 47.3224 8.72247 93.8077L8.78963 94.9059C11.7953 141.768 32.617 185.723 67.0109 217.814C101.405 249.905 146.782 267.715 193.894 267.615L194.998 267.609C241.714 267.233 286.575 249.26 320.564 217.276C354.82 185.039 375.454 140.996 378.259 94.1217C381.042 47.6138 366.067 1.79304 336.366 -34.1483L335.662 -34.9952C306.392 -69.9876 265.202 -92.9088 220.065 -99.4325C217.766 -99.7647 216.123 -101.85 216.404 -104.149C216.685 -106.447 218.784 -108.088 221.083 -107.758C268.346 -100.974 311.483 -76.9961 342.123 -40.3645L342.86 -39.479C373.911 -1.90405 389.566 45.9994 386.656 94.621C383.723 143.625 362.152 189.671 326.339 223.372C290.805 256.811 243.905 275.6 195.066 275.994L193.912 276C145.044 276.103 97.9604 257.774 62.1067 224.719L61.262 223.935Z" fill="white" fill-opacity="0.1"/>
<path d="M133.762 201.355L106.726 221.645C106.09 222.173 105.395 222.479 104.639 222.561C103.939 222.629 103.288 222.49 102.686 222.144C101.731 221.594 101.176 220.922 101.022 220.128C100.868 219.334 101.016 218.549 101.465 217.773C101.649 217.455 101.896 217.151 102.207 216.859L133.752 192.814C134.444 192.271 135.185 191.968 135.976 191.906C136.803 191.864 137.532 192.072 138.164 192.529C138.801 192.895 139.273 193.425 139.579 194.119C139.941 194.798 140.052 195.543 139.912 196.356L135.019 234.884C134.93 235.444 134.774 235.919 134.549 236.307C133.998 237.259 133.24 237.835 132.276 238.033C131.347 238.251 130.511 238.147 129.768 237.719C129.131 237.353 128.659 236.823 128.352 236.129C128.082 235.456 127.999 234.703 128.103 233.869L132.038 200.787L133.762 201.355ZM112.111 216.135L118.555 211.728L132.892 219.974L130.377 226.641L112.111 216.135Z" fill="white" fill-opacity="0.1"/>
<path d="M258.669 200.162L260.378 233.85C260.46 234.671 260.324 235.417 259.969 236.087C259.633 236.703 259.153 237.162 258.528 237.465C257.535 237.946 256.666 238.027 255.92 237.709C255.174 237.391 254.605 236.829 254.212 236.023C254.051 235.693 253.936 235.319 253.868 234.899L251.566 195.383C251.502 194.508 251.666 193.727 252.058 193.039C252.486 192.333 253.067 191.847 253.801 191.582C254.463 191.261 255.168 191.169 255.916 191.305C256.683 191.386 257.364 191.713 257.961 192.284L287.234 217.914C287.65 218.301 287.956 218.696 288.153 219.099C288.635 220.089 288.689 221.037 288.313 221.943C287.974 222.832 287.419 223.464 286.647 223.838C285.985 224.159 285.28 224.251 284.532 224.115C283.821 223.962 283.149 223.608 282.515 223.054L257.231 201.267L258.669 200.162ZM258.816 226.318L258.766 218.528L273.652 211.314L277.783 217.126L258.816 226.318Z" fill="white" fill-opacity="0.1"/>
<path d="M180.777 205.115C182.865 205.51 184.698 206.478 186.277 208.02C187.896 209.57 189.074 211.472 189.81 213.725C190.546 215.979 190.674 218.366 190.195 220.888C189.723 223.37 188.731 225.525 187.218 227.354C185.706 229.182 183.908 230.543 181.825 231.435C179.79 232.294 177.728 232.526 175.64 232.132L164.557 230.038L165.364 229.071L163.001 241.499C162.803 242.54 162.315 243.359 161.535 243.959C160.763 244.518 159.855 244.698 158.811 244.501C157.807 244.312 157.049 243.816 156.536 243.014C156.03 242.172 155.876 241.231 156.074 240.19L162.673 205.489C162.871 204.449 163.376 203.653 164.188 203.101C165.047 202.517 165.999 202.324 167.043 202.521L180.777 205.115ZM176.941 225.288C177.704 225.432 178.508 225.252 179.353 224.748C180.197 224.244 180.955 223.538 181.628 222.628C182.307 221.678 182.754 220.643 182.967 219.523C183.188 218.362 183.152 217.236 182.861 216.144C182.569 215.052 182.119 214.138 181.51 213.401C180.909 212.624 180.227 212.164 179.464 212.02L168.26 209.903L169.189 208.959L166.278 224.268L165.798 223.183L176.941 225.288Z" fill="white" fill-opacity="0.1"/>
<path d="M219.405 204.345C221.509 204.047 223.558 204.374 225.551 205.326C227.585 206.273 229.315 207.695 230.741 209.591C232.167 211.488 233.061 213.707 233.423 216.248C233.779 218.748 233.537 221.107 232.697 223.324C231.857 225.542 230.596 227.407 228.912 228.921C227.264 230.389 225.387 231.271 223.283 231.569L212.115 233.149L212.566 231.974L214.35 244.498C214.5 245.546 214.302 246.479 213.758 247.297C213.209 248.074 212.408 248.537 211.355 248.686C210.344 248.829 209.465 248.604 208.72 248.01C207.969 247.376 207.519 246.534 207.37 245.485L202.389 210.517C202.24 209.469 202.46 208.553 203.05 207.77C203.675 206.941 204.514 206.452 205.566 206.303L219.405 204.345ZM222.301 224.672C223.07 224.563 223.772 224.135 224.409 223.386C225.045 222.638 225.534 221.725 225.876 220.648C226.213 219.531 226.3 218.408 226.139 217.278C225.973 216.109 225.575 215.054 224.946 214.114C224.316 213.175 223.595 212.454 222.78 211.952C221.96 211.41 221.165 211.193 220.396 211.302L209.106 212.9L209.68 211.707L211.877 227.135L211.072 226.261L222.301 224.672Z" fill="white" fill-opacity="0.1"/>
<path d="M294.177 192.653C294.179 192.653 294.179 192.65 294.178 192.649C289.511 188.471 292.815 186.302 294.969 184.178C309.092 170.239 319.521 153.891 326.748 135.533C339.229 103.814 339.514 71.7324 329.119 39.412C328.708 38.151 327.956 36.8559 328.047 35.629C328.21 33.377 332.355 31.9136 333.12 34.0387C333.128 34.0612 333.136 34.0838 333.142 34.1067C335.582 42.4452 338.374 50.761 339.788 59.2927C347.801 107.699 334.294 149.778 301.386 185.927C299.256 188.266 296.75 190.265 294.175 192.649C294.174 192.65 294.175 192.653 294.177 192.653Z" fill="white" fill-opacity="0.1"/>
<path d="M50.2673 42.661C51.3009 37.5912 55.9438 42.6274 54.7695 47.6668C53.656 52.446 52.5924 57.1323 51.8745 61.8715C44.8302 108.347 58.3374 148.415 90.2644 182.621C92.0768 184.553 94.2881 186.2 95.7243 188.37C95.8105 188.501 95.8877 188.638 95.9571 188.78C96.9866 190.887 93.863 193.902 92.0653 192.391C89.0334 189.847 86.2294 186.984 83.5849 184.019C54.5189 151.414 40.875 113.584 45.309 69.892C46.2322 60.7355 48.4207 51.7039 50.2673 42.661Z" fill="white" fill-opacity="0.1"/>
<path d="M193.808 -111C198.515 -110.784 202.288 -106.774 202.163 -102.128C202.026 -97.2198 197.752 -93.1301 192.987 -93.3573C187.846 -93.6072 184.245 -97.5152 184.45 -102.627C184.643 -107.637 188.656 -111.227 193.819 -110.989L193.808 -111Z" fill="white" fill-opacity="0.1"/>
<path d="M79.7495 98.2265C77.7436 90.6422 79.5189 86.2803 86.1015 82.5168C118.922 63.7573 151.432 44.4568 183.987 25.2369C187.595 23.1078 190.328 22.6474 194.316 25.0528C213.361 36.5732 232.682 47.6333 251.911 58.843C253.525 59.7867 255.231 60.5463 258.067 61.9849C258.067 54.3085 258.275 47.5297 257.894 40.7855C257.813 39.3929 255.738 37.7586 254.217 36.8609C233.904 24.8226 213.499 12.9569 193.21 0.895538C190.374 -0.78476 188.31 -0.79628 185.405 0.930061C165.277 12.8878 144.964 24.5349 124.859 36.5272C122.807 37.7586 120.259 40.866 120.513 42.765C121.585 50.8098 117.781 54.8264 110.311 57.0016L109.4 45.6077C99.0591 51.6039 89.5484 57.1282 79.9109 62.7215C77.6168 52.9044 77.9741 51.9607 86.0323 47.242C118.968 27.93 151.95 8.66406 184.875 -10.694C187.711 -12.3627 189.936 -12.9152 193.152 -11.0162C226.192 8.50294 259.37 27.8034 292.479 47.219C300.41 51.8686 300.514 52.3289 298.508 62.6294C288.801 56.9901 279.29 51.4658 268.535 45.2164C268.535 53.4223 268.362 60.3967 268.696 67.3481C268.754 68.545 270.806 69.9031 272.201 70.7547C278.76 74.7483 285.4 78.5808 292.017 82.4708C300.479 87.4542 300.502 87.4887 298.646 98.2956C288.87 92.6102 279.302 87.0859 269.78 81.4926C244.464 66.623 219.136 51.7765 193.89 36.7919C190.754 34.9274 188.425 34.6282 185.059 36.6423C164.966 48.6461 144.641 60.2816 124.536 72.2739C122.623 73.4133 120.455 76.1409 120.432 78.1665C120.144 100.033 120.248 121.9 120.282 143.767C120.282 144.654 120.617 145.54 121.032 147.646C127.119 144.55 132.814 141.972 138.128 138.761C139.431 137.967 139.834 135.182 140.065 133.237C140.814 126.976 140.699 120.554 142.002 114.42C146.036 95.3493 157.576 82.3672 175.583 75.013C188.345 69.7995 201.637 67.6933 215.251 67.6128C224.67 106.95 196.357 147.22 158.844 145.735C164.966 141.512 170.672 136.425 177.289 133.225C193.763 125.226 201.429 111.439 204.818 94.4861C205.821 89.4798 206.063 84.3353 206.651 79.3404C179.687 73.4363 146.117 104.027 151.42 130.21C157.484 125.111 163.259 120.519 168.712 115.57C174.038 110.737 179.018 105.523 184.448 100.839C167.433 129.819 146.232 153.607 109.884 160.421V80.825C99.1283 87.0399 89.6291 92.5181 79.7495 98.2265Z" fill="white" fill-opacity="0.1"/>
<path d="M174.223 159.857C179.779 157.083 185.682 153.964 191.757 151.214C193.74 150.316 196.172 150.12 198.409 150.109C216.277 150.017 234.158 149.913 252.026 150.132C256.787 150.189 258.286 148.682 258.228 143.894C257.986 124.916 258.125 105.938 258.125 86.9017C267.047 89.215 268.269 90.7227 268.258 99.2508C268.258 117.285 268.258 135.32 268.212 153.354C268.212 155.403 268.016 157.451 267.901 159.857H174.223Z" fill="white" fill-opacity="0.1"/>
<path d="M67.9001 26.026C65.063 26.026 62.4574 25.3624 60.0835 24.035C57.7095 22.7077 55.8278 20.8754 54.4381 18.5381C53.0485 16.172 52.3537 13.5029 52.3537 10.5308C52.3537 7.58752 53.0485 4.94727 54.4381 2.60999C55.8278 0.243858 57.7095 -1.60288 60.0835 -2.93022C62.4574 -4.25756 65.063 -4.92123 67.9001 -4.92123C70.7662 -4.92123 73.3717 -4.25756 75.7167 -2.93022C78.0907 -1.60288 79.958 0.243858 81.3187 2.60999C82.7083 4.94727 83.4031 7.58752 83.4031 10.5308C83.4031 13.5029 82.7083 16.172 81.3187 18.5381C79.958 20.8754 78.0907 22.7077 75.7167 24.035C73.3428 25.3624 70.7373 26.026 67.9001 26.026ZM67.9001 20.4426C69.724 20.4426 71.3307 20.0386 72.7204 19.2306C74.11 18.3938 75.1956 17.2396 75.9773 15.768C76.759 14.2675 77.1498 12.5218 77.1498 10.5308C77.1498 8.53975 76.759 6.80843 75.9773 5.33681C75.1956 3.83634 74.11 2.68213 72.7204 1.87418C71.3307 1.06623 69.724 0.662254 67.9001 0.662254C66.0762 0.662254 64.455 1.06623 63.0364 1.87418C61.6468 2.68213 60.5612 3.83634 59.7795 5.33681C58.9978 6.80843 58.607 8.53975 58.607 10.5308C58.607 12.5218 58.9978 14.2675 59.7795 15.768C60.5612 17.2396 61.6468 18.3938 63.0364 19.2306C64.455 20.0386 66.0762 20.4426 67.9001 20.4426Z" fill="white" fill-opacity="0.1"/>
<path d="M103.948 -9.3064L90.9521 -13.2118L88.8802 -11.238L97.0414 -2.72716L92.6463 1.45965L71.7033 -20.3807L79.9283 -28.216C81.6235 -29.8309 83.3576 -30.9041 85.1307 -31.4356C86.8837 -31.9879 88.5433 -32.0322 90.1094 -31.5683C91.6765 -31.1452 93.0601 -30.3078 94.2603 -29.0562C95.6405 -27.6169 96.4721 -25.9144 96.7551 -23.9487C97.0181 -22.004 96.533 -20.025 95.2996 -18.0119L109.034 -14.1511L103.948 -9.3064ZM85.7597 -14.4922L89.4327 -17.9911C90.6257 -19.1276 91.2351 -20.2669 91.261 -21.4092C91.2869 -22.5516 90.8098 -23.6338 89.8297 -24.6559C88.8495 -25.6781 87.7964 -26.1916 86.6703 -26.1966C85.5243 -26.2224 84.3547 -25.6672 83.1618 -24.5307L79.4888 -21.0318L85.7597 -14.4922Z" fill="white" fill-opacity="0.1"/>
<path d="M105.009 -30.5312C103.272 -32.9475 102.263 -35.4921 101.98 -38.1652C101.704 -40.8785 102.14 -43.4435 103.287 -45.8601C104.442 -48.317 106.196 -50.3855 108.55 -52.0658C111.327 -54.0485 114.228 -55.0904 117.254 -55.1916C120.262 -55.3163 123.031 -54.436 125.561 -52.5508L119.877 -48.493C118.571 -49.1219 117.229 -49.3533 115.853 -49.1871C114.477 -49.021 113.13 -48.4675 111.812 -47.5265C110.352 -46.4848 109.294 -45.2322 108.636 -43.7689C107.978 -42.3055 107.77 -40.7371 108.011 -39.0636C108.252 -37.3901 108.946 -35.7557 110.092 -34.1605C111.273 -32.5184 112.619 -31.3143 114.131 -30.5481C115.666 -29.7987 117.247 -29.5073 118.872 -29.6737C120.497 -29.8402 122.075 -30.4695 123.605 -31.5617C125.488 -32.9059 126.667 -34.5108 127.142 -36.3764C127.641 -38.2589 127.427 -40.2175 126.498 -42.2524L118.025 -36.2036L115.345 -39.9335L128.69 -49.4604L131.775 -45.1675C132.676 -43.2198 133.108 -41.1323 133.07 -38.9049C133.033 -36.6776 132.475 -34.5049 131.398 -32.3869C130.327 -30.3092 128.733 -28.5142 126.614 -27.002C124.237 -25.3049 121.704 -24.2953 119.016 -23.9732C116.334 -23.6913 113.757 -24.1056 111.285 -25.216C108.837 -26.3432 106.745 -28.115 105.009 -30.5312Z" fill="white" fill-opacity="0.1"/>
<path d="M157.06 -47.9839L145.464 -44.6399L145.15 -38.5567L139.018 -36.7884L141.052 -68.8706L147.852 -70.8313L166.758 -44.7877L160.584 -43.0074L157.06 -47.9839ZM154.201 -52.0708L146.386 -63.1093L145.692 -49.6169L154.201 -52.0708Z" fill="white" fill-opacity="0.1"/>
<path d="M198.638 -47.5837L192.587 -47.0031L176.891 -66.3257L178.884 -45.6886L172.833 -45.108L169.924 -75.2236L175.976 -75.8041L191.676 -56.4385L189.679 -77.1187L195.73 -77.6993L198.638 -47.5837Z" fill="white" fill-opacity="0.1"/>
<path d="M214.429 -76.4637L212.32 -46.3255L206.255 -46.747L208.364 -76.8853L214.429 -76.4637Z" fill="white" fill-opacity="0.1"/>
<path d="M220.309 -58.2492C221.027 -61.134 222.314 -63.5511 224.17 -65.5003C226.062 -67.4707 228.289 -68.8083 230.85 -69.5133C233.447 -70.2393 236.15 -70.2552 238.96 -69.561C242.248 -68.7487 244.919 -67.1969 246.974 -64.9055C249.029 -62.6141 250.179 -59.8626 250.424 -56.6508L243.638 -58.3273C243.27 -59.8453 242.565 -61.0896 241.524 -62.0603C240.49 -63.059 239.172 -63.7562 237.57 -64.1519C235.856 -64.5754 234.227 -64.5616 232.683 -64.1107C231.168 -63.6527 229.849 -62.7893 228.728 -61.5203C227.636 -60.2444 226.852 -58.6542 226.379 -56.7497C225.905 -54.8452 225.853 -53.0745 226.221 -51.4376C226.624 -49.8217 227.385 -48.4446 228.504 -47.306C229.658 -46.1886 231.092 -45.4181 232.806 -44.9947C234.408 -44.5989 235.9 -44.6019 237.282 -45.0036C238.693 -45.3983 239.902 -46.1846 240.911 -47.3623L247.697 -45.6857C245.969 -42.9319 243.659 -41.0202 240.768 -39.9507C237.912 -38.9022 234.827 -38.7876 231.511 -39.6068C228.701 -40.301 226.315 -41.5594 224.352 -43.3821C222.424 -45.2259 221.082 -47.4452 220.326 -50.0401C219.597 -52.6281 219.592 -55.3644 220.309 -58.2492Z" fill="white" fill-opacity="0.1"/>
<path d="M303.256 -12.2158C304.302 -10.8333 304.763 -9.26102 304.638 -7.49886C304.513 -5.7367 303.845 -4.19513 302.635 -2.87415C301.542 -1.681 300.276 -0.898781 298.838 -0.527481C297.441 -0.158035 295.952 -0.223579 294.372 -0.724129C292.792 -1.22468 291.243 -2.16576 289.725 -3.54739L280.074 -12.3334L300.515 -34.6409L309.75 -26.2344C311.267 -24.8528 312.347 -23.4207 312.988 -21.9382C313.651 -20.4363 313.859 -18.9956 313.615 -17.6161C313.391 -16.2171 312.772 -14.9637 311.757 -13.8558C310.566 -12.5561 309.218 -11.7906 307.712 -11.5592C306.227 -11.3083 304.742 -11.5272 303.256 -12.2158ZM296.511 -21.2863L300.616 -17.55C301.684 -16.577 302.732 -16.0729 303.758 -16.0375C304.784 -16.0021 305.717 -16.4425 306.557 -17.3587C307.396 -18.2749 307.751 -19.2611 307.621 -20.3173C307.512 -21.354 306.934 -22.3492 305.887 -23.3027L301.783 -27.0389L296.511 -21.2863ZM292.335 -7.67866C293.425 -6.68622 294.503 -6.17325 295.571 -6.13972C296.679 -6.10806 297.682 -6.58226 298.58 -7.56234C299.458 -8.52112 299.831 -9.56937 299.697 -10.7071C299.563 -11.8449 298.951 -12.91 297.861 -13.9024L293.436 -17.9305L287.813 -11.7944L292.335 -7.67866Z" fill="white" fill-opacity="0.1"/>
<path d="M338.219 10.7406L316.112 13.3269L307.375 19.2249L303.966 14.2078L312.703 8.30968L323.291 -11.2274L327.139 -5.56516L319.333 7.49301L334.371 5.07839L338.219 10.7406Z" fill="white" fill-opacity="0.1"/>
<path d="M257.647 -28.9578C255.773 -29.9317 254.246 -31.1321 253.066 -32.5589C251.912 -33.9724 251.213 -35.5072 250.97 -37.1633C250.726 -38.8195 251.02 -40.4729 251.851 -42.1238L257.626 -39.1219C257.114 -37.9561 257.031 -36.8605 257.376 -35.835C257.747 -34.7962 258.548 -33.9566 259.78 -33.3162C261.038 -32.6625 262.187 -32.4559 263.227 -32.6964C264.267 -32.9369 265.055 -33.5688 265.59 -34.5922C266.005 -35.3854 266.103 -36.1646 265.883 -36.9298C265.663 -37.695 265.254 -38.4118 264.657 -39.0801C264.099 -39.7607 263.272 -40.6136 262.176 -41.6389C260.698 -43.0579 259.534 -44.2973 258.685 -45.3571C257.874 -46.4291 257.332 -47.6709 257.058 -49.0823C256.824 -50.506 257.148 -52.0622 258.031 -53.7508C258.861 -55.3371 259.982 -56.512 261.394 -57.2753C262.805 -58.0387 264.39 -58.3538 266.149 -58.2207C267.921 -58.1132 269.731 -57.5792 271.58 -56.6186C274.352 -55.1777 276.243 -53.3323 277.254 -51.0824C278.303 -48.8447 278.289 -46.4766 277.21 -43.9782L271.281 -47.0601C271.751 -48.0846 271.768 -49.0845 271.332 -50.0599C270.934 -51.0475 270.132 -51.8549 268.926 -52.4819C267.873 -53.029 266.879 -53.1878 265.943 -52.9584C265.046 -52.7413 264.316 -52.0955 263.754 -51.0209C263.379 -50.3045 263.295 -49.5831 263.503 -48.8569C263.75 -48.1428 264.139 -47.4522 264.672 -46.7849C265.243 -46.1299 266.071 -45.277 267.153 -44.2261C268.631 -42.8072 269.788 -41.555 270.624 -40.4696C271.46 -39.3842 272.009 -38.123 272.269 -36.686C272.529 -35.249 272.224 -33.6989 271.354 -32.0358C270.605 -30.6031 269.536 -29.466 268.15 -28.6248C266.763 -27.7836 265.156 -27.3656 263.331 -27.3707C261.518 -27.4015 259.624 -27.9305 257.647 -28.9578Z" fill="white" fill-opacity="0.1"/>
</svg>
