<svg width="75" height="75" viewBox="0 0 75 75" fill="none" xmlns="http://www.w3.org/2000/svg">
<path d="M11.8725 64.9099C4.90404 58.4081 0.685423 49.5024 0.0764493 40.0079C-0.532518 30.5134 2.51396 21.1448 8.59502 13.8115C14.5028 6.68725 22.8426 2.00489 31.9964 0.651397C32.4417 0.585553 32.8498 0.90179 32.9062 1.34697L32.9085 1.3678C32.9519 1.79781 32.6488 2.18619 32.2215 2.26061L32.2007 2.26395C23.5268 3.55518 15.6195 7.97153 9.98435 14.6877L9.85169 14.8468C4.08045 21.8064 1.16663 30.6826 1.6904 39.6914L1.70342 39.9043C2.28592 48.986 6.32112 57.5045 12.9866 63.7236C19.6521 69.9428 28.4462 73.3944 37.5764 73.375L37.7903 73.3739C46.8437 73.3009 55.5377 69.8179 62.1247 63.6193C68.7636 57.3719 72.7623 48.8364 73.306 39.7523C73.8454 30.7391 70.9433 21.8591 65.1872 14.8937L65.0508 14.7296C59.3784 7.94814 51.3958 3.50604 42.6482 2.24177C42.2026 2.17737 41.8843 1.77321 41.9388 1.3278C41.9932 0.882384 42.3999 0.564434 42.8455 0.628383C52.0051 1.943 60.3648 6.58991 66.303 13.6891L66.4457 13.8607C72.4633 21.1426 75.4974 30.4262 74.9334 39.849C74.365 49.346 70.1845 58.2696 63.2439 64.8009C56.3576 71.2812 47.2684 74.9225 37.8035 74.9988L37.5799 74.9999C28.1092 75.02 18.9846 71.4679 12.0362 65.0618L11.8725 64.9099Z" fill="#6D755E"/>
<path d="M25.9228 60.534L20.6834 64.4662C20.5602 64.5685 20.4253 64.6276 20.2789 64.6437C20.1432 64.6568 20.0171 64.6298 19.9005 64.5628C19.7152 64.4562 19.6077 64.326 19.5779 64.1721C19.5481 64.0183 19.5767 63.8661 19.6638 63.7157C19.6995 63.6542 19.7474 63.5951 19.8075 63.5386L25.9209 58.8786C26.055 58.7734 26.1987 58.7148 26.352 58.7027C26.5122 58.6946 26.6535 58.7348 26.7759 58.8235C26.8994 58.8945 26.9908 58.9972 27.0502 59.1316C27.1204 59.2631 27.1419 59.4076 27.1147 59.5652L26.1665 67.0317C26.1493 67.1404 26.119 67.2323 26.0754 67.3075C25.9685 67.4921 25.8217 67.6036 25.6348 67.642C25.4549 67.6843 25.2929 67.6641 25.1488 67.5812C25.0253 67.5102 24.9339 67.4075 24.8745 67.2731C24.822 67.1426 24.8059 66.9967 24.8263 66.8352L25.5887 60.4239L25.9228 60.534ZM21.7269 63.3983L22.9757 62.5442L25.7543 64.1423L25.2669 65.4343L21.7269 63.3983Z" fill="#9C7346"/>
<path d="M50.1296 60.3028L50.4608 66.8315C50.4767 66.9905 50.4503 67.135 50.3816 67.2649C50.3165 67.3842 50.2234 67.4732 50.1023 67.5319C49.9099 67.6251 49.7415 67.6409 49.5969 67.5793C49.4524 67.5177 49.342 67.4088 49.2658 67.2526C49.2346 67.1887 49.2124 67.116 49.1992 67.0347L48.753 59.3766C48.7407 59.207 48.7725 59.0555 48.8484 58.9222C48.9314 58.7854 49.044 58.6913 49.1863 58.6399C49.3145 58.5778 49.4511 58.5599 49.5961 58.5862C49.7447 58.602 49.8768 58.6652 49.9925 58.776L55.6654 63.743C55.7461 63.8181 55.8054 63.8946 55.8435 63.9727C55.9371 64.1644 55.9474 64.3482 55.8746 64.5239C55.8089 64.6962 55.7013 64.8186 55.5517 64.8911C55.4235 64.9532 55.2869 64.9711 55.1419 64.9448C55.0041 64.915 54.8738 64.8465 54.751 64.7392L49.8509 60.5169L50.1296 60.3028ZM50.1582 65.3717L50.1484 63.8621L53.0334 62.464L53.8339 63.5904L50.1582 65.3717Z" fill="#9C7346"/>
<path d="M35.0343 61.2627C35.439 61.3391 35.7943 61.5268 36.1002 61.8256C36.414 62.126 36.6422 62.4945 36.7849 62.9312C36.9275 63.368 36.9524 63.8307 36.8595 64.3194C36.7681 64.8003 36.5758 65.218 36.2826 65.5724C35.9895 65.9268 35.6411 66.1905 35.2374 66.3633C34.8429 66.5298 34.4434 66.5749 34.0387 66.4984L31.8908 66.0927L32.0474 65.9053L31.5894 68.3138C31.5511 68.5154 31.4563 68.6743 31.3053 68.7904C31.1557 68.8988 30.9797 68.9338 30.7774 68.8956C30.5828 68.8588 30.4358 68.7628 30.3364 68.6074C30.2384 68.4442 30.2086 68.2618 30.247 68.0602L31.5257 61.3351C31.5641 61.1335 31.6619 60.9792 31.8193 60.8723C31.9859 60.7592 32.1704 60.7217 32.3728 60.7599L35.0343 61.2627ZM34.2909 65.172C34.4388 65.2 34.5946 65.1651 34.7582 65.0675C34.9219 64.9698 35.0689 64.8329 35.1991 64.6566C35.3309 64.4726 35.4174 64.272 35.4587 64.0548C35.5015 63.8298 35.4946 63.6116 35.4381 63.4C35.3816 63.1885 35.2943 63.0113 35.1764 62.8685C35.0599 62.7179 34.9277 62.6286 34.7799 62.6007L32.6086 62.1906L32.7885 62.0076L32.2244 64.9745L32.1313 64.7641L34.2909 65.172Z" fill="#9C7346"/>
<path d="M42.5204 61.1133C42.9282 61.0556 43.3252 61.119 43.7115 61.3036C44.1057 61.487 44.4409 61.7625 44.7173 62.1301C44.9936 62.4976 45.1669 62.9276 45.237 63.4201C45.3061 63.9047 45.2592 64.3618 45.0964 64.7915C44.9336 65.2213 44.6891 65.5828 44.3628 65.8761C44.0434 66.1606 43.6797 66.3316 43.2719 66.3893L41.1075 66.6956L41.1951 66.4679L41.5408 68.8949C41.5697 69.0981 41.5315 69.279 41.426 69.4374C41.3195 69.5881 41.1643 69.6778 40.9604 69.7066C40.7643 69.7344 40.5941 69.6907 40.4497 69.5756C40.3042 69.4526 40.2169 69.2896 40.188 69.0863L39.2227 62.3095C39.1937 62.1063 39.2365 61.9288 39.3509 61.7771C39.472 61.6164 39.6345 61.5217 39.8384 61.4928L42.5204 61.1133ZM43.0815 65.0527C43.2305 65.0317 43.3667 64.9486 43.49 64.8036C43.6134 64.6585 43.7082 64.4816 43.7745 64.2729C43.8396 64.0564 43.8566 63.8387 43.8254 63.6198C43.7932 63.3931 43.716 63.1888 43.5941 63.0067C43.4722 62.8246 43.3323 62.6849 43.1744 62.5876C43.0154 62.4825 42.8615 62.4405 42.7124 62.4616L40.5245 62.7712L40.6356 62.5402L41.0614 65.53L40.9053 65.3607L43.0815 65.0527Z" fill="#9C7346"/>
<path d="M57.011 58.8474C57.0114 58.8474 57.0115 58.8469 57.0112 58.8467C56.1068 58.037 56.7471 57.6166 57.1645 57.205C59.9015 54.5036 61.9227 51.3355 63.3232 47.7776C65.7421 41.6307 65.7973 35.4132 63.7827 29.1496C63.7032 28.9052 63.5574 28.6542 63.575 28.4165C63.6066 27.98 64.4099 27.6964 64.5582 28.1083C64.5597 28.1126 64.5611 28.117 64.5625 28.1214C65.0352 29.7374 65.5764 31.349 65.8503 33.0025C67.4032 42.3836 64.7856 50.5385 58.4082 57.5441C57.9953 57.9973 57.5096 58.3847 57.0107 58.8467C57.0104 58.8469 57.0106 58.8474 57.011 58.8474Z" fill="#6D755E"/>
<path d="M9.74172 29.7793C9.94203 28.7967 10.8418 29.7728 10.6143 30.7494C10.3984 31.6756 10.1923 32.5838 10.0532 33.5022C8.68803 42.5091 11.3057 50.2743 17.4931 56.9034C17.8443 57.2777 18.2729 57.5969 18.5512 58.0174C18.5679 58.0428 18.5829 58.0693 18.5963 58.0969C18.7959 58.5052 18.1905 59.0895 17.8421 58.7968C17.2545 58.3036 16.7111 57.7488 16.1986 57.1742C10.5657 50.8555 7.92151 43.5241 8.78081 35.0566C8.95974 33.2821 9.38386 31.5318 9.74172 29.7793Z" fill="#6D755E"/>
<path d="M37.5596 0C38.472 0.041831 39.2031 0.819007 39.1788 1.71947C39.1523 2.67058 38.324 3.46317 37.4006 3.41913C36.4043 3.3707 35.7063 2.61334 35.7461 1.6226C35.7836 0.651683 36.5612 -0.0440326 37.5619 0.00220163L37.5596 0Z" fill="#6D755E"/>
<path d="M15.4553 40.5478C15.0666 39.0779 15.4106 38.2326 16.6863 37.5033C23.0469 33.8677 29.3472 30.1273 35.6564 26.4025C36.3557 25.9899 36.8852 25.9007 37.6582 26.3668C41.349 28.5995 45.0934 30.7429 48.82 32.9153C49.1327 33.0982 49.4634 33.2454 50.013 33.5242C50.013 32.0365 50.0532 30.7228 49.9795 29.4158C49.9638 29.1459 49.5617 28.8292 49.2668 28.6552C45.3302 26.3222 41.3758 24.0227 37.4437 21.6852C36.8941 21.3595 36.4942 21.3573 35.9312 21.6919C32.0304 24.0093 28.0938 26.2664 24.1975 28.5905C23.7998 28.8292 23.3061 29.4314 23.3552 29.7994C23.563 31.3585 22.8257 32.1369 21.378 32.5584L21.2015 30.3503C19.1975 31.5124 17.3543 32.583 15.4866 33.667C15.042 31.7644 15.1113 31.5815 16.6729 30.6671C23.0559 26.9244 29.4477 23.1907 35.8284 19.4392C36.378 19.1157 36.8092 19.0087 37.4325 19.3767C43.8356 23.1595 50.2654 26.8999 56.6819 30.6626C58.219 31.5637 58.2391 31.6529 57.8503 33.6491C55.9692 32.5562 54.126 31.4856 52.0416 30.2745C52.0416 31.8648 52.0081 33.2164 52.0729 34.5636C52.084 34.7955 52.4817 35.0587 52.752 35.2238C54.0233 35.9977 55.3101 36.7405 56.5925 37.4943C58.2324 38.4601 58.2368 38.4668 57.8772 40.5612C55.9826 39.4593 54.1283 38.3887 52.2829 37.3048C47.3767 34.4231 42.4683 31.5458 37.5755 28.6418C36.9678 28.2805 36.5165 28.2225 35.8642 28.6128C31.9701 30.9392 28.0313 33.1941 24.135 35.5182C23.7641 35.739 23.3441 36.2676 23.3396 36.6602C23.2837 40.898 23.3039 45.1357 23.3106 49.3735C23.3106 49.5453 23.3753 49.717 23.4558 50.1252C24.6354 49.5252 25.7391 49.0256 26.769 48.4033C27.0215 48.2494 27.0997 47.7096 27.1443 47.3327C27.2896 46.1194 27.2672 44.8748 27.5197 43.686C28.3016 39.9902 30.538 37.4743 34.0277 36.049C36.5009 35.0387 39.0769 34.6305 41.7154 34.6149C43.5407 42.2384 38.0536 50.0427 30.7837 49.7549C31.9701 48.9364 33.076 47.9505 34.3584 47.3305C37.551 45.7803 39.0367 43.1083 39.6935 39.8229C39.8879 38.8527 39.9348 37.8557 40.0487 36.8877C34.8231 35.7435 28.3173 41.6719 29.345 46.7461C30.5201 45.758 31.6394 44.8681 32.6962 43.909C33.7283 42.9722 34.6935 41.9619 35.7458 41.0541C32.4482 46.6703 28.3396 51.2805 21.2954 52.6009V37.1754C19.2109 38.3798 17.37 39.4415 15.4553 40.5478Z" fill="#9C7346"/>
<path d="M33.7641 52.4916C34.8409 51.9541 35.9848 51.3497 37.1622 50.8166C37.5465 50.6426 38.0179 50.6047 38.4513 50.6025C41.9142 50.5846 45.3794 50.5646 48.8423 50.6069C49.765 50.6181 50.0554 50.3259 50.0443 49.3981C49.9973 45.7201 50.0242 42.0422 50.0242 38.3531C51.7534 38.8014 51.9902 39.0936 51.988 40.7463C51.988 44.2413 51.988 47.7364 51.979 51.2315C51.979 51.6285 51.941 52.0255 51.9187 52.4916H33.7641Z" fill="#9C7346"/>
<path d="M13.1589 26.5554C12.6091 26.5554 12.1042 26.4268 11.6441 26.1696C11.184 25.9123 10.8193 25.5572 10.55 25.1043C10.2807 24.6457 10.1461 24.1285 10.1461 23.5525C10.1461 22.9821 10.2807 22.4704 10.55 22.0174C10.8193 21.5589 11.184 21.201 11.6441 20.9438C12.1042 20.6865 12.6091 20.5579 13.1589 20.5579C13.7144 20.5579 14.2193 20.6865 14.6738 20.9438C15.1339 21.201 15.4957 21.5589 15.7594 22.0174C16.0287 22.4704 16.1634 22.9821 16.1634 23.5525C16.1634 24.1285 16.0287 24.6457 15.7594 25.1043C15.4957 25.5572 15.1339 25.9123 14.6738 26.1696C14.2137 26.4268 13.7088 26.5554 13.1589 26.5554ZM13.1589 25.4734C13.5124 25.4734 13.8238 25.3951 14.0931 25.2385C14.3624 25.0763 14.5728 24.8526 14.7243 24.5674C14.8758 24.2767 14.9515 23.9383 14.9515 23.5525C14.9515 23.1666 14.8758 22.8311 14.7243 22.5459C14.5728 22.2551 14.3624 22.0314 14.0931 21.8748C13.8238 21.7183 13.5124 21.64 13.1589 21.64C12.8055 21.64 12.4913 21.7183 12.2164 21.8748C11.9471 22.0314 11.7367 22.2551 11.5852 22.5459C11.4337 22.8311 11.3579 23.1666 11.3579 23.5525C11.3579 23.9383 11.4337 24.2767 11.5852 24.5674C11.7367 24.8526 11.9471 25.0763 12.2164 25.2385C12.4913 25.3951 12.8055 25.4734 13.1589 25.4734Z" fill="#6D755E"/>
<path d="M20.1449 19.7081L17.6264 18.9512L17.2248 19.3337L18.8065 20.9831L17.9547 21.7945L13.896 17.5619L15.49 16.0434C15.8185 15.7304 16.1546 15.5225 16.4982 15.4195C16.8379 15.3124 17.1595 15.3038 17.4631 15.3937C17.7668 15.4757 18.0349 15.638 18.2675 15.8806C18.535 16.1595 18.6961 16.4895 18.751 16.8704C18.802 17.2473 18.7079 17.6308 18.4689 18.0209L21.1305 18.7692L20.1449 19.7081ZM16.6201 18.7031L17.3319 18.025C17.5631 17.8047 17.6812 17.5839 17.6862 17.3626C17.6913 17.1412 17.5988 16.9314 17.4089 16.7333C17.2189 16.5353 17.0148 16.4357 16.7966 16.4348C16.5745 16.4298 16.3478 16.5374 16.1166 16.7576L15.4048 17.4357L16.6201 18.7031Z" fill="#6D755E"/>
<path d="M20.3505 15.5947C20.014 15.1265 19.8184 14.6333 19.7636 14.1153C19.71 13.5894 19.7945 13.0924 20.0169 12.624C20.2407 12.1479 20.5806 11.747 21.0367 11.4214C21.575 11.0371 22.1372 10.8352 22.7236 10.8156C23.3066 10.7914 23.8433 10.962 24.3336 11.3274L23.232 12.1138C22.9788 11.9919 22.7188 11.947 22.4521 11.9792C22.1854 12.0114 21.9243 12.1187 21.6689 12.3011C21.3861 12.5029 21.181 12.7457 21.0535 13.0293C20.9261 13.3129 20.8857 13.6168 20.9324 13.9412C20.9791 14.2655 21.1136 14.5822 21.3358 14.8914C21.5644 15.2096 21.8253 15.443 22.1183 15.5915C22.4159 15.7367 22.7222 15.7932 23.0372 15.7609C23.3522 15.7286 23.6579 15.6067 23.9544 15.395C24.3193 15.1345 24.5478 14.8235 24.64 14.4619C24.7367 14.0971 24.6951 13.7175 24.5152 13.3232L22.8732 14.4954L22.3537 13.7726L24.9399 11.9263L25.5378 12.7582C25.7124 13.1357 25.7961 13.5403 25.7888 13.9719C25.7816 14.4036 25.6735 14.8246 25.4647 15.2351C25.2572 15.6378 24.9482 15.9856 24.5377 16.2787C24.077 16.6076 23.5861 16.8032 23.0651 16.8657C22.5453 16.9203 22.0459 16.84 21.5669 16.6248C21.0925 16.4063 20.687 16.063 20.3505 15.5947Z" fill="#6D755E"/>
<path d="M30.438 12.2124L28.1906 12.8605L28.1298 14.0394L26.9414 14.3821L27.3357 8.16462L28.6534 7.78463L32.3175 12.8318L31.121 13.1769L30.438 12.2124ZM29.884 11.4204L28.3694 9.28114L28.2348 11.8959L29.884 11.4204Z" fill="#6D755E"/>
<path d="M38.4958 12.29L37.323 12.4025L34.2812 8.65781L34.6675 12.6573L33.4947 12.7698L32.9311 6.93342L34.1039 6.82091L37.1464 10.5739L36.7594 6.56614L37.9322 6.45363L38.4958 12.29Z" fill="#6D755E"/>
<path d="M41.5559 6.69307L41.1473 12.5338L39.9719 12.4521L40.3806 6.61137L41.5559 6.69307Z" fill="#6D755E"/>
<path d="M42.6956 10.223C42.8346 9.66395 43.084 9.19553 43.4439 8.81776C43.8105 8.43591 44.242 8.17668 44.7384 8.04006C45.2416 7.89936 45.7655 7.89628 46.3101 8.03082C46.9473 8.18823 47.465 8.48897 47.8632 8.93304C48.2614 9.3771 48.4843 9.91036 48.5318 10.5328L47.2167 10.2079C47.1453 9.91371 47.0088 9.67256 46.807 9.48444C46.6066 9.29089 46.3512 9.15578 46.0407 9.07909C45.7086 8.99702 45.3929 8.99968 45.0937 9.08708C44.7999 9.17583 44.5444 9.34316 44.3272 9.58908C44.1154 9.83635 43.9636 10.1445 43.8718 10.5136C43.7801 10.8827 43.7699 11.2259 43.8413 11.5431C43.9195 11.8563 44.067 12.1231 44.2838 12.3438C44.5074 12.5604 44.7853 12.7097 45.1174 12.7917C45.4279 12.8684 45.717 12.8678 45.9849 12.79C46.2583 12.7135 46.4927 12.5611 46.6882 12.3329L48.0034 12.6578C47.6683 13.1915 47.2207 13.562 46.6605 13.7692C46.1071 13.9724 45.509 13.9947 44.8664 13.8359C44.3219 13.7014 43.8594 13.4575 43.479 13.1042C43.1055 12.7469 42.8454 12.3168 42.6988 11.8139C42.5576 11.3124 42.5565 10.7821 42.6956 10.223Z" fill="#6D755E"/>
<path d="M58.7705 19.1442C58.9733 19.4121 59.0626 19.7169 59.0384 20.0584C59.0142 20.3999 58.8848 20.6986 58.6502 20.9546C58.4383 21.1859 58.193 21.3374 57.9143 21.4094C57.6436 21.481 57.3551 21.4683 57.0488 21.3713C56.7426 21.2743 56.4424 21.0919 56.1483 20.8242L54.2778 19.1214L58.2393 14.7983L60.029 16.4274C60.3231 16.6952 60.5323 16.9727 60.6566 17.26C60.785 17.5511 60.8255 17.8303 60.7781 18.0977C60.7348 18.3688 60.6148 18.6117 60.418 18.8264C60.1872 19.0783 59.9259 19.2266 59.634 19.2715C59.3463 19.3201 59.0585 19.2777 58.7705 19.1442ZM57.4634 17.3864L58.2588 18.1105C58.466 18.299 58.669 18.3967 58.8678 18.4036C59.0667 18.4104 59.2475 18.3251 59.4102 18.1475C59.5729 17.97 59.6417 17.7789 59.6165 17.5742C59.5954 17.3733 59.4834 17.1804 59.2804 16.9956L58.485 16.2715L57.4634 17.3864ZM56.654 20.0235C56.8653 20.2159 57.0743 20.3153 57.2811 20.3218C57.4958 20.3279 57.6902 20.236 57.8643 20.0461C58.0345 19.8603 58.1067 19.6571 58.0808 19.4366C58.0549 19.2161 57.9363 19.0097 57.725 18.8174L56.8675 18.0367L55.7778 19.2259L56.654 20.0235Z" fill="#6D755E"/>
<path d="M65.5463 23.5931L61.2621 24.0944L59.5688 25.2374L58.9081 24.2651L60.6013 23.122L62.6533 19.3358L63.399 20.4331L61.8863 22.9638L64.8006 22.4958L65.5463 23.5931Z" fill="#6D755E"/>
<path d="M49.9316 15.8997C49.5684 15.7109 49.2725 15.4783 49.0439 15.2018C48.8202 14.9278 48.6847 14.6304 48.6375 14.3094C48.5903 13.9885 48.6472 13.668 48.8083 13.3481L49.9276 13.9299C49.8284 14.1558 49.8122 14.3681 49.8791 14.5669C49.9509 14.7682 50.1062 14.9309 50.345 15.055C50.5888 15.1817 50.8115 15.2217 51.013 15.1751C51.2146 15.1285 51.3672 15.006 51.471 14.8077C51.5514 14.654 51.5703 14.503 51.5277 14.3547C51.485 14.2064 51.4058 14.0675 51.2901 13.938C51.1819 13.8061 51.0216 13.6408 50.8092 13.4421C50.5228 13.1671 50.2973 12.9269 50.1327 12.7215C49.9756 12.5137 49.8706 12.2731 49.8175 11.9996C49.772 11.7236 49.8349 11.4221 50.0061 11.0948C50.1669 10.7874 50.3841 10.5597 50.6577 10.4118C50.9312 10.2638 51.2384 10.2028 51.5793 10.2285C51.9227 10.2494 52.2735 10.3529 52.6317 10.539C53.169 10.8183 53.5356 11.1759 53.7314 11.6119C53.9348 12.0456 53.932 12.5045 53.7229 12.9887L52.5737 12.3915C52.665 12.1929 52.6683 11.9991 52.5837 11.8101C52.5066 11.6187 52.3512 11.4622 52.1174 11.3407C51.9134 11.2347 51.7207 11.2039 51.5393 11.2484C51.3654 11.2904 51.224 11.4156 51.115 11.6239C51.0424 11.7627 51.0262 11.9025 51.0665 12.0432C51.1143 12.1816 51.1898 12.3155 51.293 12.4448C51.4038 12.5717 51.5641 12.737 51.7739 12.9407C52.0603 13.2157 52.2845 13.4583 52.4465 13.6687C52.6086 13.879 52.7148 14.1235 52.7653 14.4019C52.8157 14.6804 52.7567 14.9808 52.588 15.3031C52.4428 15.5808 52.2357 15.8012 51.967 15.9642C51.6982 16.1272 51.3869 16.2082 51.033 16.2072C50.6818 16.2013 50.3147 16.0987 49.9316 15.8997Z" fill="#6D755E"/>
</svg>
