<svg width="75" height="76" viewBox="0 0 75 76" fill="none" xmlns="http://www.w3.org/2000/svg">
<path d="M11.8725 65.8283C4.90404 59.274 0.685423 50.2963 0.0764493 40.7251C-0.532518 31.1539 2.51396 21.7095 8.59502 14.317C14.5028 7.13508 22.8426 2.41487 31.9964 1.05044C32.4417 0.984069 32.8498 1.30286 32.9062 1.75164L32.9085 1.77264C32.9519 2.20612 32.6489 2.59765 32.2215 2.67266L32.2007 2.67603C23.5268 3.9777 15.6195 8.42974 9.98435 15.2002L9.85169 15.3606C4.08045 22.3765 1.16663 31.3244 1.6904 40.406L1.70342 40.6206C2.28592 49.7757 6.32112 58.3631 12.9866 64.6325C19.6521 70.9019 28.4462 74.3814 37.5764 74.3618L37.7903 74.3607C46.8437 74.2872 55.5377 70.776 62.1247 64.5273C68.7636 58.2294 72.7623 49.6249 73.306 40.4674C73.8454 31.3814 70.9433 22.4296 65.1872 15.4079L65.0508 15.2424C59.3784 8.40617 51.3958 3.92817 42.6482 2.65367C42.2026 2.58876 41.8843 2.18133 41.9388 1.73231C41.9932 1.2833 42.3999 0.962778 42.8455 1.02724C52.0051 2.35248 60.3648 7.03695 66.303 14.1935L66.4457 14.3665C72.4633 21.7073 75.4974 31.066 74.9334 40.5649C74.365 50.1387 70.1845 59.1343 63.2439 65.7184C56.3576 72.2511 47.2684 75.9219 37.8035 75.9988L37.5799 75.9999C28.1092 76.0202 18.9846 72.4393 12.0362 65.9814L11.8725 65.8283Z" fill="#6D755E"/>
<path d="M57.7947 58.9293C57.7951 58.9293 57.7952 58.9288 57.7949 58.9285C56.8905 58.1123 57.5308 57.6885 57.9482 57.2736C60.6852 54.5504 61.9227 52.1442 63.3232 48.5576C65.7421 42.3609 65.7973 36.0933 63.7827 29.779C63.7032 29.5326 63.5574 29.2796 63.575 29.0399C63.6066 28.6 64.4099 28.3141 64.5582 28.7293C64.5597 28.7336 64.5611 28.7381 64.5625 28.7425C65.0352 30.3716 65.5764 31.9962 65.8503 33.663C67.4032 43.12 65.5693 50.5532 59.1919 57.6154C58.779 58.0723 58.2933 58.4628 57.7944 58.9285C57.7941 58.9288 57.7943 58.9293 57.7947 58.9293Z" fill="#6D755E"/>
<path d="M9.74172 30.4138C9.94203 29.4233 10.8418 30.4072 10.6143 31.3917C10.3984 32.3254 10.1923 33.2409 10.0532 34.1668C8.68803 43.2465 10.4828 50.2475 16.6702 56.9302C17.0214 57.3075 17.45 57.6293 17.7283 58.0532C17.745 58.0788 17.76 58.1055 17.7735 58.1333C17.973 58.5449 17.3676 59.134 17.0192 58.8389C16.4316 58.3417 15.8882 57.7824 15.3757 57.2032C9.74279 50.8334 7.92151 44.2696 8.78081 35.7337C8.95974 33.9449 9.38386 32.1804 9.74172 30.4138Z" fill="#6D755E"/>
<path d="M37.7164 0C38.6287 0.0421691 39.3599 0.825627 39.3356 1.73337C39.3091 2.69217 38.4807 3.49116 37.5573 3.44677C36.5611 3.39794 35.863 2.63446 35.9028 1.63572C35.9404 0.656951 36.7179 -0.0443885 37.7186 0.00221944L37.7164 0Z" fill="#6D755E"/>
<path d="M15.4553 41.2693C15.0666 39.7876 15.4106 38.9354 16.6863 38.2002C23.0469 34.5352 29.3472 30.7646 35.6564 27.0097C36.3557 26.5937 36.8852 26.5038 37.6582 26.9737C41.349 29.2244 45.0934 31.3852 48.82 33.5751C49.1327 33.7595 49.4634 33.9079 50.013 34.189C50.013 32.6893 50.0532 31.3649 49.9795 30.0473C49.9638 29.7753 49.5617 29.456 49.2668 29.2806C45.3302 26.9288 41.3758 24.6106 37.4437 22.2542C36.8941 21.926 36.4942 21.9237 35.9312 22.261C32.0304 24.5971 28.0938 26.8725 24.1975 29.2154C23.7998 29.456 23.3061 30.0631 23.3552 30.4341C23.563 32.0057 22.8257 32.7904 21.378 33.2154L21.2015 30.9894C19.1975 32.1609 17.3543 33.2401 15.4866 34.3329C15.042 32.4149 15.1113 32.2306 16.6729 31.3087C23.0559 27.5358 29.4477 23.7719 35.8284 19.9901C36.378 19.664 36.8092 19.5561 37.4325 19.9271C43.8356 23.7405 50.2654 27.5111 56.6819 31.3042C58.219 32.2126 58.2391 32.3025 57.8503 34.3149C55.9692 33.2131 54.126 32.1339 52.0416 30.913C52.0416 32.5161 52.0081 33.8787 52.0729 35.2367C52.084 35.4706 52.4817 35.7359 52.752 35.9023C54.0233 36.6825 55.3101 37.4312 56.5925 38.1912C58.2324 39.1648 58.2369 39.1715 57.8772 41.2828C55.9826 40.1721 54.1283 39.0928 52.2829 38.0001C47.3767 35.0951 42.4683 32.1946 37.5755 29.2671C36.9678 28.9029 36.5165 28.8444 35.8642 29.2379C31.9701 31.583 28.0313 33.8562 24.135 36.1991C23.7641 36.4217 23.3441 36.9545 23.3396 37.3503C23.2837 41.6223 23.3039 45.8943 23.3106 50.1664C23.3106 50.3395 23.3753 50.5126 23.4558 50.9241C24.6354 50.3193 25.7391 49.8156 26.769 49.1883C27.0215 49.0332 27.0997 48.489 27.1443 48.1091C27.2896 46.8859 27.2672 45.6313 27.5197 44.4329C28.3016 40.7072 30.538 38.171 34.0277 36.7342C36.5009 35.7157 39.0769 35.3042 41.7154 35.2885C43.5407 42.9736 38.0536 50.8409 30.7837 50.5509C31.9701 49.7257 33.076 48.7319 34.3584 48.1068C37.551 46.5441 39.0367 43.8505 39.6935 40.5386C39.8879 39.5605 39.9348 38.5554 40.0487 37.5796C34.8231 36.4262 28.3173 42.4025 29.345 47.5177C30.5201 46.5217 31.6394 45.6245 32.6962 44.6577C33.7283 43.7134 34.6935 42.6948 35.7458 41.7797C32.4482 47.4413 28.3396 52.0888 21.2954 53.4199V37.8697C19.2109 39.0838 17.37 40.1541 15.4553 41.2693Z" fill="#9C7346"/>
<path d="M33.7641 53.3097C34.8409 52.7678 35.9848 52.1585 37.1622 51.6211C37.5465 51.4457 38.0179 51.4075 38.4513 51.4053C41.9142 51.3873 45.3794 51.3671 48.8423 51.4098C49.765 51.421 50.0554 51.1265 50.0443 50.1911C49.9973 46.4834 50.0242 42.7758 50.0242 39.0568C51.7534 39.5088 51.9902 39.8033 51.988 41.4694C51.988 44.9927 51.988 48.516 51.979 52.0393C51.979 52.4396 51.941 52.8398 51.9187 53.3097H33.7641Z" fill="#9C7346"/>
<path d="M13.7145 27.3432C13.5066 27.6979 13.2329 27.9746 12.8933 28.1733C12.5537 28.372 12.1871 28.4719 11.7936 28.473C11.3965 28.472 11.0124 28.3617 10.6415 28.1421C10.2741 27.9247 9.99546 27.6428 9.80555 27.2964C9.61203 26.9479 9.5194 26.5762 9.52765 26.1814C9.53591 25.7866 9.64397 25.4118 9.85183 25.0571C10.0618 24.6988 10.3355 24.4221 10.673 24.227C11.0126 24.0282 11.3799 23.9312 11.775 23.9359C12.1685 23.9348 12.5489 24.043 12.9163 24.2604C13.2873 24.4799 13.5695 24.764 13.763 25.1125C13.955 25.4552 14.0469 25.824 14.0387 26.2189C14.0304 26.6137 13.9224 26.9885 13.7145 27.3432ZM13.0176 26.9307C13.1512 26.7027 13.2185 26.472 13.2195 26.2386C13.2169 26.003 13.1523 25.782 13.0259 25.5756C12.8959 25.3671 12.7067 25.1892 12.4581 25.0422C12.2096 24.8951 11.9649 24.8161 11.724 24.8051C11.4794 24.792 11.2558 24.8424 11.0532 24.9565C10.8505 25.0705 10.6824 25.2415 10.5487 25.4696C10.4151 25.6976 10.3468 25.9301 10.3437 26.1671C10.3427 26.4005 10.4072 26.6215 10.5372 26.8301C10.6636 27.0365 10.8511 27.2133 11.0996 27.3603C11.3481 27.5074 11.5946 27.5875 11.8392 27.6006C12.0801 27.6116 12.3037 27.5611 12.51 27.4492C12.7148 27.3316 12.884 27.1587 13.0176 26.9307Z" fill="#6D755E"/>
<path d="M16.6391 23.1176L14.7103 22.7696L14.446 23.0895L15.7581 24.1842L15.1974 24.8628L11.8303 22.0538L12.8795 20.7837C13.0958 20.5219 13.3266 20.3378 13.5721 20.2314C13.8143 20.1223 14.0516 20.0883 14.2839 20.1292C14.5157 20.1643 14.7281 20.2623 14.921 20.4233C15.1429 20.6084 15.2905 20.8407 15.3638 21.1202C15.4339 21.3971 15.3973 21.6913 15.2539 22.003L17.2879 22.3323L16.6391 23.1176ZM13.9443 22.671L14.4128 22.1038C14.565 21.9196 14.6334 21.7447 14.6181 21.5791C14.6028 21.4134 14.5164 21.2649 14.3588 21.1334C14.2012 21.002 14.0417 20.9453 13.8801 20.9633C13.7153 20.9787 13.5568 21.0785 13.4046 21.2627L12.9361 21.8299L13.9443 22.671Z" fill="#6D755E"/>
<path d="M16.2025 20.2912C15.9186 19.9659 15.7373 19.6116 15.6587 19.2285C15.5804 18.8393 15.6065 18.4616 15.737 18.0951C15.8679 17.7228 16.0905 17.3981 16.4048 17.1211C16.7756 16.7943 17.1776 16.6021 17.6108 16.5443C18.0413 16.4833 18.4517 16.5714 18.842 16.8084L18.0831 17.4773C17.8864 17.4048 17.6904 17.3904 17.495 17.4341C17.2997 17.4777 17.114 17.5771 16.938 17.7322C16.7432 17.9039 16.6089 18.1005 16.5353 18.3218C16.4616 18.5432 16.454 18.7733 16.5124 19.0123C16.5709 19.2513 16.6938 19.4782 16.8812 19.6929C17.0741 19.914 17.2847 20.0693 17.5128 20.1587C17.7441 20.2454 17.9753 20.2651 18.2065 20.2178C18.4376 20.1705 18.6553 20.0568 18.8596 19.8768C19.111 19.6553 19.2576 19.406 19.2993 19.1289C19.3443 18.8491 19.2855 18.5684 19.1232 18.2869L17.9919 19.2839L17.5538 18.7818L19.3355 17.2115L19.8399 17.7894C19.9971 18.0587 20.0888 18.355 20.1151 18.6782C20.1414 19.0013 20.0922 19.324 19.9676 19.6462C19.8433 19.9625 19.6397 20.2452 19.3569 20.4945C19.0395 20.7742 18.69 20.9565 18.3083 21.0415C17.927 21.1206 17.5508 21.0973 17.1799 20.9717C16.8121 20.8433 16.4863 20.6164 16.2025 20.2912Z" fill="#6D755E"/>
<path d="M23.3114 16.5519L21.8282 17.472L22.0208 18.3373L21.2366 18.8238L20.2736 14.2455L21.1432 13.7061L24.7844 16.6229L23.9948 17.1127L23.3114 16.5519ZM22.755 16.09L21.2393 14.846L21.6667 16.7651L22.755 16.09Z" fill="#6D755E"/>
<path d="M28.7768 14.9535L27.9645 15.2877L24.9873 13.2515L26.1252 16.0444L25.3129 16.3787L23.6524 12.303L24.4647 11.9687L27.4442 14.0108L26.304 11.212L27.1163 10.8778L28.7768 14.9535Z" fill="#6D755E"/>
<path d="M29.2552 10.2L30.4359 14.4347L29.5907 14.6727L28.41 10.438L29.2552 10.2Z" fill="#6D755E"/>
<path d="M30.733 12.1041C30.6667 11.6767 30.7024 11.28 30.8403 10.914C30.9816 10.5433 31.2029 10.2387 31.5044 10.0002C31.8093 9.75688 32.1682 9.60288 32.5812 9.53819C33.0644 9.46251 33.507 9.52071 33.9091 9.7128C34.3111 9.90488 34.6185 10.2096 34.8313 10.6269L33.834 10.7831C33.6998 10.6 33.5362 10.4726 33.3432 10.4008C33.1495 10.3249 32.935 10.3054 32.6996 10.3422C32.4477 10.3817 32.2316 10.475 32.0514 10.6223C31.8753 10.7689 31.7482 10.9589 31.6702 11.1921C31.5963 11.4248 31.5812 11.6822 31.625 11.9644C31.6688 12.2466 31.7611 12.4872 31.9019 12.6862C32.0463 12.8804 32.2248 13.0225 32.4376 13.1124C32.6539 13.1976 32.888 13.2205 33.1399 13.181C33.3753 13.1441 33.5737 13.0599 33.7352 12.9283C33.9008 12.7961 34.0178 12.6226 34.086 12.4079L35.0833 12.2517C35.0077 12.7184 34.8074 13.1047 34.4826 13.4107C34.1613 13.7118 33.757 13.9005 33.2697 13.9769C32.8567 14.0416 32.4684 14.0067 32.1049 13.8724C31.7449 13.7332 31.4418 13.5107 31.1956 13.205C30.9535 12.8986 30.7993 12.5316 30.733 12.1041Z" fill="#6D755E"/>
<path d="M37.5466 13.6165C37.2415 13.6166 36.9656 13.5642 36.7189 13.4593C36.4765 13.3544 36.2841 13.2032 36.142 13.0059C35.9998 12.8085 35.9265 12.5754 35.9222 12.3066L36.8627 12.3062C36.8753 12.491 36.9381 12.638 37.0509 12.7472C37.168 12.8563 37.3269 12.9109 37.5275 12.9108C37.7323 12.9107 37.8932 12.8603 38.0102 12.7594C38.1272 12.6586 38.1857 12.5241 38.1856 12.3561C38.1855 12.2259 38.1458 12.1188 38.0663 12.0348C37.9869 11.9508 37.8866 11.8858 37.7653 11.8396C37.6483 11.7893 37.4852 11.7347 37.2762 11.676C36.992 11.5921 36.76 11.5103 36.5802 11.4306C36.4046 11.3466 36.252 11.2228 36.1224 11.059C35.9969 10.891 35.9341 10.6685 35.934 10.3912C35.9339 10.1308 35.9986 9.90396 36.1281 9.7107C36.2576 9.51743 36.4394 9.37035 36.6734 9.26945C36.9074 9.16434 37.1749 9.11173 37.4759 9.11162C37.9273 9.11144 38.293 9.2226 38.5732 9.44511C38.8575 9.66341 39.0143 9.96998 39.0437 10.3648L38.0782 10.3652C38.0698 10.2014 38.005 10.0712 37.8837 9.97463C37.7666 9.87386 37.6099 9.82352 37.4134 9.8236C37.2421 9.82367 37.1042 9.86992 36.9997 9.96237C36.8994 10.0506 36.8493 10.183 36.8494 10.3594C36.8494 10.477 36.8871 10.5757 36.9624 10.6554C37.0418 10.731 37.138 10.794 37.2508 10.8443C37.3679 10.8905 37.5309 10.945 37.7399 11.008C38.0242 11.0919 38.2562 11.1758 38.4359 11.2597C38.6157 11.3436 38.7704 11.4696 38.9 11.6376C39.0297 11.8055 39.0946 12.026 39.0947 12.299C39.0948 12.5343 39.0342 12.7527 38.9131 12.9544C38.792 13.156 38.6144 13.3178 38.3804 13.4397C38.1464 13.5574 37.8684 13.6163 37.5466 13.6165Z" fill="#6D755E"/>
<path d="M44.394 12.1088C44.6265 12.2034 44.8006 12.3654 44.9163 12.5948C45.032 12.8241 45.064 13.0664 45.0124 13.3216C44.9657 13.5521 44.8672 13.7442 44.7167 13.8977C44.5711 14.048 44.3819 14.1508 44.1489 14.2061C43.9159 14.2614 43.654 14.2593 43.3632 14.1999L41.5139 13.8221L42.3857 9.51249L44.1551 9.87396C44.4459 9.93337 44.6862 10.0317 44.8759 10.1691C45.0698 10.3073 45.2029 10.4716 45.2752 10.6621C45.3517 10.8535 45.3683 11.0562 45.325 11.2702C45.2742 11.5213 45.1641 11.7174 44.9948 11.8586C44.8296 12.0006 44.6293 12.084 44.394 12.1088ZM42.8836 11.4787L43.67 11.6394C43.8748 11.6812 44.0421 11.6661 44.1718 11.594C44.3016 11.5219 44.3844 11.3974 44.4202 11.2204C44.456 11.0434 44.4265 10.8938 44.3318 10.7716C44.2412 10.6502 44.0955 10.569 43.8948 10.528L43.1084 10.3674L42.8836 11.4787ZM43.379 13.4895C43.5879 13.5321 43.7596 13.5158 43.8943 13.4404C44.0339 13.3618 44.1229 13.2278 44.1612 13.0384C44.1986 12.8532 44.1668 12.6945 44.0655 12.5624C43.9643 12.4303 43.8092 12.3429 43.6003 12.3002L42.7525 12.127L42.5127 13.3125L43.379 13.4895Z" fill="#6D755E"/>
<path d="M50.1985 11.7368L47.8395 13.9297L47.323 15.37L46.4972 15.071L47.0137 13.6306L46.5829 10.4274L47.5148 10.7649L47.7178 12.9681L49.2666 11.3993L50.1985 11.7368Z" fill="#6D755E"/>
<path d="M53.3757 17.5811L51.8986 16.6512L51.2116 17.2075L50.4305 16.7158L54.0907 13.8232L54.9567 14.3684L53.9638 18.9401L53.1774 18.4451L53.3757 17.5811ZM53.5419 16.8753L53.9818 14.9591L52.458 16.193L53.5419 16.8753Z" fill="#9C7346"/>
<path d="M58.8096 19.0856C58.6572 19.2641 58.4715 19.3946 58.2525 19.4771C58.0367 19.5622 57.7976 19.5747 57.5351 19.5145C57.2758 19.4571 57.0097 19.3108 56.7368 19.0757L56.18 18.5958L55.0862 19.8777L54.4199 19.3035L57.2685 15.965L58.4917 17.019C58.7487 17.2404 58.9295 17.4737 59.0342 17.7188C59.1389 17.964 59.169 18.2029 59.1245 18.4357C59.0832 18.6713 58.9782 18.8879 58.8096 19.0856ZM57.1572 18.5249C57.338 18.6808 57.511 18.7523 57.676 18.7396C57.8442 18.7296 57.9936 18.6481 58.1242 18.495C58.2602 18.3356 58.3205 18.1745 58.3052 18.0119C58.2925 17.8461 58.1941 17.6838 58.0101 17.5253L57.4818 17.07L56.6289 18.0697L57.1572 18.5249Z" fill="#9C7346"/>
<path d="M61.6502 22.2235C61.4751 22.3796 61.2735 22.4834 61.0454 22.5351C60.82 22.59 60.5814 22.5696 60.3295 22.4741C60.0804 22.3817 59.8366 22.2004 59.5981 21.9301L59.1114 21.3786L57.8543 22.4989L57.2719 21.839L60.5461 18.9211L61.6152 20.1326C61.8398 20.3872 61.9874 20.643 62.0579 20.9002C62.1284 21.1574 62.1259 21.3982 62.0503 21.6228C61.9775 21.8505 61.8441 22.0507 61.6502 22.2235ZM60.0892 21.442C60.2472 21.6212 60.4089 21.7157 60.5741 21.7257C60.7421 21.7388 60.9011 21.6784 61.0512 21.5447C61.2076 21.4053 61.2892 21.254 61.2959 21.0908C61.3059 20.9248 61.2304 20.7506 61.0696 20.5683L60.6078 20.0451L59.6274 20.9188L60.0892 21.442Z" fill="#9C7346"/>
<path d="M61.9113 26.5479L60.9612 25.0795L60.1049 25.2933L59.6026 24.5168L64.1345 23.442L64.6916 24.303L61.8752 28.0295L61.3694 27.2477L61.9113 26.5479ZM62.3578 25.9782L63.5598 24.4262L61.6606 24.9006L62.3578 25.9782Z" fill="#9C7346"/>
<path d="M20.8272 59.0931L19.0047 60.9926L18.6255 60.6252L19.4063 59.8115L18.5966 59.027L17.8159 59.8406L17.4368 59.4732L19.2593 57.5738L19.6385 57.9412L18.8838 58.7276L19.6935 59.5122L20.4481 58.7257L20.8272 59.0931Z" fill="#9C7346"/>
<path d="M20.3647 62.1357C20.1712 61.9834 20.0292 61.7978 19.9384 61.5791C19.8477 61.3604 19.8176 61.1334 19.8482 60.8981C19.8802 60.6608 19.9759 60.44 20.1352 60.2357C20.293 60.0334 20.4819 59.8891 20.702 59.8031C20.9235 59.715 21.1508 59.6891 21.3839 59.7253C21.6169 59.7615 21.8301 59.8558 22.0236 60.0081C22.219 60.162 22.3611 60.3475 22.4499 60.5647C22.5406 60.7834 22.5689 61.0106 22.5349 61.2463C22.5043 61.4816 22.4102 61.7004 22.2524 61.9028C22.0931 62.1071 21.9026 62.2533 21.6811 62.3414C21.463 62.429 21.2374 62.4547 21.0044 62.4185C20.7714 62.3823 20.5582 62.288 20.3647 62.1357ZM20.664 61.7518C20.7884 61.8498 20.9196 61.9083 21.0576 61.9273C21.1973 61.9444 21.3331 61.9233 21.4653 61.8641C21.5991 61.8029 21.7193 61.7039 21.826 61.567C21.9327 61.4301 21.9989 61.2901 22.0245 61.147C22.0516 61.0019 22.0394 60.8642 21.988 60.7341C21.9366 60.6039 21.8487 60.4899 21.7243 60.3919C21.5999 60.294 21.4677 60.2348 21.3277 60.2141C21.1896 60.1951 21.0537 60.2161 20.92 60.2773C20.7878 60.3365 20.6684 60.4346 20.5616 60.5715C20.4549 60.7083 20.388 60.8493 20.3609 60.9945C20.3353 61.1376 20.3474 61.2752 20.3973 61.4074C20.4507 61.5391 20.5396 61.6539 20.664 61.7518Z" fill="#9C7346"/>
<path d="M25.6046 62.4402L24.2332 64.6904L23.7841 64.414L24.6761 62.9504L23.1842 64.0447L22.8442 63.8355L23.1331 62.0007L22.2411 63.4643L21.792 63.1879L23.1633 60.9377L23.6734 61.2516L23.3659 63.3631L25.0977 62.1283L25.6046 62.4402Z" fill="#9C7346"/>
<path d="M26.1595 63.1865L25.8627 63.8023L26.6583 64.1896L26.4812 64.5571L25.6856 64.1698L25.3757 64.8128L26.2728 65.2495L26.0908 65.6272L24.7197 64.9597L25.8659 62.5816L27.2371 63.249L27.0567 63.6233L26.1595 63.1865Z" fill="#9C7346"/>
<path d="M31.0657 64.6031L30.2545 67.1127L29.7536 66.9492L30.2812 65.3169L29.0846 66.7308L28.7053 66.607L28.5603 64.7551L28.0327 66.3874L27.5318 66.2239L28.343 63.7143L28.9119 63.9L29.103 66.0253L30.5004 64.4186L31.0657 64.6031Z" fill="#9C7346"/>
<path d="M32.4685 67.0901L31.4441 66.8787L31.174 67.3363L30.6323 67.2245L32.0861 64.8269L32.6867 64.9509L33.0828 67.7302L32.5374 67.6176L32.4685 67.0901ZM32.4147 66.6584L32.262 65.4884L31.6629 66.5033L32.4147 66.6584Z" fill="#9C7346"/>
<path d="M34.6538 65.255C34.9282 65.2838 35.1633 65.3629 35.3591 65.4924C35.5574 65.6222 35.7023 65.7932 35.7937 66.0056C35.8878 66.2156 35.9212 66.4522 35.8938 66.7154C35.8665 66.9786 35.7851 67.2032 35.6498 67.3892C35.5173 67.5729 35.3406 67.7077 35.1199 67.7935C34.9017 67.8795 34.6554 67.9081 34.381 67.8793L33.4681 67.7835L33.7409 65.1591L34.6538 65.255ZM34.4068 67.4487C34.6787 67.4773 34.8976 67.4217 35.0634 67.282C35.2317 67.1426 35.3302 66.935 35.3588 66.6593C35.3872 66.3861 35.3347 66.1639 35.2012 65.9928C35.0677 65.8217 34.8637 65.7217 34.5894 65.6929L34.219 65.654L34.0365 67.4099L34.4068 67.4487Z" fill="#9C7346"/>
<path d="M36.7558 65.8304L36.743 66.5145L37.6268 66.5312L37.6192 66.9394L36.7353 66.9227L36.722 67.637L37.7187 67.6559L37.7108 68.0754L36.1876 68.0466L36.237 65.4047L37.7602 65.4334L37.7525 65.8492L36.7558 65.8304Z" fill="#9C7346"/>
<path d="M39.0011 66.7132C38.9736 66.4551 39.0064 66.2184 39.0995 66.0031C39.1948 65.785 39.3374 65.6087 39.5274 65.4742C39.7196 65.3369 39.9404 65.2548 40.1897 65.228C40.484 65.1963 40.7473 65.2415 40.9797 65.3635C41.2119 65.483 41.383 65.6686 41.4931 65.9204L40.8909 65.9852C40.8193 65.8814 40.728 65.8063 40.6172 65.7599C40.5063 65.7135 40.381 65.6979 40.2414 65.7129C40.0868 65.7295 39.9534 65.7794 39.8412 65.8624C39.729 65.9454 39.6461 66.0557 39.5927 66.1933C39.5392 66.3309 39.5216 66.4848 39.5397 66.6552C39.5584 66.8306 39.6084 66.9799 39.6896 67.1029C39.7733 67.2257 39.88 67.3156 40.0097 67.3727C40.1393 67.4297 40.2852 67.4495 40.4473 67.432C40.6468 67.4105 40.8043 67.3391 40.92 67.2177C41.0382 67.096 41.1059 66.9379 41.123 66.7434L40.2253 66.84L40.1828 66.4416L41.5967 66.2894L41.6456 66.748C41.6301 66.9347 41.5734 67.1119 41.4752 67.2796C41.3771 67.4473 41.242 67.5885 41.0702 67.7034C40.9005 67.8154 40.7035 67.8835 40.479 67.9076C40.2272 67.9347 39.993 67.9029 39.7765 67.8121C39.5623 67.7186 39.3857 67.5767 39.2469 67.3863C39.1106 67.1957 39.0286 66.9713 39.0011 66.7132Z" fill="#9C7346"/>
<path d="M43.3679 67.4413C43.1277 67.4936 42.8949 67.485 42.6695 67.4154C42.4441 67.3459 42.2511 67.2242 42.0904 67.0503C41.9292 66.8739 41.8213 66.6589 41.7666 66.4052C41.7124 66.154 41.7227 65.9158 41.7973 65.6907C41.8714 65.4631 41.9967 65.2708 42.1733 65.1137C42.3498 64.9567 42.5582 64.852 42.7984 64.7997C43.041 64.7468 43.2738 64.7555 43.4968 64.8255C43.7222 64.8951 43.9143 65.0183 44.073 65.1952C44.2337 65.3691 44.3411 65.5816 44.3953 65.8329C44.4499 66.0866 44.4402 66.3272 44.3661 66.5548C44.294 66.7794 44.1696 66.9702 43.993 67.1273C43.8165 67.2843 43.6081 67.389 43.3679 67.4413ZM43.2652 66.9647C43.4196 66.9311 43.5482 66.867 43.651 66.7724C43.7532 66.6754 43.8239 66.5568 43.863 66.4168C43.9015 66.2743 43.9025 66.1181 43.8658 65.9481C43.8292 65.7782 43.7642 65.6376 43.671 65.5264C43.5772 65.4127 43.464 65.3342 43.3315 65.2909C43.199 65.2475 43.0556 65.2427 42.9011 65.2763C42.7467 65.3099 42.6169 65.3743 42.5117 65.4694C42.4089 65.564 42.3382 65.6825 42.2997 65.825C42.2606 65.965 42.2594 66.12 42.296 66.2899C42.3326 66.4599 42.3979 66.6017 42.4916 66.7154C42.5849 66.8266 42.6981 66.9051 42.8311 66.9509C42.9661 66.9937 43.1108 66.9983 43.2652 66.9647Z" fill="#9C7346"/>
<path d="M46.2502 66.6491C46.017 66.7272 45.7847 66.7439 45.5531 66.6993C45.3215 66.6547 45.1165 66.5547 44.9381 66.3993C44.7588 66.2415 44.6284 66.0395 44.5467 65.7932C44.4657 65.5494 44.4503 65.3115 44.5002 65.0796C44.5494 64.8452 44.6532 64.6404 44.8118 64.4651C44.9704 64.2897 45.1663 64.163 45.3995 64.0849C45.635 64.006 45.8674 63.9892 46.0966 64.0346C46.3281 64.0793 46.5323 64.1808 46.7092 64.3394C46.8876 64.4948 47.0173 64.6945 47.0982 64.9383C47.1799 65.1846 47.1962 65.4249 47.147 65.6592C47.0995 65.8903 46.9964 66.0935 46.8378 66.2689C46.6792 66.4442 46.4833 66.5709 46.2502 66.6491ZM46.0967 66.1864C46.2466 66.1362 46.3675 66.0585 46.4595 65.9533C46.5507 65.8457 46.6082 65.7202 46.632 65.5767C46.6549 65.4309 46.6391 65.2755 46.5843 65.1105C46.5296 64.9455 46.4499 64.8128 46.3452 64.7124C46.2397 64.6096 46.1188 64.5439 45.9824 64.5152C45.846 64.4865 45.7028 64.4973 45.553 64.5475C45.4031 64.5977 45.2809 64.6758 45.1866 64.7818C45.0946 64.8871 45.0371 65.0126 45.0141 65.1584C44.9903 65.3019 45.0058 65.4561 45.0605 65.6211C45.1153 65.786 45.1954 65.9199 45.3009 66.0227C45.4055 66.1231 45.5265 66.1889 45.6637 66.2199C45.8025 66.2478 45.9468 66.2366 46.0967 66.1864Z" fill="#9C7346"/>
<path d="M47.6634 63.2518C47.9146 63.1373 48.1573 63.0862 48.3914 63.0985C48.6278 63.1097 48.8388 63.1837 49.0244 63.3205C49.2113 63.4539 49.3592 63.6412 49.4679 63.8822C49.5767 64.1231 49.6194 64.3582 49.5962 64.5874C49.5742 64.8133 49.4896 65.0193 49.3423 65.2054C49.1973 65.3905 48.9991 65.5403 48.7479 65.6548L47.912 66.0358L46.8275 63.6328L47.6634 63.2518ZM48.5536 65.2702C48.8026 65.1567 48.9635 64.9976 49.0363 64.7928C49.1114 64.587 49.092 64.3579 48.978 64.1054C48.8651 63.8553 48.708 63.6903 48.5068 63.6104C48.3055 63.5306 48.0793 63.5479 47.828 63.6624L47.4889 63.817L48.2145 65.4248L48.5536 65.2702Z" fill="#9C7346"/>
<path d="M52.3313 63.7454L51.8758 64.0111L49.94 63.0465L50.8445 64.6126L50.389 64.8783L49.0691 62.5928L49.5246 62.3272L51.4623 63.295L50.5559 61.7257L51.0114 61.46L52.3313 63.7454Z" fill="#9C7346"/>
<path d="M51.957 61.3196L52.3486 61.8793L53.0717 61.3683L53.3054 61.7022L52.5824 62.2133L52.9914 62.7977L53.8068 62.2214L54.047 62.5646L52.8008 63.4454L51.2881 61.2839L52.5343 60.4032L52.7724 60.7433L51.957 61.3196Z" fill="#9C7346"/>
<path d="M55.1717 61.6898C55.0306 61.8071 54.8831 61.8888 54.7292 61.9351C54.5772 61.9797 54.4307 61.9838 54.2899 61.9471C54.149 61.9105 54.0265 61.8309 53.9222 61.7082L54.3569 61.3467C54.4331 61.4273 54.518 61.4712 54.6118 61.4783C54.7074 61.4837 54.8016 61.4479 54.8944 61.3708C54.989 61.2921 55.0442 61.2069 55.06 61.1153C55.0757 61.0237 55.0516 60.9391 54.9876 60.8615C54.938 60.8013 54.8789 60.767 54.8102 60.7587C54.7416 60.7504 54.6704 60.7589 54.5968 60.7841C54.5235 60.8058 54.4274 60.8432 54.3084 60.8964C54.145 60.9668 54.0066 61.0181 53.8932 61.0503C53.78 61.079 53.6623 61.0804 53.5401 61.0545C53.4182 61.025 53.3045 60.9462 53.1989 60.8181C53.0998 60.6977 53.0434 60.5679 53.0297 60.4288C53.0161 60.2897 53.0442 60.1518 53.114 60.0153C53.1822 59.8767 53.2859 59.7496 53.425 59.6339C53.6336 59.4604 53.8451 59.3713 54.0593 59.3665C54.2738 59.3582 54.4629 59.4397 54.6268 59.611L54.1805 59.9821C54.1142 59.9096 54.0347 59.8743 53.9419 59.8763C53.8495 59.8747 53.7578 59.9116 53.667 59.9871C53.5878 60.053 53.5416 60.1274 53.5285 60.2103C53.5157 60.2896 53.5429 60.3701 53.6101 60.4516C53.6548 60.506 53.7098 60.5371 53.7749 60.5451C53.8404 60.5495 53.9089 60.5417 53.9802 60.5216C54.0519 60.498 54.148 60.4605 54.2686 60.4093C54.432 60.3389 54.5712 60.2886 54.6862 60.2583C54.8013 60.228 54.9207 60.2268 55.0446 60.2547C55.1684 60.2825 55.2823 60.3596 55.3862 60.4858C55.4758 60.5945 55.5309 60.7188 55.5516 60.8585C55.5723 60.9983 55.5518 61.1414 55.49 61.2877C55.4265 61.432 55.3204 61.566 55.1717 61.6898Z" fill="#9C7346"/>
<path d="M56.9032 60.1239C56.7723 60.2525 56.632 60.3462 56.4824 60.4051C56.3345 60.4623 56.1889 60.4784 56.0456 60.4536C55.9022 60.4288 55.7735 60.3597 55.6595 60.2461L56.063 59.8497C56.1455 59.9237 56.2338 59.9603 56.3278 59.9596C56.4236 59.9571 56.5145 59.9136 56.6006 59.829C56.6884 59.7427 56.7364 59.6533 56.7446 59.5607C56.7527 59.4681 56.7217 59.3858 56.6516 59.3137C56.5972 59.2578 56.5355 59.2286 56.4664 59.226C56.3972 59.2235 56.327 59.2378 56.2557 59.2691C56.1845 59.2968 56.0917 59.3421 55.9775 59.4049C55.8205 59.4887 55.6868 59.5514 55.5764 59.5929C55.466 59.6308 55.3489 59.642 55.2249 59.6263C55.101 59.6071 54.9812 59.538 54.8654 59.4191C54.7567 59.3073 54.6899 59.1827 54.6648 59.0452C54.6398 58.9077 54.6564 58.768 54.7147 58.6261C54.7713 58.4824 54.8642 58.3471 54.9933 58.2202C55.187 58.0299 55.3903 57.9235 55.6034 57.901C55.8165 57.8749 56.0117 57.9404 56.1891 58.0975L55.7748 58.5044C55.7029 58.4377 55.6207 58.4091 55.5284 58.4188C55.4361 58.4249 55.3478 58.4693 55.2636 58.5521C55.19 58.6243 55.1502 58.7023 55.1439 58.786C55.1377 58.8661 55.1714 58.944 55.245 59.0197C55.2941 59.0702 55.3514 59.0967 55.417 59.0992C55.4827 59.0981 55.5502 59.0847 55.6197 59.0587C55.6891 59.0292 55.7819 58.9839 55.8978 58.9229C56.0548 58.8391 56.1894 58.7774 56.3016 58.7376C56.4138 58.6979 56.5327 58.6868 56.6584 58.7043C56.7841 58.7217 56.904 58.789 57.0179 58.9062C57.1161 59.0071 57.1813 59.1263 57.2134 59.2639C57.2456 59.4015 57.2369 59.5458 57.1873 59.6967C57.136 59.8458 57.0413 59.9882 56.9032 60.1239Z" fill="#9C7346"/>
</svg>
